M48
; DRILL file {KiCad 9.0.1} date 2025-05-05T23:15:39+0100
; FORMAT={-:-/ absolute / metric / decimal}
; #@! TF.CreationDate,2025-05-05T23:15:39+01:00
; #@! TF.GenerationSoftware,Kicad,Pcbnew,9.0.1
; #@! TF.FileFunction,Plated,1,2,PTH
FMAT,2
METRIC
; #@! TA.AperFunction,Plated,PTH,ViaDrill
T1C0.300
; #@! TA.AperFunction,Plated,PTH,ComponentDrill
T2C0.700
; #@! TA.AperFunction,Plated,PTH,ViaDrill
T3C0.750
; #@! TA.AperFunction,Plated,PTH,ComponentDrill
T4C1.000
; #@! TA.AperFunction,Plated,PTH,ComponentDrill
T5C1.500
; #@! TA.AperFunction,Plated,PTH,ComponentDrill
T6C2.200
%
G90
G05
T1
X50.0Y-115.0
X53.5Y-96.0
X57.0Y-77.5
X61.5Y-57.0
X68.5Y-115.0
X72.5Y-96.0
X76.0Y-77.5
X79.0Y-58.5
X88.5Y-113.5
X92.0Y-95.0
X95.5Y-76.0
X98.0Y-58.5
X101.0Y-53.0
X106.0Y-123.0
X109.5Y-103.5
X113.0Y-52.5
X113.0Y-85.5
X113.528Y-49.488
X115.264Y-52.497
X116.0Y-66.0
X117.0Y-48.0
X119.893Y-46.392
X119.991Y-47.327
X120.301Y-52.491
X120.675Y-49.15
X120.816Y-51.044
X120.847Y-50.027
X123.0Y-46.5
X123.768Y-47.802
X124.5Y-130.5
X125.317Y-54.473
X126.19Y-47.839
X126.303Y-55.89
X126.428Y-54.136
X126.5Y-57.0
X127.0Y-112.5
X127.0Y-47.544
X127.403Y-53.53
X127.423Y-52.692
X127.561Y-51.524
X130.218Y-50.021
X130.5Y-53.659
X130.5Y-57.0
X130.5Y-93.5
X131.741Y-48.983
X132.578Y-49.831
X132.737Y-51.71
X132.953Y-52.803
X133.181Y-49.157
X133.5Y-75.0
X134.066Y-58.219
X134.5Y-61.0
X136.743Y-53.394
X141.206Y-57.531
X143.5Y-130.5
X145.5Y-53.77
X146.0Y-56.5
X146.5Y-71.0
X146.5Y-82.0
X146.5Y-91.5
X147.755Y-71.511
X148.5Y-82.0
X148.5Y-92.5
X148.5Y-108.5
X149.0Y-55.0
X149.393Y-68.43
X150.13Y-67.5
X151.0Y-55.0
X151.0Y-82.0
X151.0Y-93.0
X151.4Y-67.5
X152.67Y-67.5
X153.96Y-76.788
X154.5Y-114.0
X155.0Y-77.5
X156.5Y-78.0
X158.0Y-78.5
X159.0Y-55.5
X159.0Y-79.0
X161.5Y-55.0
X162.0Y-93.5
X162.943Y-77.004
X163.0Y-72.0
X163.763Y-70.5
X164.462Y-52.394
X165.0Y-63.0
X165.5Y-56.0
X165.531Y-71.115
X166.0Y-64.0
X166.0Y-65.0
X166.0Y-67.5
X166.0Y-74.5
X166.0Y-106.5
X167.0Y-52.5
X167.166Y-62.157
X168.0Y-56.0
X169.0Y-93.0
X172.5Y-112.0
X172.663Y-50.159
X175.48Y-48.123
X176.0Y-130.5
X178.5Y-47.5
X181.5Y-47.5
X184.0Y-66.5
X184.533Y-67.816
X187.5Y-85.5
X190.5Y-104.5
X194.0Y-123.0
X201.743Y-58.091
X205.0Y-75.5
X208.5Y-95.0
X211.5Y-113.5
X221.0Y-58.5
X224.5Y-77.5
X227.0Y-96.5
X231.0Y-115.0
X240.5Y-58.5
X244.0Y-77.0
X247.0Y-96.5
X250.5Y-115.0
T2
X135.18Y-47.5
X135.18Y-47.9
X135.18Y-48.3
X135.18Y-51.35
X135.18Y-51.85
X143.82Y-47.5
X143.82Y-47.9
X143.82Y-48.3
X143.82Y-51.35
X143.82Y-51.85
T3
X123.135Y-52.321
X123.15Y-50.35
X124.939Y-50.438
X124.974Y-52.352
T4
X105.0Y-49.5
X105.0Y-52.04
X146.42Y-98.0
X148.96Y-98.0
X151.5Y-98.0
X154.04Y-98.0
T5
X37.865Y-108.185
X41.164Y-89.474
X44.463Y-70.763
X44.559Y-106.787
X47.762Y-52.051
X47.858Y-88.075
X51.158Y-69.364
X54.457Y-50.653
X57.097Y-108.53
X60.396Y-89.819
X63.695Y-71.108
X63.791Y-107.131
X66.995Y-52.396
X67.091Y-88.42
X70.39Y-69.709
X73.689Y-50.997
X76.676Y-106.905
X79.976Y-88.194
X83.275Y-69.483
X83.371Y-105.507
X86.574Y-50.771
X86.67Y-86.795
X89.97Y-68.084
X93.269Y-49.373
X94.346Y-116.114
X97.645Y-97.402
X100.944Y-78.691
X101.04Y-114.715
X104.244Y-59.98
X104.34Y-96.004
X107.639Y-77.292
X110.938Y-58.581
X112.189Y-124.337
X115.488Y-105.626
X118.788Y-86.914
X118.884Y-122.938
X122.087Y-68.203
X122.183Y-104.227
X125.482Y-85.516
X128.781Y-66.804
X130.171Y-124.461
X131.569Y-131.156
X133.47Y-105.75
X134.869Y-112.445
X163.558Y-104.94
X166.858Y-123.646
X167.162Y-110.753
X170.159Y-69.52
X170.462Y-129.458
X173.458Y-88.231
X175.972Y-65.916
X176.758Y-106.943
X179.271Y-84.627
X180.057Y-125.654
X182.57Y-103.339
X185.869Y-122.05
X188.002Y-61.297
X191.301Y-80.008
X193.815Y-57.693
X194.601Y-98.719
X197.114Y-76.404
X197.9Y-117.431
X200.413Y-95.115
X203.713Y-113.827
X205.672Y-52.089
X208.971Y-70.8
X211.484Y-48.484
X212.27Y-89.511
X214.783Y-67.196
X215.57Y-108.223
X218.083Y-85.907
X221.382Y-104.618
X225.251Y-53.713
X228.551Y-72.425
X231.064Y-50.109
X231.85Y-91.136
X234.363Y-68.821
X235.149Y-109.847
X237.662Y-87.532
X240.962Y-106.243
X244.484Y-53.368
X247.783Y-72.08
X250.296Y-49.764
X251.082Y-90.791
X253.595Y-68.476
X254.381Y-109.502
X256.895Y-87.187
X260.194Y-105.898
T6
X52.5Y-120.5
X80.5Y-48.0
X142.0Y-72.0
X150.0Y-103.0
X150.0Y-127.0
X167.0Y-82.0
X219.0Y-48.0
X247.5Y-120.5
M30
