M48
; DRILL file {KiCad 9.0.1} date 2025-05-05T23:15:39+0100
; FORMAT={-:-/ absolute / metric / decimal}
; #@! TF.CreationDate,2025-05-05T23:15:39+01:00
; #@! TF.GenerationSoftware,Kicad,Pcbnew,9.0.1
; #@! TF.FileFunction,NonPlated,1,2,NPTH
FMAT,2
METRIC
; #@! TA.AperFunction,NonPlated,NPTH,ComponentDrill
T1C1.750
; #@! TA.AperFunction,NonPlated,NPTH,ComponentDrill
T2C4.000
%
G90
G05
T1
X36.173Y-110.466
X39.472Y-91.755
X42.771Y-73.043
X46.071Y-54.332
X46.178Y-112.23
X49.478Y-93.519
X52.777Y-74.808
X55.405Y-110.811
X56.076Y-56.096
X58.704Y-92.1
X62.004Y-73.388
X65.303Y-54.677
X65.411Y-112.575
X68.71Y-93.864
X72.009Y-75.153
X74.985Y-109.186
X75.309Y-56.441
X78.284Y-90.475
X81.583Y-71.764
X84.883Y-53.052
X84.99Y-110.951
X88.29Y-92.239
X91.589Y-73.528
X92.654Y-118.395
X94.888Y-54.817
X95.953Y-99.683
X99.253Y-80.972
X102.552Y-62.26
X102.66Y-120.159
X105.959Y-101.447
X109.258Y-82.736
X110.497Y-126.618
X112.558Y-64.025
X113.796Y-107.907
X117.096Y-89.195
X120.395Y-70.484
X120.503Y-128.382
X123.802Y-109.671
X127.101Y-90.959
X130.401Y-72.248
X133.85Y-132.848
X135.614Y-122.842
X137.149Y-114.136
X138.914Y-104.131
X160.836Y-104.131
X162.601Y-114.136
X164.136Y-122.836
X165.9Y-132.842
X169.349Y-72.242
X172.649Y-90.953
X175.948Y-109.665
X179.247Y-128.376
X179.355Y-70.478
X182.654Y-89.189
X185.954Y-107.9
X187.193Y-64.019
X189.253Y-126.612
X190.492Y-82.73
X193.791Y-101.441
X197.09Y-120.153
X197.198Y-62.254
X200.497Y-80.966
X203.797Y-99.677
X204.862Y-54.81
X207.096Y-118.388
X208.161Y-73.522
X211.461Y-92.233
X214.76Y-110.945
X214.868Y-53.046
X218.167Y-71.758
X221.466Y-90.469
X224.442Y-56.435
X224.766Y-109.18
X227.741Y-75.147
X231.04Y-93.858
X234.34Y-112.569
X234.447Y-54.671
X237.747Y-73.382
X241.046Y-92.094
X243.674Y-56.09
X244.345Y-110.805
X246.973Y-74.802
X250.273Y-93.513
X253.572Y-112.224
X253.68Y-54.326
X256.979Y-73.037
X260.278Y-91.749
X263.577Y-110.46
T2
X41.176Y-111.348
X44.475Y-92.637
X47.774Y-73.926
X51.074Y-55.214
X60.408Y-111.693
X63.707Y-92.982
X67.006Y-74.271
X70.306Y-55.559
X79.987Y-110.068
X83.287Y-91.357
X86.586Y-72.646
X89.885Y-53.934
X97.657Y-119.277
X100.956Y-100.565
X104.256Y-81.854
X107.555Y-63.143
X115.5Y-127.5
X118.799Y-108.789
X122.099Y-90.077
X125.398Y-71.366
X134.732Y-127.845
X138.032Y-109.134
X161.719Y-109.134
X165.018Y-127.839
X174.352Y-71.36
X177.652Y-90.071
X180.951Y-108.783
X184.25Y-127.494
X192.195Y-63.137
X195.495Y-81.848
X198.794Y-100.559
X202.093Y-119.271
X209.865Y-53.928
X213.164Y-72.64
X216.463Y-91.351
X219.763Y-110.062
X229.444Y-55.553
X232.744Y-74.264
X236.043Y-92.976
X239.342Y-111.687
X248.677Y-55.208
X251.976Y-73.92
X255.275Y-92.631
X258.575Y-111.342
M30
