%TF.GenerationSoftware,KiCad,Pcbnew,9.0.1*%
%TF.CreationDate,2025-05-05T23:15:39+01:00*%
%TF.ProjectId,keyboard,6b657962-6f61-4726-942e-6b696361645f,rev?*%
%TF.SameCoordinates,Original*%
%TF.FileFunction,Drillmap*%
%TF.FilePolarity,Positive*%
%FSLAX45Y45*%
G04 Gerber Fmt 4.5, Leading zero omitted, Abs format (unit mm)*
G04 Created by KiCad (PCBNEW 9.0.1) date 2025-05-05 23:15:39*
%MOMM*%
%LPD*%
G01*
G04 APERTURE LIST*
%ADD10C,0.050000*%
%ADD11C,0.200000*%
%ADD12C,0.100000*%
%ADD13C,0.150000*%
%ADD14C,0.220000*%
G04 APERTURE END LIST*
D10*
X25543190Y-4736003D02*
X26809992Y-11658168D01*
X26407089Y-12233900D01*
X17500000Y-13750000D01*
X12500000Y-13750000D01*
X3491727Y-12090581D01*
X3098058Y-11509710D01*
X4458621Y-4706893D01*
X4710990Y-4500000D01*
X25260077Y-4500000D01*
X25543190Y-4736003D01*
D11*
D12*
X4985000Y-11485000D02*
X5015000Y-11515000D01*
X5015000Y-11485000D02*
X4985000Y-11515000D01*
X5335000Y-9585000D02*
X5365000Y-9615000D01*
X5365000Y-9585000D02*
X5335000Y-9615000D01*
X5685000Y-7735000D02*
X5715000Y-7765000D01*
X5715000Y-7735000D02*
X5685000Y-7765000D01*
X6135000Y-5685000D02*
X6165000Y-5715000D01*
X6165000Y-5685000D02*
X6135000Y-5715000D01*
X6835000Y-11485000D02*
X6865000Y-11515000D01*
X6865000Y-11485000D02*
X6835000Y-11515000D01*
X7235000Y-9585000D02*
X7265000Y-9615000D01*
X7265000Y-9585000D02*
X7235000Y-9615000D01*
X7585000Y-7735000D02*
X7615000Y-7765000D01*
X7615000Y-7735000D02*
X7585000Y-7765000D01*
X7885000Y-5835000D02*
X7915000Y-5865000D01*
X7915000Y-5835000D02*
X7885000Y-5865000D01*
X8835000Y-11335000D02*
X8865000Y-11365000D01*
X8865000Y-11335000D02*
X8835000Y-11365000D01*
X9185000Y-9485000D02*
X9215000Y-9515000D01*
X9215000Y-9485000D02*
X9185000Y-9515000D01*
X9535000Y-7585000D02*
X9565000Y-7615000D01*
X9565000Y-7585000D02*
X9535000Y-7615000D01*
X9785000Y-5835000D02*
X9815000Y-5865000D01*
X9815000Y-5835000D02*
X9785000Y-5865000D01*
X10085000Y-5285000D02*
X10115000Y-5315000D01*
X10115000Y-5285000D02*
X10085000Y-5315000D01*
X10585000Y-12285000D02*
X10615000Y-12315000D01*
X10615000Y-12285000D02*
X10585000Y-12315000D01*
X10935000Y-10335000D02*
X10965000Y-10365000D01*
X10965000Y-10335000D02*
X10935000Y-10365000D01*
X11285000Y-5235000D02*
X11315000Y-5265000D01*
X11315000Y-5235000D02*
X11285000Y-5265000D01*
X11285000Y-8535000D02*
X11315000Y-8565000D01*
X11315000Y-8535000D02*
X11285000Y-8565000D01*
X11337820Y-4933790D02*
X11367820Y-4963790D01*
X11367820Y-4933790D02*
X11337820Y-4963790D01*
X11511399Y-5234718D02*
X11541399Y-5264718D01*
X11541399Y-5234718D02*
X11511399Y-5264718D01*
X11585000Y-6585000D02*
X11615000Y-6615000D01*
X11615000Y-6585000D02*
X11585000Y-6615000D01*
X11685000Y-4785000D02*
X11715000Y-4815000D01*
X11715000Y-4785000D02*
X11685000Y-4815000D01*
X11974257Y-4624185D02*
X12004257Y-4654185D01*
X12004257Y-4624185D02*
X11974257Y-4654185D01*
X11984150Y-4717673D02*
X12014150Y-4747673D01*
X12014150Y-4717673D02*
X11984150Y-4747673D01*
X12015052Y-5234087D02*
X12045052Y-5264087D01*
X12045052Y-5234087D02*
X12015052Y-5264087D01*
X12052515Y-4900011D02*
X12082515Y-4930011D01*
X12082515Y-4900011D02*
X12052515Y-4930011D01*
X12066589Y-5089387D02*
X12096589Y-5119387D01*
X12096589Y-5089387D02*
X12066589Y-5119387D01*
X12069655Y-4987671D02*
X12099655Y-5017671D01*
X12099655Y-4987671D02*
X12069655Y-5017671D01*
X12285000Y-4635000D02*
X12315000Y-4665000D01*
X12315000Y-4635000D02*
X12285000Y-4665000D01*
X12361757Y-4765229D02*
X12391757Y-4795229D01*
X12391757Y-4765229D02*
X12361757Y-4795229D01*
X12435000Y-13035000D02*
X12465000Y-13065000D01*
X12465000Y-13035000D02*
X12435000Y-13065000D01*
X12516725Y-5432310D02*
X12546725Y-5462310D01*
X12546725Y-5432310D02*
X12516725Y-5462310D01*
X12603981Y-4768852D02*
X12633981Y-4798852D01*
X12633981Y-4768852D02*
X12603981Y-4798852D01*
X12615313Y-5573959D02*
X12645313Y-5603959D01*
X12645313Y-5573959D02*
X12615313Y-5603959D01*
X12627766Y-5398581D02*
X12657766Y-5428581D01*
X12657766Y-5398581D02*
X12627766Y-5428581D01*
X12635000Y-5685000D02*
X12665000Y-5715000D01*
X12665000Y-5685000D02*
X12635000Y-5715000D01*
X12685000Y-11235000D02*
X12715000Y-11265000D01*
X12715000Y-11235000D02*
X12685000Y-11265000D01*
X12685003Y-4739389D02*
X12715003Y-4769389D01*
X12715003Y-4739389D02*
X12685003Y-4769389D01*
X12725322Y-5337976D02*
X12755322Y-5367976D01*
X12755322Y-5337976D02*
X12725322Y-5367976D01*
X12727342Y-5254183D02*
X12757342Y-5284183D01*
X12757342Y-5254183D02*
X12727342Y-5284183D01*
X12741089Y-5137406D02*
X12771089Y-5167406D01*
X12771089Y-5137406D02*
X12741089Y-5167406D01*
X13006772Y-4987141D02*
X13036772Y-5017141D01*
X13036772Y-4987141D02*
X13006772Y-5017141D01*
X13035000Y-5350947D02*
X13065000Y-5380947D01*
X13065000Y-5350947D02*
X13035000Y-5380947D01*
X13035000Y-5685000D02*
X13065000Y-5715000D01*
X13065000Y-5685000D02*
X13035000Y-5715000D01*
X13035000Y-9335000D02*
X13065000Y-9365000D01*
X13065000Y-9335000D02*
X13035000Y-9365000D01*
X13159095Y-4883276D02*
X13189095Y-4913276D01*
X13189095Y-4883276D02*
X13159095Y-4913276D01*
X13242784Y-4968127D02*
X13272784Y-4998127D01*
X13272784Y-4968127D02*
X13242784Y-4998127D01*
X13258653Y-5155966D02*
X13288653Y-5185966D01*
X13288653Y-5155966D02*
X13258653Y-5185966D01*
X13280304Y-5265315D02*
X13310304Y-5295315D01*
X13310304Y-5265315D02*
X13280304Y-5295315D01*
X13303126Y-4900702D02*
X13333126Y-4930702D01*
X13333126Y-4900702D02*
X13303126Y-4930702D01*
X13335000Y-7485000D02*
X13365000Y-7515000D01*
X13365000Y-7485000D02*
X13335000Y-7515000D01*
X13391587Y-5806896D02*
X13421587Y-5836896D01*
X13421587Y-5806896D02*
X13391587Y-5836896D01*
X13435000Y-6085000D02*
X13465000Y-6115000D01*
X13465000Y-6085000D02*
X13435000Y-6115000D01*
X13659262Y-5324400D02*
X13689262Y-5354400D01*
X13689262Y-5324400D02*
X13659262Y-5354400D01*
X14105642Y-5738150D02*
X14135642Y-5768150D01*
X14135642Y-5738150D02*
X14105642Y-5768150D01*
X14335000Y-13035000D02*
X14365000Y-13065000D01*
X14365000Y-13035000D02*
X14335000Y-13065000D01*
X14535000Y-5362000D02*
X14565000Y-5392000D01*
X14565000Y-5362000D02*
X14535000Y-5392000D01*
X14585000Y-5635000D02*
X14615000Y-5665000D01*
X14615000Y-5635000D02*
X14585000Y-5665000D01*
X14635000Y-7085000D02*
X14665000Y-7115000D01*
X14665000Y-7085000D02*
X14635000Y-7115000D01*
X14635000Y-8185000D02*
X14665000Y-8215000D01*
X14665000Y-8185000D02*
X14635000Y-8215000D01*
X14635000Y-9135000D02*
X14665000Y-9165000D01*
X14665000Y-9135000D02*
X14635000Y-9165000D01*
X14760484Y-7136144D02*
X14790484Y-7166144D01*
X14790484Y-7136144D02*
X14760484Y-7166144D01*
X14835000Y-8185000D02*
X14865000Y-8215000D01*
X14865000Y-8185000D02*
X14835000Y-8215000D01*
X14835000Y-9235000D02*
X14865000Y-9265000D01*
X14865000Y-9235000D02*
X14835000Y-9265000D01*
X14835000Y-10835000D02*
X14865000Y-10865000D01*
X14865000Y-10835000D02*
X14835000Y-10865000D01*
X14885000Y-5485000D02*
X14915000Y-5515000D01*
X14915000Y-5485000D02*
X14885000Y-5515000D01*
X14924279Y-6827962D02*
X14954279Y-6857962D01*
X14954279Y-6827962D02*
X14924279Y-6857962D01*
X14998000Y-6735000D02*
X15028000Y-6765000D01*
X15028000Y-6735000D02*
X14998000Y-6765000D01*
X15085000Y-5485000D02*
X15115000Y-5515000D01*
X15115000Y-5485000D02*
X15085000Y-5515000D01*
X15085000Y-8185000D02*
X15115000Y-8215000D01*
X15115000Y-8185000D02*
X15085000Y-8215000D01*
X15085000Y-9285000D02*
X15115000Y-9315000D01*
X15115000Y-9285000D02*
X15085000Y-9315000D01*
X15125000Y-6735000D02*
X15155000Y-6765000D01*
X15155000Y-6735000D02*
X15125000Y-6765000D01*
X15252000Y-6735000D02*
X15282000Y-6765000D01*
X15282000Y-6735000D02*
X15252000Y-6765000D01*
X15380963Y-7663822D02*
X15410963Y-7693822D01*
X15410963Y-7663822D02*
X15380963Y-7693822D01*
X15435000Y-11385000D02*
X15465000Y-11415000D01*
X15465000Y-11385000D02*
X15435000Y-11415000D01*
X15485000Y-7735000D02*
X15515000Y-7765000D01*
X15515000Y-7735000D02*
X15485000Y-7765000D01*
X15635000Y-7785000D02*
X15665000Y-7815000D01*
X15665000Y-7785000D02*
X15635000Y-7815000D01*
X15785000Y-7835000D02*
X15815000Y-7865000D01*
X15815000Y-7835000D02*
X15785000Y-7865000D01*
X15885000Y-5535000D02*
X15915000Y-5565000D01*
X15915000Y-5535000D02*
X15885000Y-5565000D01*
X15885000Y-7885000D02*
X15915000Y-7915000D01*
X15915000Y-7885000D02*
X15885000Y-7915000D01*
X16135000Y-5485000D02*
X16165000Y-5515000D01*
X16165000Y-5485000D02*
X16135000Y-5515000D01*
X16185000Y-9335000D02*
X16215000Y-9365000D01*
X16215000Y-9335000D02*
X16185000Y-9365000D01*
X16279350Y-7685425D02*
X16309350Y-7715425D01*
X16309350Y-7685425D02*
X16279350Y-7715425D01*
X16285000Y-7185000D02*
X16315000Y-7215000D01*
X16315000Y-7185000D02*
X16285000Y-7215000D01*
X16361346Y-7035000D02*
X16391346Y-7065000D01*
X16391346Y-7035000D02*
X16361346Y-7065000D01*
X16431218Y-5224419D02*
X16461218Y-5254419D01*
X16461218Y-5224419D02*
X16431218Y-5254419D01*
X16485000Y-6285000D02*
X16515000Y-6315000D01*
X16515000Y-6285000D02*
X16485000Y-6315000D01*
X16535000Y-5585000D02*
X16565000Y-5615000D01*
X16565000Y-5585000D02*
X16535000Y-5615000D01*
X16538093Y-7096468D02*
X16568093Y-7126468D01*
X16568093Y-7096468D02*
X16538093Y-7126468D01*
X16585000Y-6385000D02*
X16615000Y-6415000D01*
X16615000Y-6385000D02*
X16585000Y-6415000D01*
X16585000Y-6485000D02*
X16615000Y-6515000D01*
X16615000Y-6485000D02*
X16585000Y-6515000D01*
X16585000Y-6735000D02*
X16615000Y-6765000D01*
X16615000Y-6735000D02*
X16585000Y-6765000D01*
X16585000Y-7435000D02*
X16615000Y-7465000D01*
X16615000Y-7435000D02*
X16585000Y-7465000D01*
X16585000Y-10635000D02*
X16615000Y-10665000D01*
X16615000Y-10635000D02*
X16585000Y-10665000D01*
X16685000Y-5235000D02*
X16715000Y-5265000D01*
X16715000Y-5235000D02*
X16685000Y-5265000D01*
X16701573Y-6200723D02*
X16731573Y-6230723D01*
X16731573Y-6200723D02*
X16701573Y-6230723D01*
X16785000Y-5585000D02*
X16815000Y-5615000D01*
X16815000Y-5585000D02*
X16785000Y-5615000D01*
X16885000Y-9285000D02*
X16915000Y-9315000D01*
X16915000Y-9285000D02*
X16885000Y-9315000D01*
X17235000Y-11185000D02*
X17265000Y-11215000D01*
X17265000Y-11185000D02*
X17235000Y-11215000D01*
X17251288Y-5000865D02*
X17281288Y-5030865D01*
X17281288Y-5000865D02*
X17251288Y-5030865D01*
X17533019Y-4797323D02*
X17563019Y-4827323D01*
X17563019Y-4797323D02*
X17533019Y-4827323D01*
X17585000Y-13035000D02*
X17615000Y-13065000D01*
X17615000Y-13035000D02*
X17585000Y-13065000D01*
X17835000Y-4735000D02*
X17865000Y-4765000D01*
X17865000Y-4735000D02*
X17835000Y-4765000D01*
X18135000Y-4735000D02*
X18165000Y-4765000D01*
X18165000Y-4735000D02*
X18135000Y-4765000D01*
X18385000Y-6635000D02*
X18415000Y-6665000D01*
X18415000Y-6635000D02*
X18385000Y-6665000D01*
X18438299Y-6766647D02*
X18468299Y-6796647D01*
X18468299Y-6766647D02*
X18438299Y-6796647D01*
X18735000Y-8535000D02*
X18765000Y-8565000D01*
X18765000Y-8535000D02*
X18735000Y-8565000D01*
X19035000Y-10435000D02*
X19065000Y-10465000D01*
X19065000Y-10435000D02*
X19035000Y-10465000D01*
X19385000Y-12285000D02*
X19415000Y-12315000D01*
X19415000Y-12285000D02*
X19385000Y-12315000D01*
X20159287Y-5794067D02*
X20189287Y-5824067D01*
X20189287Y-5794067D02*
X20159287Y-5824067D01*
X20485000Y-7535000D02*
X20515000Y-7565000D01*
X20515000Y-7535000D02*
X20485000Y-7565000D01*
X20835000Y-9485000D02*
X20865000Y-9515000D01*
X20865000Y-9485000D02*
X20835000Y-9515000D01*
X21135000Y-11335000D02*
X21165000Y-11365000D01*
X21165000Y-11335000D02*
X21135000Y-11365000D01*
X22085000Y-5835000D02*
X22115000Y-5865000D01*
X22115000Y-5835000D02*
X22085000Y-5865000D01*
X22435000Y-7735000D02*
X22465000Y-7765000D01*
X22465000Y-7735000D02*
X22435000Y-7765000D01*
X22685000Y-9635000D02*
X22715000Y-9665000D01*
X22715000Y-9635000D02*
X22685000Y-9665000D01*
X23085000Y-11485000D02*
X23115000Y-11515000D01*
X23115000Y-11485000D02*
X23085000Y-11515000D01*
X24035000Y-5835000D02*
X24065000Y-5865000D01*
X24065000Y-5835000D02*
X24035000Y-5865000D01*
X24385000Y-7685000D02*
X24415000Y-7715000D01*
X24415000Y-7685000D02*
X24385000Y-7715000D01*
X24685000Y-9635000D02*
X24715000Y-9665000D01*
X24715000Y-9635000D02*
X24685000Y-9665000D01*
X25035000Y-11485000D02*
X25065000Y-11515000D01*
X25065000Y-11485000D02*
X25035000Y-11515000D01*
X13553000Y-4750000D02*
G75*
G02*
X13483000Y-4750000I-35000J0D01*
G01*
X13483000Y-4750000D02*
G75*
G02*
X13553000Y-4750000I35000J0D01*
G01*
X13553000Y-4790000D02*
G75*
G02*
X13483000Y-4790000I-35000J0D01*
G01*
X13483000Y-4790000D02*
G75*
G02*
X13553000Y-4790000I35000J0D01*
G01*
X13553000Y-4830000D02*
G75*
G02*
X13483000Y-4830000I-35000J0D01*
G01*
X13483000Y-4830000D02*
G75*
G02*
X13553000Y-4830000I35000J0D01*
G01*
X13553000Y-5135000D02*
G75*
G02*
X13483000Y-5135000I-35000J0D01*
G01*
X13483000Y-5135000D02*
G75*
G02*
X13553000Y-5135000I35000J0D01*
G01*
X13553000Y-5185000D02*
G75*
G02*
X13483000Y-5185000I-35000J0D01*
G01*
X13483000Y-5185000D02*
G75*
G02*
X13553000Y-5185000I35000J0D01*
G01*
X14417000Y-4750000D02*
G75*
G02*
X14347000Y-4750000I-35000J0D01*
G01*
X14347000Y-4750000D02*
G75*
G02*
X14417000Y-4750000I35000J0D01*
G01*
X14417000Y-4790000D02*
G75*
G02*
X14347000Y-4790000I-35000J0D01*
G01*
X14347000Y-4790000D02*
G75*
G02*
X14417000Y-4790000I35000J0D01*
G01*
X14417000Y-4830000D02*
G75*
G02*
X14347000Y-4830000I-35000J0D01*
G01*
X14347000Y-4830000D02*
G75*
G02*
X14417000Y-4830000I35000J0D01*
G01*
X14417000Y-5135000D02*
G75*
G02*
X14347000Y-5135000I-35000J0D01*
G01*
X14347000Y-5135000D02*
G75*
G02*
X14417000Y-5135000I35000J0D01*
G01*
X14417000Y-5185000D02*
G75*
G02*
X14347000Y-5185000I-35000J0D01*
G01*
X14347000Y-5185000D02*
G75*
G02*
X14417000Y-5185000I35000J0D01*
G01*
X12313463Y-5194607D02*
X12313463Y-5269607D01*
X12275963Y-5232107D02*
X12350963Y-5232107D01*
X12315000Y-4997500D02*
X12315000Y-5072500D01*
X12277500Y-5035000D02*
X12352500Y-5035000D01*
X12493902Y-5006343D02*
X12493902Y-5081343D01*
X12456402Y-5043843D02*
X12531402Y-5043843D01*
X12497354Y-5197713D02*
X12497354Y-5272713D01*
X12459854Y-5235213D02*
X12534854Y-5235213D01*
X10535356Y-4985356D02*
X10535356Y-4914644D01*
X10464644Y-4914644D01*
X10464644Y-4985356D01*
X10535356Y-4985356D01*
X10535356Y-5239356D02*
X10535356Y-5168644D01*
X10464644Y-5168644D01*
X10464644Y-5239356D01*
X10535356Y-5239356D01*
X14677356Y-9835356D02*
X14677356Y-9764644D01*
X14606644Y-9764644D01*
X14606644Y-9835356D01*
X14677356Y-9835356D01*
X14931356Y-9835356D02*
X14931356Y-9764644D01*
X14860644Y-9764644D01*
X14860644Y-9835356D01*
X14931356Y-9835356D01*
X15185356Y-9835356D02*
X15185356Y-9764644D01*
X15114644Y-9764644D01*
X15114644Y-9835356D01*
X15185356Y-9835356D01*
X15439356Y-9835356D02*
X15439356Y-9764644D01*
X15368644Y-9764644D01*
X15368644Y-9835356D01*
X15439356Y-9835356D01*
D13*
X3786450Y-10893530D02*
X3861450Y-10818530D01*
X3786450Y-10743530D01*
X3711450Y-10818530D01*
X3786450Y-10893530D01*
X4116382Y-9022396D02*
X4191382Y-8947396D01*
X4116382Y-8872396D01*
X4041382Y-8947396D01*
X4116382Y-9022396D01*
X4446314Y-7151261D02*
X4521314Y-7076261D01*
X4446314Y-7001261D01*
X4371314Y-7076261D01*
X4446314Y-7151261D01*
X4455910Y-10753656D02*
X4530910Y-10678656D01*
X4455910Y-10603656D01*
X4380910Y-10678656D01*
X4455910Y-10753656D01*
X4776245Y-5280126D02*
X4851245Y-5205126D01*
X4776245Y-5130126D01*
X4701245Y-5205126D01*
X4776245Y-5280126D01*
X4785842Y-8882521D02*
X4860842Y-8807521D01*
X4785842Y-8732521D01*
X4710842Y-8807521D01*
X4785842Y-8882521D01*
X5115773Y-7011386D02*
X5190773Y-6936386D01*
X5115773Y-6861386D01*
X5040773Y-6936386D01*
X5115773Y-7011386D01*
X5445705Y-5140252D02*
X5520705Y-5065252D01*
X5445705Y-4990252D01*
X5370705Y-5065252D01*
X5445705Y-5140252D01*
X5709680Y-10928020D02*
X5784680Y-10853020D01*
X5709680Y-10778020D01*
X5634680Y-10853020D01*
X5709680Y-10928020D01*
X6039611Y-9056885D02*
X6114611Y-8981885D01*
X6039611Y-8906885D01*
X5964611Y-8981885D01*
X6039611Y-9056885D01*
X6369543Y-7185750D02*
X6444543Y-7110750D01*
X6369543Y-7035750D01*
X6294543Y-7110750D01*
X6369543Y-7185750D01*
X6379139Y-10788145D02*
X6454139Y-10713145D01*
X6379139Y-10638145D01*
X6304139Y-10713145D01*
X6379139Y-10788145D01*
X6699474Y-5314616D02*
X6774474Y-5239616D01*
X6699474Y-5164616D01*
X6624474Y-5239616D01*
X6699474Y-5314616D01*
X6709071Y-8917010D02*
X6784071Y-8842010D01*
X6709071Y-8767010D01*
X6634071Y-8842010D01*
X6709071Y-8917010D01*
X7039002Y-7045876D02*
X7114002Y-6970876D01*
X7039002Y-6895876D01*
X6964002Y-6970876D01*
X7039002Y-7045876D01*
X7368934Y-5174741D02*
X7443934Y-5099741D01*
X7368934Y-5024741D01*
X7293934Y-5099741D01*
X7368934Y-5174741D01*
X7667638Y-10765547D02*
X7742638Y-10690547D01*
X7667638Y-10615547D01*
X7592638Y-10690547D01*
X7667638Y-10765547D01*
X7997570Y-8894413D02*
X8072570Y-8819413D01*
X7997570Y-8744413D01*
X7922570Y-8819413D01*
X7997570Y-8894413D01*
X8327502Y-7023278D02*
X8402502Y-6948278D01*
X8327502Y-6873278D01*
X8252502Y-6948278D01*
X8327502Y-7023278D01*
X8337098Y-10625673D02*
X8412098Y-10550673D01*
X8337098Y-10475673D01*
X8262098Y-10550673D01*
X8337098Y-10625673D01*
X8657433Y-5152143D02*
X8732433Y-5077143D01*
X8657433Y-5002143D01*
X8582433Y-5077143D01*
X8657433Y-5152143D01*
X8667030Y-8754538D02*
X8742030Y-8679538D01*
X8667030Y-8604538D01*
X8592030Y-8679538D01*
X8667030Y-8754538D01*
X8996961Y-6883403D02*
X9071961Y-6808403D01*
X8996961Y-6733403D01*
X8921961Y-6808403D01*
X8996961Y-6883403D01*
X9326893Y-5012269D02*
X9401893Y-4937269D01*
X9326893Y-4862269D01*
X9251893Y-4937269D01*
X9326893Y-5012269D01*
X9434584Y-11686363D02*
X9509584Y-11611363D01*
X9434584Y-11536363D01*
X9359584Y-11611363D01*
X9434584Y-11686363D01*
X9764516Y-9815229D02*
X9839516Y-9740229D01*
X9764516Y-9665229D01*
X9689516Y-9740229D01*
X9764516Y-9815229D01*
X10094447Y-7944094D02*
X10169447Y-7869094D01*
X10094447Y-7794094D01*
X10019447Y-7869094D01*
X10094447Y-7944094D01*
X10104044Y-11546489D02*
X10179044Y-11471489D01*
X10104044Y-11396489D01*
X10029044Y-11471489D01*
X10104044Y-11546489D01*
X10424379Y-6072959D02*
X10499379Y-5997959D01*
X10424379Y-5922959D01*
X10349379Y-5997959D01*
X10424379Y-6072959D01*
X10433975Y-9675354D02*
X10508975Y-9600354D01*
X10433975Y-9525354D01*
X10358975Y-9600354D01*
X10433975Y-9675354D01*
X10763907Y-7804219D02*
X10838907Y-7729219D01*
X10763907Y-7654219D01*
X10688907Y-7729219D01*
X10763907Y-7804219D01*
X11093838Y-5933085D02*
X11168838Y-5858085D01*
X11093838Y-5783085D01*
X11018838Y-5858085D01*
X11093838Y-5933085D01*
X11218895Y-12508699D02*
X11293895Y-12433699D01*
X11218895Y-12358699D01*
X11143895Y-12433699D01*
X11218895Y-12508699D01*
X11548826Y-10637564D02*
X11623826Y-10562564D01*
X11548826Y-10487564D01*
X11473826Y-10562564D01*
X11548826Y-10637564D01*
X11878758Y-8766429D02*
X11953758Y-8691429D01*
X11878758Y-8616429D01*
X11803758Y-8691429D01*
X11878758Y-8766429D01*
X11888354Y-12368824D02*
X11963354Y-12293824D01*
X11888354Y-12218824D01*
X11813354Y-12293824D01*
X11888354Y-12368824D01*
X12208690Y-6895295D02*
X12283690Y-6820295D01*
X12208690Y-6745295D01*
X12133690Y-6820295D01*
X12208690Y-6895295D01*
X12218286Y-10497690D02*
X12293286Y-10422690D01*
X12218286Y-10347690D01*
X12143286Y-10422690D01*
X12218286Y-10497690D01*
X12548217Y-8626555D02*
X12623217Y-8551555D01*
X12548217Y-8476555D01*
X12473217Y-8551555D01*
X12548217Y-8626555D01*
X12878149Y-6755420D02*
X12953149Y-6680420D01*
X12878149Y-6605420D01*
X12803149Y-6680420D01*
X12878149Y-6755420D01*
X13017053Y-12521135D02*
X13092053Y-12446135D01*
X13017053Y-12371135D01*
X12942053Y-12446135D01*
X13017053Y-12521135D01*
X13156928Y-13190594D02*
X13231928Y-13115594D01*
X13156928Y-13040594D01*
X13081928Y-13115594D01*
X13156928Y-13190594D01*
X13346985Y-10650000D02*
X13421985Y-10575000D01*
X13346985Y-10500000D01*
X13271985Y-10575000D01*
X13346985Y-10650000D01*
X13486860Y-11319459D02*
X13561860Y-11244459D01*
X13486860Y-11169459D01*
X13411860Y-11244459D01*
X13486860Y-11319459D01*
X16355840Y-10569036D02*
X16430840Y-10494036D01*
X16355840Y-10419036D01*
X16280840Y-10494036D01*
X16355840Y-10569036D01*
X16685771Y-12439561D02*
X16760771Y-12364561D01*
X16685771Y-12289561D01*
X16610771Y-12364561D01*
X16685771Y-12439561D01*
X16716248Y-11150282D02*
X16791248Y-11075282D01*
X16716248Y-11000282D01*
X16641248Y-11075282D01*
X16716248Y-11150282D01*
X17015906Y-7027005D02*
X17090906Y-6952005D01*
X17015906Y-6877005D01*
X16940906Y-6952005D01*
X17015906Y-7027005D01*
X17046179Y-13020807D02*
X17121179Y-12945807D01*
X17046179Y-12870807D01*
X16971179Y-12945807D01*
X17046179Y-13020807D01*
X17345838Y-8898139D02*
X17420838Y-8823139D01*
X17345838Y-8748139D01*
X17270838Y-8823139D01*
X17345838Y-8898139D01*
X17597153Y-6666597D02*
X17672153Y-6591597D01*
X17597153Y-6516597D01*
X17522153Y-6591597D01*
X17597153Y-6666597D01*
X17675770Y-10769274D02*
X17750770Y-10694274D01*
X17675770Y-10619274D01*
X17600770Y-10694274D01*
X17675770Y-10769274D01*
X17927084Y-8537732D02*
X18002084Y-8462732D01*
X17927084Y-8387732D01*
X17852084Y-8462732D01*
X17927084Y-8537732D01*
X18005701Y-12640409D02*
X18080701Y-12565409D01*
X18005701Y-12490409D01*
X17930701Y-12565409D01*
X18005701Y-12640409D01*
X18257016Y-10408866D02*
X18332016Y-10333866D01*
X18257016Y-10258866D01*
X18182016Y-10333866D01*
X18257016Y-10408866D01*
X18586947Y-12280001D02*
X18661947Y-12205001D01*
X18586947Y-12130001D01*
X18511947Y-12205001D01*
X18586947Y-12280001D01*
X18800217Y-6204669D02*
X18875217Y-6129669D01*
X18800217Y-6054669D01*
X18725217Y-6129669D01*
X18800217Y-6204669D01*
X19130149Y-8075804D02*
X19205149Y-8000804D01*
X19130149Y-7925804D01*
X19055149Y-8000804D01*
X19130149Y-8075804D01*
X19381463Y-5844261D02*
X19456463Y-5769261D01*
X19381463Y-5694261D01*
X19306463Y-5769261D01*
X19381463Y-5844261D01*
X19460080Y-9946939D02*
X19535080Y-9871939D01*
X19460080Y-9796939D01*
X19385080Y-9871939D01*
X19460080Y-9946939D01*
X19711395Y-7715396D02*
X19786395Y-7640396D01*
X19711395Y-7565396D01*
X19636395Y-7640396D01*
X19711395Y-7715396D01*
X19790012Y-11818073D02*
X19865012Y-11743073D01*
X19790012Y-11668073D01*
X19715012Y-11743073D01*
X19790012Y-11818073D01*
X20041327Y-9586531D02*
X20116327Y-9511531D01*
X20041327Y-9436531D01*
X19966327Y-9511531D01*
X20041327Y-9586531D01*
X20371258Y-11457666D02*
X20446258Y-11382666D01*
X20371258Y-11307666D01*
X20296258Y-11382666D01*
X20371258Y-11457666D01*
X20567163Y-5283853D02*
X20642163Y-5208853D01*
X20567163Y-5133853D01*
X20492163Y-5208853D01*
X20567163Y-5283853D01*
X20897094Y-7154988D02*
X20972094Y-7079988D01*
X20897094Y-7004988D01*
X20822094Y-7079988D01*
X20897094Y-7154988D01*
X21148409Y-4923445D02*
X21223409Y-4848445D01*
X21148409Y-4773445D01*
X21073409Y-4848445D01*
X21148409Y-4923445D01*
X21227026Y-9026123D02*
X21302026Y-8951123D01*
X21227026Y-8876123D01*
X21152026Y-8951123D01*
X21227026Y-9026123D01*
X21478341Y-6794580D02*
X21553341Y-6719580D01*
X21478341Y-6644580D01*
X21403341Y-6719580D01*
X21478341Y-6794580D01*
X21556958Y-10897257D02*
X21631958Y-10822257D01*
X21556958Y-10747257D01*
X21481958Y-10822257D01*
X21556958Y-10897257D01*
X21808272Y-8665715D02*
X21883272Y-8590715D01*
X21808272Y-8515715D01*
X21733272Y-8590715D01*
X21808272Y-8665715D01*
X22138204Y-10536849D02*
X22213204Y-10461849D01*
X22138204Y-10386849D01*
X22063204Y-10461849D01*
X22138204Y-10536849D01*
X22525122Y-5446325D02*
X22600122Y-5371325D01*
X22525122Y-5296325D01*
X22450122Y-5371325D01*
X22525122Y-5446325D01*
X22855053Y-7317460D02*
X22930053Y-7242460D01*
X22855053Y-7167460D01*
X22780053Y-7242460D01*
X22855053Y-7317460D01*
X23106368Y-5085918D02*
X23181368Y-5010918D01*
X23106368Y-4935918D01*
X23031368Y-5010918D01*
X23106368Y-5085918D01*
X23184985Y-9188595D02*
X23259985Y-9113595D01*
X23184985Y-9038595D01*
X23109985Y-9113595D01*
X23184985Y-9188595D01*
X23436300Y-6957052D02*
X23511300Y-6882052D01*
X23436300Y-6807052D01*
X23361300Y-6882052D01*
X23436300Y-6957052D01*
X23514916Y-11059730D02*
X23589916Y-10984730D01*
X23514916Y-10909730D01*
X23439916Y-10984730D01*
X23514916Y-11059730D01*
X23766231Y-8828187D02*
X23841231Y-8753187D01*
X23766231Y-8678187D01*
X23691231Y-8753187D01*
X23766231Y-8828187D01*
X24096163Y-10699322D02*
X24171163Y-10624322D01*
X24096163Y-10549322D01*
X24021163Y-10624322D01*
X24096163Y-10699322D01*
X24448351Y-5411836D02*
X24523351Y-5336836D01*
X24448351Y-5261836D01*
X24373351Y-5336836D01*
X24448351Y-5411836D01*
X24778282Y-7282971D02*
X24853282Y-7207971D01*
X24778282Y-7132971D01*
X24703282Y-7207971D01*
X24778282Y-7282971D01*
X25029597Y-5051428D02*
X25104597Y-4976428D01*
X25029597Y-4901428D01*
X24954597Y-4976428D01*
X25029597Y-5051428D01*
X25108214Y-9154106D02*
X25183214Y-9079106D01*
X25108214Y-9004106D01*
X25033214Y-9079106D01*
X25108214Y-9154106D01*
X25359529Y-6922563D02*
X25434529Y-6847563D01*
X25359529Y-6772563D01*
X25284529Y-6847563D01*
X25359529Y-6922563D01*
X25438145Y-11025240D02*
X25513145Y-10950240D01*
X25438145Y-10875240D01*
X25363145Y-10950240D01*
X25438145Y-11025240D01*
X25689460Y-8793698D02*
X25764460Y-8718698D01*
X25689460Y-8643698D01*
X25614460Y-8718698D01*
X25689460Y-8793698D01*
X26019392Y-10664833D02*
X26094392Y-10589833D01*
X26019392Y-10514833D01*
X25944392Y-10589833D01*
X26019392Y-10664833D01*
D14*
X5140000Y-11940000D02*
X5360000Y-12160000D01*
X5360000Y-11940000D02*
X5140000Y-12160000D01*
X5360000Y-12050000D02*
G75*
G02*
X5140000Y-12050000I-110000J0D01*
G01*
X5140000Y-12050000D02*
G75*
G02*
X5360000Y-12050000I110000J0D01*
G01*
X7940000Y-4690000D02*
X8160000Y-4910000D01*
X8160000Y-4690000D02*
X7940000Y-4910000D01*
X8160000Y-4800000D02*
G75*
G02*
X7940000Y-4800000I-110000J0D01*
G01*
X7940000Y-4800000D02*
G75*
G02*
X8160000Y-4800000I110000J0D01*
G01*
X14090000Y-7090000D02*
X14310000Y-7310000D01*
X14310000Y-7090000D02*
X14090000Y-7310000D01*
X14310000Y-7200000D02*
G75*
G02*
X14090000Y-7200000I-110000J0D01*
G01*
X14090000Y-7200000D02*
G75*
G02*
X14310000Y-7200000I110000J0D01*
G01*
X14890000Y-10190000D02*
X15110000Y-10410000D01*
X15110000Y-10190000D02*
X14890000Y-10410000D01*
X15110000Y-10300000D02*
G75*
G02*
X14890000Y-10300000I-110000J0D01*
G01*
X14890000Y-10300000D02*
G75*
G02*
X15110000Y-10300000I110000J0D01*
G01*
X14890000Y-12590000D02*
X15110000Y-12810000D01*
X15110000Y-12590000D02*
X14890000Y-12810000D01*
X15110000Y-12700000D02*
G75*
G02*
X14890000Y-12700000I-110000J0D01*
G01*
X14890000Y-12700000D02*
G75*
G02*
X15110000Y-12700000I110000J0D01*
G01*
X16590000Y-8090000D02*
X16810000Y-8310000D01*
X16810000Y-8090000D02*
X16590000Y-8310000D01*
X16810000Y-8200000D02*
G75*
G02*
X16590000Y-8200000I-110000J0D01*
G01*
X16590000Y-8200000D02*
G75*
G02*
X16810000Y-8200000I110000J0D01*
G01*
X21790000Y-4690000D02*
X22010000Y-4910000D01*
X22010000Y-4690000D02*
X21790000Y-4910000D01*
X22010000Y-4800000D02*
G75*
G02*
X21790000Y-4800000I-110000J0D01*
G01*
X21790000Y-4800000D02*
G75*
G02*
X22010000Y-4800000I110000J0D01*
G01*
X24640000Y-11940000D02*
X24860000Y-12160000D01*
X24860000Y-11940000D02*
X24640000Y-12160000D01*
X24860000Y-12050000D02*
G75*
G02*
X24640000Y-12050000I-110000J0D01*
G01*
X24640000Y-12050000D02*
G75*
G02*
X24860000Y-12050000I110000J0D01*
G01*
D11*
X3356335Y-14063984D02*
X3356335Y-13863984D01*
X3356335Y-13863984D02*
X3403954Y-13863984D01*
X3403954Y-13863984D02*
X3432525Y-13873508D01*
X3432525Y-13873508D02*
X3451573Y-13892555D01*
X3451573Y-13892555D02*
X3461097Y-13911603D01*
X3461097Y-13911603D02*
X3470621Y-13949698D01*
X3470621Y-13949698D02*
X3470621Y-13978269D01*
X3470621Y-13978269D02*
X3461097Y-14016365D01*
X3461097Y-14016365D02*
X3451573Y-14035412D01*
X3451573Y-14035412D02*
X3432525Y-14054460D01*
X3432525Y-14054460D02*
X3403954Y-14063984D01*
X3403954Y-14063984D02*
X3356335Y-14063984D01*
X3556335Y-14063984D02*
X3556335Y-13930650D01*
X3556335Y-13968746D02*
X3565859Y-13949698D01*
X3565859Y-13949698D02*
X3575382Y-13940174D01*
X3575382Y-13940174D02*
X3594430Y-13930650D01*
X3594430Y-13930650D02*
X3613478Y-13930650D01*
X3680144Y-14063984D02*
X3680144Y-13930650D01*
X3680144Y-13863984D02*
X3670621Y-13873508D01*
X3670621Y-13873508D02*
X3680144Y-13883031D01*
X3680144Y-13883031D02*
X3689668Y-13873508D01*
X3689668Y-13873508D02*
X3680144Y-13863984D01*
X3680144Y-13863984D02*
X3680144Y-13883031D01*
X3803954Y-14063984D02*
X3784906Y-14054460D01*
X3784906Y-14054460D02*
X3775382Y-14035412D01*
X3775382Y-14035412D02*
X3775382Y-13863984D01*
X3908716Y-14063984D02*
X3889668Y-14054460D01*
X3889668Y-14054460D02*
X3880144Y-14035412D01*
X3880144Y-14035412D02*
X3880144Y-13863984D01*
X4137287Y-14063984D02*
X4137287Y-13863984D01*
X4137287Y-13863984D02*
X4203954Y-14006841D01*
X4203954Y-14006841D02*
X4270621Y-13863984D01*
X4270621Y-13863984D02*
X4270621Y-14063984D01*
X4451573Y-14063984D02*
X4451573Y-13959222D01*
X4451573Y-13959222D02*
X4442049Y-13940174D01*
X4442049Y-13940174D02*
X4423002Y-13930650D01*
X4423002Y-13930650D02*
X4384906Y-13930650D01*
X4384906Y-13930650D02*
X4365859Y-13940174D01*
X4451573Y-14054460D02*
X4432525Y-14063984D01*
X4432525Y-14063984D02*
X4384906Y-14063984D01*
X4384906Y-14063984D02*
X4365859Y-14054460D01*
X4365859Y-14054460D02*
X4356335Y-14035412D01*
X4356335Y-14035412D02*
X4356335Y-14016365D01*
X4356335Y-14016365D02*
X4365859Y-13997317D01*
X4365859Y-13997317D02*
X4384906Y-13987793D01*
X4384906Y-13987793D02*
X4432525Y-13987793D01*
X4432525Y-13987793D02*
X4451573Y-13978269D01*
X4546811Y-13930650D02*
X4546811Y-14130650D01*
X4546811Y-13940174D02*
X4565859Y-13930650D01*
X4565859Y-13930650D02*
X4603954Y-13930650D01*
X4603954Y-13930650D02*
X4623002Y-13940174D01*
X4623002Y-13940174D02*
X4632525Y-13949698D01*
X4632525Y-13949698D02*
X4642049Y-13968746D01*
X4642049Y-13968746D02*
X4642049Y-14025888D01*
X4642049Y-14025888D02*
X4632525Y-14044936D01*
X4632525Y-14044936D02*
X4623002Y-14054460D01*
X4623002Y-14054460D02*
X4603954Y-14063984D01*
X4603954Y-14063984D02*
X4565859Y-14063984D01*
X4565859Y-14063984D02*
X4546811Y-14054460D01*
X4727764Y-14044936D02*
X4737287Y-14054460D01*
X4737287Y-14054460D02*
X4727764Y-14063984D01*
X4727764Y-14063984D02*
X4718240Y-14054460D01*
X4718240Y-14054460D02*
X4727764Y-14044936D01*
X4727764Y-14044936D02*
X4727764Y-14063984D01*
X4727764Y-13940174D02*
X4737287Y-13949698D01*
X4737287Y-13949698D02*
X4727764Y-13959222D01*
X4727764Y-13959222D02*
X4718240Y-13949698D01*
X4718240Y-13949698D02*
X4727764Y-13940174D01*
X4727764Y-13940174D02*
X4727764Y-13959222D01*
D12*
X3065558Y-14377500D02*
X3095558Y-14407500D01*
X3095558Y-14377500D02*
X3065558Y-14407500D01*
D11*
X3394430Y-14283984D02*
X3413478Y-14283984D01*
X3413478Y-14283984D02*
X3432525Y-14293508D01*
X3432525Y-14293508D02*
X3442049Y-14303031D01*
X3442049Y-14303031D02*
X3451573Y-14322079D01*
X3451573Y-14322079D02*
X3461097Y-14360174D01*
X3461097Y-14360174D02*
X3461097Y-14407793D01*
X3461097Y-14407793D02*
X3451573Y-14445888D01*
X3451573Y-14445888D02*
X3442049Y-14464936D01*
X3442049Y-14464936D02*
X3432525Y-14474460D01*
X3432525Y-14474460D02*
X3413478Y-14483984D01*
X3413478Y-14483984D02*
X3394430Y-14483984D01*
X3394430Y-14483984D02*
X3375382Y-14474460D01*
X3375382Y-14474460D02*
X3365859Y-14464936D01*
X3365859Y-14464936D02*
X3356335Y-14445888D01*
X3356335Y-14445888D02*
X3346811Y-14407793D01*
X3346811Y-14407793D02*
X3346811Y-14360174D01*
X3346811Y-14360174D02*
X3356335Y-14322079D01*
X3356335Y-14322079D02*
X3365859Y-14303031D01*
X3365859Y-14303031D02*
X3375382Y-14293508D01*
X3375382Y-14293508D02*
X3394430Y-14283984D01*
X3546811Y-14464936D02*
X3556335Y-14474460D01*
X3556335Y-14474460D02*
X3546811Y-14483984D01*
X3546811Y-14483984D02*
X3537287Y-14474460D01*
X3537287Y-14474460D02*
X3546811Y-14464936D01*
X3546811Y-14464936D02*
X3546811Y-14483984D01*
X3623002Y-14283984D02*
X3746811Y-14283984D01*
X3746811Y-14283984D02*
X3680144Y-14360174D01*
X3680144Y-14360174D02*
X3708716Y-14360174D01*
X3708716Y-14360174D02*
X3727763Y-14369698D01*
X3727763Y-14369698D02*
X3737287Y-14379222D01*
X3737287Y-14379222D02*
X3746811Y-14398269D01*
X3746811Y-14398269D02*
X3746811Y-14445888D01*
X3746811Y-14445888D02*
X3737287Y-14464936D01*
X3737287Y-14464936D02*
X3727763Y-14474460D01*
X3727763Y-14474460D02*
X3708716Y-14483984D01*
X3708716Y-14483984D02*
X3651573Y-14483984D01*
X3651573Y-14483984D02*
X3632525Y-14474460D01*
X3632525Y-14474460D02*
X3623002Y-14464936D01*
X3870621Y-14283984D02*
X3889668Y-14283984D01*
X3889668Y-14283984D02*
X3908716Y-14293508D01*
X3908716Y-14293508D02*
X3918240Y-14303031D01*
X3918240Y-14303031D02*
X3927763Y-14322079D01*
X3927763Y-14322079D02*
X3937287Y-14360174D01*
X3937287Y-14360174D02*
X3937287Y-14407793D01*
X3937287Y-14407793D02*
X3927763Y-14445888D01*
X3927763Y-14445888D02*
X3918240Y-14464936D01*
X3918240Y-14464936D02*
X3908716Y-14474460D01*
X3908716Y-14474460D02*
X3889668Y-14483984D01*
X3889668Y-14483984D02*
X3870621Y-14483984D01*
X3870621Y-14483984D02*
X3851573Y-14474460D01*
X3851573Y-14474460D02*
X3842049Y-14464936D01*
X3842049Y-14464936D02*
X3832525Y-14445888D01*
X3832525Y-14445888D02*
X3823002Y-14407793D01*
X3823002Y-14407793D02*
X3823002Y-14360174D01*
X3823002Y-14360174D02*
X3832525Y-14322079D01*
X3832525Y-14322079D02*
X3842049Y-14303031D01*
X3842049Y-14303031D02*
X3851573Y-14293508D01*
X3851573Y-14293508D02*
X3870621Y-14283984D01*
X4061097Y-14283984D02*
X4080144Y-14283984D01*
X4080144Y-14283984D02*
X4099192Y-14293508D01*
X4099192Y-14293508D02*
X4108716Y-14303031D01*
X4108716Y-14303031D02*
X4118240Y-14322079D01*
X4118240Y-14322079D02*
X4127763Y-14360174D01*
X4127763Y-14360174D02*
X4127763Y-14407793D01*
X4127763Y-14407793D02*
X4118240Y-14445888D01*
X4118240Y-14445888D02*
X4108716Y-14464936D01*
X4108716Y-14464936D02*
X4099192Y-14474460D01*
X4099192Y-14474460D02*
X4080144Y-14483984D01*
X4080144Y-14483984D02*
X4061097Y-14483984D01*
X4061097Y-14483984D02*
X4042049Y-14474460D01*
X4042049Y-14474460D02*
X4032525Y-14464936D01*
X4032525Y-14464936D02*
X4023002Y-14445888D01*
X4023002Y-14445888D02*
X4013478Y-14407793D01*
X4013478Y-14407793D02*
X4013478Y-14360174D01*
X4013478Y-14360174D02*
X4023002Y-14322079D01*
X4023002Y-14322079D02*
X4032525Y-14303031D01*
X4032525Y-14303031D02*
X4042049Y-14293508D01*
X4042049Y-14293508D02*
X4061097Y-14283984D01*
X4213478Y-14483984D02*
X4213478Y-14350650D01*
X4213478Y-14369698D02*
X4223002Y-14360174D01*
X4223002Y-14360174D02*
X4242049Y-14350650D01*
X4242049Y-14350650D02*
X4270621Y-14350650D01*
X4270621Y-14350650D02*
X4289668Y-14360174D01*
X4289668Y-14360174D02*
X4299192Y-14379222D01*
X4299192Y-14379222D02*
X4299192Y-14483984D01*
X4299192Y-14379222D02*
X4308716Y-14360174D01*
X4308716Y-14360174D02*
X4327764Y-14350650D01*
X4327764Y-14350650D02*
X4356335Y-14350650D01*
X4356335Y-14350650D02*
X4375383Y-14360174D01*
X4375383Y-14360174D02*
X4384906Y-14379222D01*
X4384906Y-14379222D02*
X4384906Y-14483984D01*
X4480145Y-14483984D02*
X4480145Y-14350650D01*
X4480145Y-14369698D02*
X4489668Y-14360174D01*
X4489668Y-14360174D02*
X4508716Y-14350650D01*
X4508716Y-14350650D02*
X4537287Y-14350650D01*
X4537287Y-14350650D02*
X4556335Y-14360174D01*
X4556335Y-14360174D02*
X4565859Y-14379222D01*
X4565859Y-14379222D02*
X4565859Y-14483984D01*
X4565859Y-14379222D02*
X4575383Y-14360174D01*
X4575383Y-14360174D02*
X4594430Y-14350650D01*
X4594430Y-14350650D02*
X4623002Y-14350650D01*
X4623002Y-14350650D02*
X4642049Y-14360174D01*
X4642049Y-14360174D02*
X4651573Y-14379222D01*
X4651573Y-14379222D02*
X4651573Y-14483984D01*
X5042049Y-14274460D02*
X4870621Y-14531603D01*
X5299192Y-14283984D02*
X5318240Y-14283984D01*
X5318240Y-14283984D02*
X5337288Y-14293508D01*
X5337288Y-14293508D02*
X5346811Y-14303031D01*
X5346811Y-14303031D02*
X5356335Y-14322079D01*
X5356335Y-14322079D02*
X5365859Y-14360174D01*
X5365859Y-14360174D02*
X5365859Y-14407793D01*
X5365859Y-14407793D02*
X5356335Y-14445888D01*
X5356335Y-14445888D02*
X5346811Y-14464936D01*
X5346811Y-14464936D02*
X5337288Y-14474460D01*
X5337288Y-14474460D02*
X5318240Y-14483984D01*
X5318240Y-14483984D02*
X5299192Y-14483984D01*
X5299192Y-14483984D02*
X5280145Y-14474460D01*
X5280145Y-14474460D02*
X5270621Y-14464936D01*
X5270621Y-14464936D02*
X5261097Y-14445888D01*
X5261097Y-14445888D02*
X5251573Y-14407793D01*
X5251573Y-14407793D02*
X5251573Y-14360174D01*
X5251573Y-14360174D02*
X5261097Y-14322079D01*
X5261097Y-14322079D02*
X5270621Y-14303031D01*
X5270621Y-14303031D02*
X5280145Y-14293508D01*
X5280145Y-14293508D02*
X5299192Y-14283984D01*
X5451573Y-14464936D02*
X5461097Y-14474460D01*
X5461097Y-14474460D02*
X5451573Y-14483984D01*
X5451573Y-14483984D02*
X5442049Y-14474460D01*
X5442049Y-14474460D02*
X5451573Y-14464936D01*
X5451573Y-14464936D02*
X5451573Y-14483984D01*
X5584907Y-14283984D02*
X5603954Y-14283984D01*
X5603954Y-14283984D02*
X5623002Y-14293508D01*
X5623002Y-14293508D02*
X5632526Y-14303031D01*
X5632526Y-14303031D02*
X5642049Y-14322079D01*
X5642049Y-14322079D02*
X5651573Y-14360174D01*
X5651573Y-14360174D02*
X5651573Y-14407793D01*
X5651573Y-14407793D02*
X5642049Y-14445888D01*
X5642049Y-14445888D02*
X5632526Y-14464936D01*
X5632526Y-14464936D02*
X5623002Y-14474460D01*
X5623002Y-14474460D02*
X5603954Y-14483984D01*
X5603954Y-14483984D02*
X5584907Y-14483984D01*
X5584907Y-14483984D02*
X5565859Y-14474460D01*
X5565859Y-14474460D02*
X5556335Y-14464936D01*
X5556335Y-14464936D02*
X5546811Y-14445888D01*
X5546811Y-14445888D02*
X5537288Y-14407793D01*
X5537288Y-14407793D02*
X5537288Y-14360174D01*
X5537288Y-14360174D02*
X5546811Y-14322079D01*
X5546811Y-14322079D02*
X5556335Y-14303031D01*
X5556335Y-14303031D02*
X5565859Y-14293508D01*
X5565859Y-14293508D02*
X5584907Y-14283984D01*
X5842049Y-14483984D02*
X5727764Y-14483984D01*
X5784906Y-14483984D02*
X5784906Y-14283984D01*
X5784906Y-14283984D02*
X5765859Y-14312555D01*
X5765859Y-14312555D02*
X5746811Y-14331603D01*
X5746811Y-14331603D02*
X5727764Y-14341127D01*
X6032526Y-14483984D02*
X5918240Y-14483984D01*
X5975383Y-14483984D02*
X5975383Y-14283984D01*
X5975383Y-14283984D02*
X5956335Y-14312555D01*
X5956335Y-14312555D02*
X5937287Y-14331603D01*
X5937287Y-14331603D02*
X5918240Y-14341127D01*
X6146811Y-14369698D02*
X6127764Y-14360174D01*
X6127764Y-14360174D02*
X6118240Y-14350650D01*
X6118240Y-14350650D02*
X6108716Y-14331603D01*
X6108716Y-14331603D02*
X6108716Y-14322079D01*
X6108716Y-14322079D02*
X6118240Y-14303031D01*
X6118240Y-14303031D02*
X6127764Y-14293508D01*
X6127764Y-14293508D02*
X6146811Y-14283984D01*
X6146811Y-14283984D02*
X6184907Y-14283984D01*
X6184907Y-14283984D02*
X6203954Y-14293508D01*
X6203954Y-14293508D02*
X6213478Y-14303031D01*
X6213478Y-14303031D02*
X6223002Y-14322079D01*
X6223002Y-14322079D02*
X6223002Y-14331603D01*
X6223002Y-14331603D02*
X6213478Y-14350650D01*
X6213478Y-14350650D02*
X6203954Y-14360174D01*
X6203954Y-14360174D02*
X6184907Y-14369698D01*
X6184907Y-14369698D02*
X6146811Y-14369698D01*
X6146811Y-14369698D02*
X6127764Y-14379222D01*
X6127764Y-14379222D02*
X6118240Y-14388746D01*
X6118240Y-14388746D02*
X6108716Y-14407793D01*
X6108716Y-14407793D02*
X6108716Y-14445888D01*
X6108716Y-14445888D02*
X6118240Y-14464936D01*
X6118240Y-14464936D02*
X6127764Y-14474460D01*
X6127764Y-14474460D02*
X6146811Y-14483984D01*
X6146811Y-14483984D02*
X6184907Y-14483984D01*
X6184907Y-14483984D02*
X6203954Y-14474460D01*
X6203954Y-14474460D02*
X6213478Y-14464936D01*
X6213478Y-14464936D02*
X6223002Y-14445888D01*
X6223002Y-14445888D02*
X6223002Y-14407793D01*
X6223002Y-14407793D02*
X6213478Y-14388746D01*
X6213478Y-14388746D02*
X6203954Y-14379222D01*
X6203954Y-14379222D02*
X6184907Y-14369698D01*
X6299192Y-14283984D02*
X6299192Y-14322079D01*
X6375383Y-14283984D02*
X6375383Y-14322079D01*
X6670621Y-14560174D02*
X6661097Y-14550650D01*
X6661097Y-14550650D02*
X6642049Y-14522079D01*
X6642049Y-14522079D02*
X6632526Y-14503031D01*
X6632526Y-14503031D02*
X6623002Y-14474460D01*
X6623002Y-14474460D02*
X6613478Y-14426841D01*
X6613478Y-14426841D02*
X6613478Y-14388746D01*
X6613478Y-14388746D02*
X6623002Y-14341127D01*
X6623002Y-14341127D02*
X6632526Y-14312555D01*
X6632526Y-14312555D02*
X6642049Y-14293508D01*
X6642049Y-14293508D02*
X6661097Y-14264936D01*
X6661097Y-14264936D02*
X6670621Y-14255412D01*
X6851573Y-14483984D02*
X6737288Y-14483984D01*
X6794430Y-14483984D02*
X6794430Y-14283984D01*
X6794430Y-14283984D02*
X6775383Y-14312555D01*
X6775383Y-14312555D02*
X6756335Y-14331603D01*
X6756335Y-14331603D02*
X6737288Y-14341127D01*
X6927764Y-14303031D02*
X6937288Y-14293508D01*
X6937288Y-14293508D02*
X6956335Y-14283984D01*
X6956335Y-14283984D02*
X7003954Y-14283984D01*
X7003954Y-14283984D02*
X7023002Y-14293508D01*
X7023002Y-14293508D02*
X7032526Y-14303031D01*
X7032526Y-14303031D02*
X7042049Y-14322079D01*
X7042049Y-14322079D02*
X7042049Y-14341127D01*
X7042049Y-14341127D02*
X7032526Y-14369698D01*
X7032526Y-14369698D02*
X6918240Y-14483984D01*
X6918240Y-14483984D02*
X7042049Y-14483984D01*
X7165859Y-14283984D02*
X7184907Y-14283984D01*
X7184907Y-14283984D02*
X7203954Y-14293508D01*
X7203954Y-14293508D02*
X7213478Y-14303031D01*
X7213478Y-14303031D02*
X7223002Y-14322079D01*
X7223002Y-14322079D02*
X7232526Y-14360174D01*
X7232526Y-14360174D02*
X7232526Y-14407793D01*
X7232526Y-14407793D02*
X7223002Y-14445888D01*
X7223002Y-14445888D02*
X7213478Y-14464936D01*
X7213478Y-14464936D02*
X7203954Y-14474460D01*
X7203954Y-14474460D02*
X7184907Y-14483984D01*
X7184907Y-14483984D02*
X7165859Y-14483984D01*
X7165859Y-14483984D02*
X7146811Y-14474460D01*
X7146811Y-14474460D02*
X7137288Y-14464936D01*
X7137288Y-14464936D02*
X7127764Y-14445888D01*
X7127764Y-14445888D02*
X7118240Y-14407793D01*
X7118240Y-14407793D02*
X7118240Y-14360174D01*
X7118240Y-14360174D02*
X7127764Y-14322079D01*
X7127764Y-14322079D02*
X7137288Y-14303031D01*
X7137288Y-14303031D02*
X7146811Y-14293508D01*
X7146811Y-14293508D02*
X7165859Y-14283984D01*
X7470621Y-14483984D02*
X7470621Y-14283984D01*
X7556335Y-14483984D02*
X7556335Y-14379222D01*
X7556335Y-14379222D02*
X7546811Y-14360174D01*
X7546811Y-14360174D02*
X7527764Y-14350650D01*
X7527764Y-14350650D02*
X7499192Y-14350650D01*
X7499192Y-14350650D02*
X7480145Y-14360174D01*
X7480145Y-14360174D02*
X7470621Y-14369698D01*
X7680145Y-14483984D02*
X7661097Y-14474460D01*
X7661097Y-14474460D02*
X7651573Y-14464936D01*
X7651573Y-14464936D02*
X7642050Y-14445888D01*
X7642050Y-14445888D02*
X7642050Y-14388746D01*
X7642050Y-14388746D02*
X7651573Y-14369698D01*
X7651573Y-14369698D02*
X7661097Y-14360174D01*
X7661097Y-14360174D02*
X7680145Y-14350650D01*
X7680145Y-14350650D02*
X7708716Y-14350650D01*
X7708716Y-14350650D02*
X7727764Y-14360174D01*
X7727764Y-14360174D02*
X7737288Y-14369698D01*
X7737288Y-14369698D02*
X7746811Y-14388746D01*
X7746811Y-14388746D02*
X7746811Y-14445888D01*
X7746811Y-14445888D02*
X7737288Y-14464936D01*
X7737288Y-14464936D02*
X7727764Y-14474460D01*
X7727764Y-14474460D02*
X7708716Y-14483984D01*
X7708716Y-14483984D02*
X7680145Y-14483984D01*
X7861097Y-14483984D02*
X7842050Y-14474460D01*
X7842050Y-14474460D02*
X7832526Y-14455412D01*
X7832526Y-14455412D02*
X7832526Y-14283984D01*
X8013478Y-14474460D02*
X7994431Y-14483984D01*
X7994431Y-14483984D02*
X7956335Y-14483984D01*
X7956335Y-14483984D02*
X7937288Y-14474460D01*
X7937288Y-14474460D02*
X7927764Y-14455412D01*
X7927764Y-14455412D02*
X7927764Y-14379222D01*
X7927764Y-14379222D02*
X7937288Y-14360174D01*
X7937288Y-14360174D02*
X7956335Y-14350650D01*
X7956335Y-14350650D02*
X7994431Y-14350650D01*
X7994431Y-14350650D02*
X8013478Y-14360174D01*
X8013478Y-14360174D02*
X8023002Y-14379222D01*
X8023002Y-14379222D02*
X8023002Y-14398269D01*
X8023002Y-14398269D02*
X7927764Y-14417317D01*
X8099192Y-14474460D02*
X8118240Y-14483984D01*
X8118240Y-14483984D02*
X8156335Y-14483984D01*
X8156335Y-14483984D02*
X8175383Y-14474460D01*
X8175383Y-14474460D02*
X8184907Y-14455412D01*
X8184907Y-14455412D02*
X8184907Y-14445888D01*
X8184907Y-14445888D02*
X8175383Y-14426841D01*
X8175383Y-14426841D02*
X8156335Y-14417317D01*
X8156335Y-14417317D02*
X8127764Y-14417317D01*
X8127764Y-14417317D02*
X8108716Y-14407793D01*
X8108716Y-14407793D02*
X8099192Y-14388746D01*
X8099192Y-14388746D02*
X8099192Y-14379222D01*
X8099192Y-14379222D02*
X8108716Y-14360174D01*
X8108716Y-14360174D02*
X8127764Y-14350650D01*
X8127764Y-14350650D02*
X8156335Y-14350650D01*
X8156335Y-14350650D02*
X8175383Y-14360174D01*
X8251573Y-14560174D02*
X8261097Y-14550650D01*
X8261097Y-14550650D02*
X8280145Y-14522079D01*
X8280145Y-14522079D02*
X8289669Y-14503031D01*
X8289669Y-14503031D02*
X8299192Y-14474460D01*
X8299192Y-14474460D02*
X8308716Y-14426841D01*
X8308716Y-14426841D02*
X8308716Y-14388746D01*
X8308716Y-14388746D02*
X8299192Y-14341127D01*
X8299192Y-14341127D02*
X8289669Y-14312555D01*
X8289669Y-14312555D02*
X8280145Y-14293508D01*
X8280145Y-14293508D02*
X8261097Y-14264936D01*
X8261097Y-14264936D02*
X8251573Y-14255412D01*
D12*
X3095558Y-14656500D02*
G75*
G02*
X3025558Y-14656500I-35000J0D01*
G01*
X3025558Y-14656500D02*
G75*
G02*
X3095558Y-14656500I35000J0D01*
G01*
D11*
X3394430Y-14547984D02*
X3413478Y-14547984D01*
X3413478Y-14547984D02*
X3432525Y-14557508D01*
X3432525Y-14557508D02*
X3442049Y-14567031D01*
X3442049Y-14567031D02*
X3451573Y-14586079D01*
X3451573Y-14586079D02*
X3461097Y-14624174D01*
X3461097Y-14624174D02*
X3461097Y-14671793D01*
X3461097Y-14671793D02*
X3451573Y-14709888D01*
X3451573Y-14709888D02*
X3442049Y-14728936D01*
X3442049Y-14728936D02*
X3432525Y-14738460D01*
X3432525Y-14738460D02*
X3413478Y-14747984D01*
X3413478Y-14747984D02*
X3394430Y-14747984D01*
X3394430Y-14747984D02*
X3375382Y-14738460D01*
X3375382Y-14738460D02*
X3365859Y-14728936D01*
X3365859Y-14728936D02*
X3356335Y-14709888D01*
X3356335Y-14709888D02*
X3346811Y-14671793D01*
X3346811Y-14671793D02*
X3346811Y-14624174D01*
X3346811Y-14624174D02*
X3356335Y-14586079D01*
X3356335Y-14586079D02*
X3365859Y-14567031D01*
X3365859Y-14567031D02*
X3375382Y-14557508D01*
X3375382Y-14557508D02*
X3394430Y-14547984D01*
X3546811Y-14728936D02*
X3556335Y-14738460D01*
X3556335Y-14738460D02*
X3546811Y-14747984D01*
X3546811Y-14747984D02*
X3537287Y-14738460D01*
X3537287Y-14738460D02*
X3546811Y-14728936D01*
X3546811Y-14728936D02*
X3546811Y-14747984D01*
X3623002Y-14547984D02*
X3756335Y-14547984D01*
X3756335Y-14547984D02*
X3670621Y-14747984D01*
X3870621Y-14547984D02*
X3889668Y-14547984D01*
X3889668Y-14547984D02*
X3908716Y-14557508D01*
X3908716Y-14557508D02*
X3918240Y-14567031D01*
X3918240Y-14567031D02*
X3927763Y-14586079D01*
X3927763Y-14586079D02*
X3937287Y-14624174D01*
X3937287Y-14624174D02*
X3937287Y-14671793D01*
X3937287Y-14671793D02*
X3927763Y-14709888D01*
X3927763Y-14709888D02*
X3918240Y-14728936D01*
X3918240Y-14728936D02*
X3908716Y-14738460D01*
X3908716Y-14738460D02*
X3889668Y-14747984D01*
X3889668Y-14747984D02*
X3870621Y-14747984D01*
X3870621Y-14747984D02*
X3851573Y-14738460D01*
X3851573Y-14738460D02*
X3842049Y-14728936D01*
X3842049Y-14728936D02*
X3832525Y-14709888D01*
X3832525Y-14709888D02*
X3823002Y-14671793D01*
X3823002Y-14671793D02*
X3823002Y-14624174D01*
X3823002Y-14624174D02*
X3832525Y-14586079D01*
X3832525Y-14586079D02*
X3842049Y-14567031D01*
X3842049Y-14567031D02*
X3851573Y-14557508D01*
X3851573Y-14557508D02*
X3870621Y-14547984D01*
X4061097Y-14547984D02*
X4080144Y-14547984D01*
X4080144Y-14547984D02*
X4099192Y-14557508D01*
X4099192Y-14557508D02*
X4108716Y-14567031D01*
X4108716Y-14567031D02*
X4118240Y-14586079D01*
X4118240Y-14586079D02*
X4127763Y-14624174D01*
X4127763Y-14624174D02*
X4127763Y-14671793D01*
X4127763Y-14671793D02*
X4118240Y-14709888D01*
X4118240Y-14709888D02*
X4108716Y-14728936D01*
X4108716Y-14728936D02*
X4099192Y-14738460D01*
X4099192Y-14738460D02*
X4080144Y-14747984D01*
X4080144Y-14747984D02*
X4061097Y-14747984D01*
X4061097Y-14747984D02*
X4042049Y-14738460D01*
X4042049Y-14738460D02*
X4032525Y-14728936D01*
X4032525Y-14728936D02*
X4023002Y-14709888D01*
X4023002Y-14709888D02*
X4013478Y-14671793D01*
X4013478Y-14671793D02*
X4013478Y-14624174D01*
X4013478Y-14624174D02*
X4023002Y-14586079D01*
X4023002Y-14586079D02*
X4032525Y-14567031D01*
X4032525Y-14567031D02*
X4042049Y-14557508D01*
X4042049Y-14557508D02*
X4061097Y-14547984D01*
X4213478Y-14747984D02*
X4213478Y-14614650D01*
X4213478Y-14633698D02*
X4223002Y-14624174D01*
X4223002Y-14624174D02*
X4242049Y-14614650D01*
X4242049Y-14614650D02*
X4270621Y-14614650D01*
X4270621Y-14614650D02*
X4289668Y-14624174D01*
X4289668Y-14624174D02*
X4299192Y-14643222D01*
X4299192Y-14643222D02*
X4299192Y-14747984D01*
X4299192Y-14643222D02*
X4308716Y-14624174D01*
X4308716Y-14624174D02*
X4327764Y-14614650D01*
X4327764Y-14614650D02*
X4356335Y-14614650D01*
X4356335Y-14614650D02*
X4375383Y-14624174D01*
X4375383Y-14624174D02*
X4384906Y-14643222D01*
X4384906Y-14643222D02*
X4384906Y-14747984D01*
X4480145Y-14747984D02*
X4480145Y-14614650D01*
X4480145Y-14633698D02*
X4489668Y-14624174D01*
X4489668Y-14624174D02*
X4508716Y-14614650D01*
X4508716Y-14614650D02*
X4537287Y-14614650D01*
X4537287Y-14614650D02*
X4556335Y-14624174D01*
X4556335Y-14624174D02*
X4565859Y-14643222D01*
X4565859Y-14643222D02*
X4565859Y-14747984D01*
X4565859Y-14643222D02*
X4575383Y-14624174D01*
X4575383Y-14624174D02*
X4594430Y-14614650D01*
X4594430Y-14614650D02*
X4623002Y-14614650D01*
X4623002Y-14614650D02*
X4642049Y-14624174D01*
X4642049Y-14624174D02*
X4651573Y-14643222D01*
X4651573Y-14643222D02*
X4651573Y-14747984D01*
X5042049Y-14538460D02*
X4870621Y-14795603D01*
X5299192Y-14547984D02*
X5318240Y-14547984D01*
X5318240Y-14547984D02*
X5337288Y-14557508D01*
X5337288Y-14557508D02*
X5346811Y-14567031D01*
X5346811Y-14567031D02*
X5356335Y-14586079D01*
X5356335Y-14586079D02*
X5365859Y-14624174D01*
X5365859Y-14624174D02*
X5365859Y-14671793D01*
X5365859Y-14671793D02*
X5356335Y-14709888D01*
X5356335Y-14709888D02*
X5346811Y-14728936D01*
X5346811Y-14728936D02*
X5337288Y-14738460D01*
X5337288Y-14738460D02*
X5318240Y-14747984D01*
X5318240Y-14747984D02*
X5299192Y-14747984D01*
X5299192Y-14747984D02*
X5280145Y-14738460D01*
X5280145Y-14738460D02*
X5270621Y-14728936D01*
X5270621Y-14728936D02*
X5261097Y-14709888D01*
X5261097Y-14709888D02*
X5251573Y-14671793D01*
X5251573Y-14671793D02*
X5251573Y-14624174D01*
X5251573Y-14624174D02*
X5261097Y-14586079D01*
X5261097Y-14586079D02*
X5270621Y-14567031D01*
X5270621Y-14567031D02*
X5280145Y-14557508D01*
X5280145Y-14557508D02*
X5299192Y-14547984D01*
X5451573Y-14728936D02*
X5461097Y-14738460D01*
X5461097Y-14738460D02*
X5451573Y-14747984D01*
X5451573Y-14747984D02*
X5442049Y-14738460D01*
X5442049Y-14738460D02*
X5451573Y-14728936D01*
X5451573Y-14728936D02*
X5451573Y-14747984D01*
X5584907Y-14547984D02*
X5603954Y-14547984D01*
X5603954Y-14547984D02*
X5623002Y-14557508D01*
X5623002Y-14557508D02*
X5632526Y-14567031D01*
X5632526Y-14567031D02*
X5642049Y-14586079D01*
X5642049Y-14586079D02*
X5651573Y-14624174D01*
X5651573Y-14624174D02*
X5651573Y-14671793D01*
X5651573Y-14671793D02*
X5642049Y-14709888D01*
X5642049Y-14709888D02*
X5632526Y-14728936D01*
X5632526Y-14728936D02*
X5623002Y-14738460D01*
X5623002Y-14738460D02*
X5603954Y-14747984D01*
X5603954Y-14747984D02*
X5584907Y-14747984D01*
X5584907Y-14747984D02*
X5565859Y-14738460D01*
X5565859Y-14738460D02*
X5556335Y-14728936D01*
X5556335Y-14728936D02*
X5546811Y-14709888D01*
X5546811Y-14709888D02*
X5537288Y-14671793D01*
X5537288Y-14671793D02*
X5537288Y-14624174D01*
X5537288Y-14624174D02*
X5546811Y-14586079D01*
X5546811Y-14586079D02*
X5556335Y-14567031D01*
X5556335Y-14567031D02*
X5565859Y-14557508D01*
X5565859Y-14557508D02*
X5584907Y-14547984D01*
X5727764Y-14567031D02*
X5737287Y-14557508D01*
X5737287Y-14557508D02*
X5756335Y-14547984D01*
X5756335Y-14547984D02*
X5803954Y-14547984D01*
X5803954Y-14547984D02*
X5823002Y-14557508D01*
X5823002Y-14557508D02*
X5832526Y-14567031D01*
X5832526Y-14567031D02*
X5842049Y-14586079D01*
X5842049Y-14586079D02*
X5842049Y-14605127D01*
X5842049Y-14605127D02*
X5832526Y-14633698D01*
X5832526Y-14633698D02*
X5718240Y-14747984D01*
X5718240Y-14747984D02*
X5842049Y-14747984D01*
X5908716Y-14547984D02*
X6042049Y-14547984D01*
X6042049Y-14547984D02*
X5956335Y-14747984D01*
X6203954Y-14547984D02*
X6165859Y-14547984D01*
X6165859Y-14547984D02*
X6146811Y-14557508D01*
X6146811Y-14557508D02*
X6137287Y-14567031D01*
X6137287Y-14567031D02*
X6118240Y-14595603D01*
X6118240Y-14595603D02*
X6108716Y-14633698D01*
X6108716Y-14633698D02*
X6108716Y-14709888D01*
X6108716Y-14709888D02*
X6118240Y-14728936D01*
X6118240Y-14728936D02*
X6127764Y-14738460D01*
X6127764Y-14738460D02*
X6146811Y-14747984D01*
X6146811Y-14747984D02*
X6184907Y-14747984D01*
X6184907Y-14747984D02*
X6203954Y-14738460D01*
X6203954Y-14738460D02*
X6213478Y-14728936D01*
X6213478Y-14728936D02*
X6223002Y-14709888D01*
X6223002Y-14709888D02*
X6223002Y-14662269D01*
X6223002Y-14662269D02*
X6213478Y-14643222D01*
X6213478Y-14643222D02*
X6203954Y-14633698D01*
X6203954Y-14633698D02*
X6184907Y-14624174D01*
X6184907Y-14624174D02*
X6146811Y-14624174D01*
X6146811Y-14624174D02*
X6127764Y-14633698D01*
X6127764Y-14633698D02*
X6118240Y-14643222D01*
X6118240Y-14643222D02*
X6108716Y-14662269D01*
X6299192Y-14547984D02*
X6299192Y-14586079D01*
X6375383Y-14547984D02*
X6375383Y-14586079D01*
X6670621Y-14824174D02*
X6661097Y-14814650D01*
X6661097Y-14814650D02*
X6642049Y-14786079D01*
X6642049Y-14786079D02*
X6632526Y-14767031D01*
X6632526Y-14767031D02*
X6623002Y-14738460D01*
X6623002Y-14738460D02*
X6613478Y-14690841D01*
X6613478Y-14690841D02*
X6613478Y-14652746D01*
X6613478Y-14652746D02*
X6623002Y-14605127D01*
X6623002Y-14605127D02*
X6632526Y-14576555D01*
X6632526Y-14576555D02*
X6642049Y-14557508D01*
X6642049Y-14557508D02*
X6661097Y-14528936D01*
X6661097Y-14528936D02*
X6670621Y-14519412D01*
X6851573Y-14747984D02*
X6737288Y-14747984D01*
X6794430Y-14747984D02*
X6794430Y-14547984D01*
X6794430Y-14547984D02*
X6775383Y-14576555D01*
X6775383Y-14576555D02*
X6756335Y-14595603D01*
X6756335Y-14595603D02*
X6737288Y-14605127D01*
X6975383Y-14547984D02*
X6994430Y-14547984D01*
X6994430Y-14547984D02*
X7013478Y-14557508D01*
X7013478Y-14557508D02*
X7023002Y-14567031D01*
X7023002Y-14567031D02*
X7032526Y-14586079D01*
X7032526Y-14586079D02*
X7042049Y-14624174D01*
X7042049Y-14624174D02*
X7042049Y-14671793D01*
X7042049Y-14671793D02*
X7032526Y-14709888D01*
X7032526Y-14709888D02*
X7023002Y-14728936D01*
X7023002Y-14728936D02*
X7013478Y-14738460D01*
X7013478Y-14738460D02*
X6994430Y-14747984D01*
X6994430Y-14747984D02*
X6975383Y-14747984D01*
X6975383Y-14747984D02*
X6956335Y-14738460D01*
X6956335Y-14738460D02*
X6946811Y-14728936D01*
X6946811Y-14728936D02*
X6937288Y-14709888D01*
X6937288Y-14709888D02*
X6927764Y-14671793D01*
X6927764Y-14671793D02*
X6927764Y-14624174D01*
X6927764Y-14624174D02*
X6937288Y-14586079D01*
X6937288Y-14586079D02*
X6946811Y-14567031D01*
X6946811Y-14567031D02*
X6956335Y-14557508D01*
X6956335Y-14557508D02*
X6975383Y-14547984D01*
X7280145Y-14747984D02*
X7280145Y-14547984D01*
X7365859Y-14747984D02*
X7365859Y-14643222D01*
X7365859Y-14643222D02*
X7356335Y-14624174D01*
X7356335Y-14624174D02*
X7337288Y-14614650D01*
X7337288Y-14614650D02*
X7308716Y-14614650D01*
X7308716Y-14614650D02*
X7289669Y-14624174D01*
X7289669Y-14624174D02*
X7280145Y-14633698D01*
X7489669Y-14747984D02*
X7470621Y-14738460D01*
X7470621Y-14738460D02*
X7461097Y-14728936D01*
X7461097Y-14728936D02*
X7451573Y-14709888D01*
X7451573Y-14709888D02*
X7451573Y-14652746D01*
X7451573Y-14652746D02*
X7461097Y-14633698D01*
X7461097Y-14633698D02*
X7470621Y-14624174D01*
X7470621Y-14624174D02*
X7489669Y-14614650D01*
X7489669Y-14614650D02*
X7518240Y-14614650D01*
X7518240Y-14614650D02*
X7537288Y-14624174D01*
X7537288Y-14624174D02*
X7546811Y-14633698D01*
X7546811Y-14633698D02*
X7556335Y-14652746D01*
X7556335Y-14652746D02*
X7556335Y-14709888D01*
X7556335Y-14709888D02*
X7546811Y-14728936D01*
X7546811Y-14728936D02*
X7537288Y-14738460D01*
X7537288Y-14738460D02*
X7518240Y-14747984D01*
X7518240Y-14747984D02*
X7489669Y-14747984D01*
X7670621Y-14747984D02*
X7651573Y-14738460D01*
X7651573Y-14738460D02*
X7642050Y-14719412D01*
X7642050Y-14719412D02*
X7642050Y-14547984D01*
X7823002Y-14738460D02*
X7803954Y-14747984D01*
X7803954Y-14747984D02*
X7765859Y-14747984D01*
X7765859Y-14747984D02*
X7746811Y-14738460D01*
X7746811Y-14738460D02*
X7737288Y-14719412D01*
X7737288Y-14719412D02*
X7737288Y-14643222D01*
X7737288Y-14643222D02*
X7746811Y-14624174D01*
X7746811Y-14624174D02*
X7765859Y-14614650D01*
X7765859Y-14614650D02*
X7803954Y-14614650D01*
X7803954Y-14614650D02*
X7823002Y-14624174D01*
X7823002Y-14624174D02*
X7832526Y-14643222D01*
X7832526Y-14643222D02*
X7832526Y-14662269D01*
X7832526Y-14662269D02*
X7737288Y-14681317D01*
X7908716Y-14738460D02*
X7927764Y-14747984D01*
X7927764Y-14747984D02*
X7965859Y-14747984D01*
X7965859Y-14747984D02*
X7984907Y-14738460D01*
X7984907Y-14738460D02*
X7994431Y-14719412D01*
X7994431Y-14719412D02*
X7994431Y-14709888D01*
X7994431Y-14709888D02*
X7984907Y-14690841D01*
X7984907Y-14690841D02*
X7965859Y-14681317D01*
X7965859Y-14681317D02*
X7937288Y-14681317D01*
X7937288Y-14681317D02*
X7918240Y-14671793D01*
X7918240Y-14671793D02*
X7908716Y-14652746D01*
X7908716Y-14652746D02*
X7908716Y-14643222D01*
X7908716Y-14643222D02*
X7918240Y-14624174D01*
X7918240Y-14624174D02*
X7937288Y-14614650D01*
X7937288Y-14614650D02*
X7965859Y-14614650D01*
X7965859Y-14614650D02*
X7984907Y-14624174D01*
X8061097Y-14824174D02*
X8070621Y-14814650D01*
X8070621Y-14814650D02*
X8089669Y-14786079D01*
X8089669Y-14786079D02*
X8099192Y-14767031D01*
X8099192Y-14767031D02*
X8108716Y-14738460D01*
X8108716Y-14738460D02*
X8118240Y-14690841D01*
X8118240Y-14690841D02*
X8118240Y-14652746D01*
X8118240Y-14652746D02*
X8108716Y-14605127D01*
X8108716Y-14605127D02*
X8099192Y-14576555D01*
X8099192Y-14576555D02*
X8089669Y-14557508D01*
X8089669Y-14557508D02*
X8070621Y-14528936D01*
X8070621Y-14528936D02*
X8061097Y-14519412D01*
D12*
X3058058Y-14883000D02*
X3058058Y-14958000D01*
X3020558Y-14920500D02*
X3095558Y-14920500D01*
D11*
X3394430Y-14811984D02*
X3413478Y-14811984D01*
X3413478Y-14811984D02*
X3432525Y-14821508D01*
X3432525Y-14821508D02*
X3442049Y-14831031D01*
X3442049Y-14831031D02*
X3451573Y-14850079D01*
X3451573Y-14850079D02*
X3461097Y-14888174D01*
X3461097Y-14888174D02*
X3461097Y-14935793D01*
X3461097Y-14935793D02*
X3451573Y-14973888D01*
X3451573Y-14973888D02*
X3442049Y-14992936D01*
X3442049Y-14992936D02*
X3432525Y-15002460D01*
X3432525Y-15002460D02*
X3413478Y-15011984D01*
X3413478Y-15011984D02*
X3394430Y-15011984D01*
X3394430Y-15011984D02*
X3375382Y-15002460D01*
X3375382Y-15002460D02*
X3365859Y-14992936D01*
X3365859Y-14992936D02*
X3356335Y-14973888D01*
X3356335Y-14973888D02*
X3346811Y-14935793D01*
X3346811Y-14935793D02*
X3346811Y-14888174D01*
X3346811Y-14888174D02*
X3356335Y-14850079D01*
X3356335Y-14850079D02*
X3365859Y-14831031D01*
X3365859Y-14831031D02*
X3375382Y-14821508D01*
X3375382Y-14821508D02*
X3394430Y-14811984D01*
X3546811Y-14992936D02*
X3556335Y-15002460D01*
X3556335Y-15002460D02*
X3546811Y-15011984D01*
X3546811Y-15011984D02*
X3537287Y-15002460D01*
X3537287Y-15002460D02*
X3546811Y-14992936D01*
X3546811Y-14992936D02*
X3546811Y-15011984D01*
X3623002Y-14811984D02*
X3756335Y-14811984D01*
X3756335Y-14811984D02*
X3670621Y-15011984D01*
X3927763Y-14811984D02*
X3832525Y-14811984D01*
X3832525Y-14811984D02*
X3823002Y-14907222D01*
X3823002Y-14907222D02*
X3832525Y-14897698D01*
X3832525Y-14897698D02*
X3851573Y-14888174D01*
X3851573Y-14888174D02*
X3899192Y-14888174D01*
X3899192Y-14888174D02*
X3918240Y-14897698D01*
X3918240Y-14897698D02*
X3927763Y-14907222D01*
X3927763Y-14907222D02*
X3937287Y-14926269D01*
X3937287Y-14926269D02*
X3937287Y-14973888D01*
X3937287Y-14973888D02*
X3927763Y-14992936D01*
X3927763Y-14992936D02*
X3918240Y-15002460D01*
X3918240Y-15002460D02*
X3899192Y-15011984D01*
X3899192Y-15011984D02*
X3851573Y-15011984D01*
X3851573Y-15011984D02*
X3832525Y-15002460D01*
X3832525Y-15002460D02*
X3823002Y-14992936D01*
X4061097Y-14811984D02*
X4080144Y-14811984D01*
X4080144Y-14811984D02*
X4099192Y-14821508D01*
X4099192Y-14821508D02*
X4108716Y-14831031D01*
X4108716Y-14831031D02*
X4118240Y-14850079D01*
X4118240Y-14850079D02*
X4127763Y-14888174D01*
X4127763Y-14888174D02*
X4127763Y-14935793D01*
X4127763Y-14935793D02*
X4118240Y-14973888D01*
X4118240Y-14973888D02*
X4108716Y-14992936D01*
X4108716Y-14992936D02*
X4099192Y-15002460D01*
X4099192Y-15002460D02*
X4080144Y-15011984D01*
X4080144Y-15011984D02*
X4061097Y-15011984D01*
X4061097Y-15011984D02*
X4042049Y-15002460D01*
X4042049Y-15002460D02*
X4032525Y-14992936D01*
X4032525Y-14992936D02*
X4023002Y-14973888D01*
X4023002Y-14973888D02*
X4013478Y-14935793D01*
X4013478Y-14935793D02*
X4013478Y-14888174D01*
X4013478Y-14888174D02*
X4023002Y-14850079D01*
X4023002Y-14850079D02*
X4032525Y-14831031D01*
X4032525Y-14831031D02*
X4042049Y-14821508D01*
X4042049Y-14821508D02*
X4061097Y-14811984D01*
X4213478Y-15011984D02*
X4213478Y-14878650D01*
X4213478Y-14897698D02*
X4223002Y-14888174D01*
X4223002Y-14888174D02*
X4242049Y-14878650D01*
X4242049Y-14878650D02*
X4270621Y-14878650D01*
X4270621Y-14878650D02*
X4289668Y-14888174D01*
X4289668Y-14888174D02*
X4299192Y-14907222D01*
X4299192Y-14907222D02*
X4299192Y-15011984D01*
X4299192Y-14907222D02*
X4308716Y-14888174D01*
X4308716Y-14888174D02*
X4327764Y-14878650D01*
X4327764Y-14878650D02*
X4356335Y-14878650D01*
X4356335Y-14878650D02*
X4375383Y-14888174D01*
X4375383Y-14888174D02*
X4384906Y-14907222D01*
X4384906Y-14907222D02*
X4384906Y-15011984D01*
X4480145Y-15011984D02*
X4480145Y-14878650D01*
X4480145Y-14897698D02*
X4489668Y-14888174D01*
X4489668Y-14888174D02*
X4508716Y-14878650D01*
X4508716Y-14878650D02*
X4537287Y-14878650D01*
X4537287Y-14878650D02*
X4556335Y-14888174D01*
X4556335Y-14888174D02*
X4565859Y-14907222D01*
X4565859Y-14907222D02*
X4565859Y-15011984D01*
X4565859Y-14907222D02*
X4575383Y-14888174D01*
X4575383Y-14888174D02*
X4594430Y-14878650D01*
X4594430Y-14878650D02*
X4623002Y-14878650D01*
X4623002Y-14878650D02*
X4642049Y-14888174D01*
X4642049Y-14888174D02*
X4651573Y-14907222D01*
X4651573Y-14907222D02*
X4651573Y-15011984D01*
X5042049Y-14802460D02*
X4870621Y-15059603D01*
X5299192Y-14811984D02*
X5318240Y-14811984D01*
X5318240Y-14811984D02*
X5337288Y-14821508D01*
X5337288Y-14821508D02*
X5346811Y-14831031D01*
X5346811Y-14831031D02*
X5356335Y-14850079D01*
X5356335Y-14850079D02*
X5365859Y-14888174D01*
X5365859Y-14888174D02*
X5365859Y-14935793D01*
X5365859Y-14935793D02*
X5356335Y-14973888D01*
X5356335Y-14973888D02*
X5346811Y-14992936D01*
X5346811Y-14992936D02*
X5337288Y-15002460D01*
X5337288Y-15002460D02*
X5318240Y-15011984D01*
X5318240Y-15011984D02*
X5299192Y-15011984D01*
X5299192Y-15011984D02*
X5280145Y-15002460D01*
X5280145Y-15002460D02*
X5270621Y-14992936D01*
X5270621Y-14992936D02*
X5261097Y-14973888D01*
X5261097Y-14973888D02*
X5251573Y-14935793D01*
X5251573Y-14935793D02*
X5251573Y-14888174D01*
X5251573Y-14888174D02*
X5261097Y-14850079D01*
X5261097Y-14850079D02*
X5270621Y-14831031D01*
X5270621Y-14831031D02*
X5280145Y-14821508D01*
X5280145Y-14821508D02*
X5299192Y-14811984D01*
X5451573Y-14992936D02*
X5461097Y-15002460D01*
X5461097Y-15002460D02*
X5451573Y-15011984D01*
X5451573Y-15011984D02*
X5442049Y-15002460D01*
X5442049Y-15002460D02*
X5451573Y-14992936D01*
X5451573Y-14992936D02*
X5451573Y-15011984D01*
X5584907Y-14811984D02*
X5603954Y-14811984D01*
X5603954Y-14811984D02*
X5623002Y-14821508D01*
X5623002Y-14821508D02*
X5632526Y-14831031D01*
X5632526Y-14831031D02*
X5642049Y-14850079D01*
X5642049Y-14850079D02*
X5651573Y-14888174D01*
X5651573Y-14888174D02*
X5651573Y-14935793D01*
X5651573Y-14935793D02*
X5642049Y-14973888D01*
X5642049Y-14973888D02*
X5632526Y-14992936D01*
X5632526Y-14992936D02*
X5623002Y-15002460D01*
X5623002Y-15002460D02*
X5603954Y-15011984D01*
X5603954Y-15011984D02*
X5584907Y-15011984D01*
X5584907Y-15011984D02*
X5565859Y-15002460D01*
X5565859Y-15002460D02*
X5556335Y-14992936D01*
X5556335Y-14992936D02*
X5546811Y-14973888D01*
X5546811Y-14973888D02*
X5537288Y-14935793D01*
X5537288Y-14935793D02*
X5537288Y-14888174D01*
X5537288Y-14888174D02*
X5546811Y-14850079D01*
X5546811Y-14850079D02*
X5556335Y-14831031D01*
X5556335Y-14831031D02*
X5565859Y-14821508D01*
X5565859Y-14821508D02*
X5584907Y-14811984D01*
X5727764Y-14831031D02*
X5737287Y-14821508D01*
X5737287Y-14821508D02*
X5756335Y-14811984D01*
X5756335Y-14811984D02*
X5803954Y-14811984D01*
X5803954Y-14811984D02*
X5823002Y-14821508D01*
X5823002Y-14821508D02*
X5832526Y-14831031D01*
X5832526Y-14831031D02*
X5842049Y-14850079D01*
X5842049Y-14850079D02*
X5842049Y-14869127D01*
X5842049Y-14869127D02*
X5832526Y-14897698D01*
X5832526Y-14897698D02*
X5718240Y-15011984D01*
X5718240Y-15011984D02*
X5842049Y-15011984D01*
X5937287Y-15011984D02*
X5975383Y-15011984D01*
X5975383Y-15011984D02*
X5994430Y-15002460D01*
X5994430Y-15002460D02*
X6003954Y-14992936D01*
X6003954Y-14992936D02*
X6023002Y-14964365D01*
X6023002Y-14964365D02*
X6032526Y-14926269D01*
X6032526Y-14926269D02*
X6032526Y-14850079D01*
X6032526Y-14850079D02*
X6023002Y-14831031D01*
X6023002Y-14831031D02*
X6013478Y-14821508D01*
X6013478Y-14821508D02*
X5994430Y-14811984D01*
X5994430Y-14811984D02*
X5956335Y-14811984D01*
X5956335Y-14811984D02*
X5937287Y-14821508D01*
X5937287Y-14821508D02*
X5927764Y-14831031D01*
X5927764Y-14831031D02*
X5918240Y-14850079D01*
X5918240Y-14850079D02*
X5918240Y-14897698D01*
X5918240Y-14897698D02*
X5927764Y-14916746D01*
X5927764Y-14916746D02*
X5937287Y-14926269D01*
X5937287Y-14926269D02*
X5956335Y-14935793D01*
X5956335Y-14935793D02*
X5994430Y-14935793D01*
X5994430Y-14935793D02*
X6013478Y-14926269D01*
X6013478Y-14926269D02*
X6023002Y-14916746D01*
X6023002Y-14916746D02*
X6032526Y-14897698D01*
X6213478Y-14811984D02*
X6118240Y-14811984D01*
X6118240Y-14811984D02*
X6108716Y-14907222D01*
X6108716Y-14907222D02*
X6118240Y-14897698D01*
X6118240Y-14897698D02*
X6137287Y-14888174D01*
X6137287Y-14888174D02*
X6184907Y-14888174D01*
X6184907Y-14888174D02*
X6203954Y-14897698D01*
X6203954Y-14897698D02*
X6213478Y-14907222D01*
X6213478Y-14907222D02*
X6223002Y-14926269D01*
X6223002Y-14926269D02*
X6223002Y-14973888D01*
X6223002Y-14973888D02*
X6213478Y-14992936D01*
X6213478Y-14992936D02*
X6203954Y-15002460D01*
X6203954Y-15002460D02*
X6184907Y-15011984D01*
X6184907Y-15011984D02*
X6137287Y-15011984D01*
X6137287Y-15011984D02*
X6118240Y-15002460D01*
X6118240Y-15002460D02*
X6108716Y-14992936D01*
X6299192Y-14811984D02*
X6299192Y-14850079D01*
X6375383Y-14811984D02*
X6375383Y-14850079D01*
X6670621Y-15088174D02*
X6661097Y-15078650D01*
X6661097Y-15078650D02*
X6642049Y-15050079D01*
X6642049Y-15050079D02*
X6632526Y-15031031D01*
X6632526Y-15031031D02*
X6623002Y-15002460D01*
X6623002Y-15002460D02*
X6613478Y-14954841D01*
X6613478Y-14954841D02*
X6613478Y-14916746D01*
X6613478Y-14916746D02*
X6623002Y-14869127D01*
X6623002Y-14869127D02*
X6632526Y-14840555D01*
X6632526Y-14840555D02*
X6642049Y-14821508D01*
X6642049Y-14821508D02*
X6661097Y-14792936D01*
X6661097Y-14792936D02*
X6670621Y-14783412D01*
X6832526Y-14878650D02*
X6832526Y-15011984D01*
X6784907Y-14802460D02*
X6737288Y-14945317D01*
X6737288Y-14945317D02*
X6861097Y-14945317D01*
X7089669Y-15011984D02*
X7089669Y-14811984D01*
X7175383Y-15011984D02*
X7175383Y-14907222D01*
X7175383Y-14907222D02*
X7165859Y-14888174D01*
X7165859Y-14888174D02*
X7146811Y-14878650D01*
X7146811Y-14878650D02*
X7118240Y-14878650D01*
X7118240Y-14878650D02*
X7099192Y-14888174D01*
X7099192Y-14888174D02*
X7089669Y-14897698D01*
X7299192Y-15011984D02*
X7280145Y-15002460D01*
X7280145Y-15002460D02*
X7270621Y-14992936D01*
X7270621Y-14992936D02*
X7261097Y-14973888D01*
X7261097Y-14973888D02*
X7261097Y-14916746D01*
X7261097Y-14916746D02*
X7270621Y-14897698D01*
X7270621Y-14897698D02*
X7280145Y-14888174D01*
X7280145Y-14888174D02*
X7299192Y-14878650D01*
X7299192Y-14878650D02*
X7327764Y-14878650D01*
X7327764Y-14878650D02*
X7346811Y-14888174D01*
X7346811Y-14888174D02*
X7356335Y-14897698D01*
X7356335Y-14897698D02*
X7365859Y-14916746D01*
X7365859Y-14916746D02*
X7365859Y-14973888D01*
X7365859Y-14973888D02*
X7356335Y-14992936D01*
X7356335Y-14992936D02*
X7346811Y-15002460D01*
X7346811Y-15002460D02*
X7327764Y-15011984D01*
X7327764Y-15011984D02*
X7299192Y-15011984D01*
X7480145Y-15011984D02*
X7461097Y-15002460D01*
X7461097Y-15002460D02*
X7451573Y-14983412D01*
X7451573Y-14983412D02*
X7451573Y-14811984D01*
X7632526Y-15002460D02*
X7613478Y-15011984D01*
X7613478Y-15011984D02*
X7575383Y-15011984D01*
X7575383Y-15011984D02*
X7556335Y-15002460D01*
X7556335Y-15002460D02*
X7546811Y-14983412D01*
X7546811Y-14983412D02*
X7546811Y-14907222D01*
X7546811Y-14907222D02*
X7556335Y-14888174D01*
X7556335Y-14888174D02*
X7575383Y-14878650D01*
X7575383Y-14878650D02*
X7613478Y-14878650D01*
X7613478Y-14878650D02*
X7632526Y-14888174D01*
X7632526Y-14888174D02*
X7642050Y-14907222D01*
X7642050Y-14907222D02*
X7642050Y-14926269D01*
X7642050Y-14926269D02*
X7546811Y-14945317D01*
X7718240Y-15002460D02*
X7737288Y-15011984D01*
X7737288Y-15011984D02*
X7775383Y-15011984D01*
X7775383Y-15011984D02*
X7794431Y-15002460D01*
X7794431Y-15002460D02*
X7803954Y-14983412D01*
X7803954Y-14983412D02*
X7803954Y-14973888D01*
X7803954Y-14973888D02*
X7794431Y-14954841D01*
X7794431Y-14954841D02*
X7775383Y-14945317D01*
X7775383Y-14945317D02*
X7746811Y-14945317D01*
X7746811Y-14945317D02*
X7727764Y-14935793D01*
X7727764Y-14935793D02*
X7718240Y-14916746D01*
X7718240Y-14916746D02*
X7718240Y-14907222D01*
X7718240Y-14907222D02*
X7727764Y-14888174D01*
X7727764Y-14888174D02*
X7746811Y-14878650D01*
X7746811Y-14878650D02*
X7775383Y-14878650D01*
X7775383Y-14878650D02*
X7794431Y-14888174D01*
X7870621Y-15088174D02*
X7880145Y-15078650D01*
X7880145Y-15078650D02*
X7899192Y-15050079D01*
X7899192Y-15050079D02*
X7908716Y-15031031D01*
X7908716Y-15031031D02*
X7918240Y-15002460D01*
X7918240Y-15002460D02*
X7927764Y-14954841D01*
X7927764Y-14954841D02*
X7927764Y-14916746D01*
X7927764Y-14916746D02*
X7918240Y-14869127D01*
X7918240Y-14869127D02*
X7908716Y-14840555D01*
X7908716Y-14840555D02*
X7899192Y-14821508D01*
X7899192Y-14821508D02*
X7880145Y-14792936D01*
X7880145Y-14792936D02*
X7870621Y-14783412D01*
D12*
X3080914Y-15219856D02*
X3080914Y-15149144D01*
X3010202Y-15149144D01*
X3010202Y-15219856D01*
X3080914Y-15219856D01*
D11*
X3461097Y-15275984D02*
X3346811Y-15275984D01*
X3403954Y-15275984D02*
X3403954Y-15075984D01*
X3403954Y-15075984D02*
X3384906Y-15104555D01*
X3384906Y-15104555D02*
X3365859Y-15123603D01*
X3365859Y-15123603D02*
X3346811Y-15133127D01*
X3546811Y-15256936D02*
X3556335Y-15266460D01*
X3556335Y-15266460D02*
X3546811Y-15275984D01*
X3546811Y-15275984D02*
X3537287Y-15266460D01*
X3537287Y-15266460D02*
X3546811Y-15256936D01*
X3546811Y-15256936D02*
X3546811Y-15275984D01*
X3680144Y-15075984D02*
X3699192Y-15075984D01*
X3699192Y-15075984D02*
X3718240Y-15085508D01*
X3718240Y-15085508D02*
X3727763Y-15095031D01*
X3727763Y-15095031D02*
X3737287Y-15114079D01*
X3737287Y-15114079D02*
X3746811Y-15152174D01*
X3746811Y-15152174D02*
X3746811Y-15199793D01*
X3746811Y-15199793D02*
X3737287Y-15237888D01*
X3737287Y-15237888D02*
X3727763Y-15256936D01*
X3727763Y-15256936D02*
X3718240Y-15266460D01*
X3718240Y-15266460D02*
X3699192Y-15275984D01*
X3699192Y-15275984D02*
X3680144Y-15275984D01*
X3680144Y-15275984D02*
X3661097Y-15266460D01*
X3661097Y-15266460D02*
X3651573Y-15256936D01*
X3651573Y-15256936D02*
X3642049Y-15237888D01*
X3642049Y-15237888D02*
X3632525Y-15199793D01*
X3632525Y-15199793D02*
X3632525Y-15152174D01*
X3632525Y-15152174D02*
X3642049Y-15114079D01*
X3642049Y-15114079D02*
X3651573Y-15095031D01*
X3651573Y-15095031D02*
X3661097Y-15085508D01*
X3661097Y-15085508D02*
X3680144Y-15075984D01*
X3870621Y-15075984D02*
X3889668Y-15075984D01*
X3889668Y-15075984D02*
X3908716Y-15085508D01*
X3908716Y-15085508D02*
X3918240Y-15095031D01*
X3918240Y-15095031D02*
X3927763Y-15114079D01*
X3927763Y-15114079D02*
X3937287Y-15152174D01*
X3937287Y-15152174D02*
X3937287Y-15199793D01*
X3937287Y-15199793D02*
X3927763Y-15237888D01*
X3927763Y-15237888D02*
X3918240Y-15256936D01*
X3918240Y-15256936D02*
X3908716Y-15266460D01*
X3908716Y-15266460D02*
X3889668Y-15275984D01*
X3889668Y-15275984D02*
X3870621Y-15275984D01*
X3870621Y-15275984D02*
X3851573Y-15266460D01*
X3851573Y-15266460D02*
X3842049Y-15256936D01*
X3842049Y-15256936D02*
X3832525Y-15237888D01*
X3832525Y-15237888D02*
X3823002Y-15199793D01*
X3823002Y-15199793D02*
X3823002Y-15152174D01*
X3823002Y-15152174D02*
X3832525Y-15114079D01*
X3832525Y-15114079D02*
X3842049Y-15095031D01*
X3842049Y-15095031D02*
X3851573Y-15085508D01*
X3851573Y-15085508D02*
X3870621Y-15075984D01*
X4061097Y-15075984D02*
X4080144Y-15075984D01*
X4080144Y-15075984D02*
X4099192Y-15085508D01*
X4099192Y-15085508D02*
X4108716Y-15095031D01*
X4108716Y-15095031D02*
X4118240Y-15114079D01*
X4118240Y-15114079D02*
X4127763Y-15152174D01*
X4127763Y-15152174D02*
X4127763Y-15199793D01*
X4127763Y-15199793D02*
X4118240Y-15237888D01*
X4118240Y-15237888D02*
X4108716Y-15256936D01*
X4108716Y-15256936D02*
X4099192Y-15266460D01*
X4099192Y-15266460D02*
X4080144Y-15275984D01*
X4080144Y-15275984D02*
X4061097Y-15275984D01*
X4061097Y-15275984D02*
X4042049Y-15266460D01*
X4042049Y-15266460D02*
X4032525Y-15256936D01*
X4032525Y-15256936D02*
X4023002Y-15237888D01*
X4023002Y-15237888D02*
X4013478Y-15199793D01*
X4013478Y-15199793D02*
X4013478Y-15152174D01*
X4013478Y-15152174D02*
X4023002Y-15114079D01*
X4023002Y-15114079D02*
X4032525Y-15095031D01*
X4032525Y-15095031D02*
X4042049Y-15085508D01*
X4042049Y-15085508D02*
X4061097Y-15075984D01*
X4213478Y-15275984D02*
X4213478Y-15142650D01*
X4213478Y-15161698D02*
X4223002Y-15152174D01*
X4223002Y-15152174D02*
X4242049Y-15142650D01*
X4242049Y-15142650D02*
X4270621Y-15142650D01*
X4270621Y-15142650D02*
X4289668Y-15152174D01*
X4289668Y-15152174D02*
X4299192Y-15171222D01*
X4299192Y-15171222D02*
X4299192Y-15275984D01*
X4299192Y-15171222D02*
X4308716Y-15152174D01*
X4308716Y-15152174D02*
X4327764Y-15142650D01*
X4327764Y-15142650D02*
X4356335Y-15142650D01*
X4356335Y-15142650D02*
X4375383Y-15152174D01*
X4375383Y-15152174D02*
X4384906Y-15171222D01*
X4384906Y-15171222D02*
X4384906Y-15275984D01*
X4480145Y-15275984D02*
X4480145Y-15142650D01*
X4480145Y-15161698D02*
X4489668Y-15152174D01*
X4489668Y-15152174D02*
X4508716Y-15142650D01*
X4508716Y-15142650D02*
X4537287Y-15142650D01*
X4537287Y-15142650D02*
X4556335Y-15152174D01*
X4556335Y-15152174D02*
X4565859Y-15171222D01*
X4565859Y-15171222D02*
X4565859Y-15275984D01*
X4565859Y-15171222D02*
X4575383Y-15152174D01*
X4575383Y-15152174D02*
X4594430Y-15142650D01*
X4594430Y-15142650D02*
X4623002Y-15142650D01*
X4623002Y-15142650D02*
X4642049Y-15152174D01*
X4642049Y-15152174D02*
X4651573Y-15171222D01*
X4651573Y-15171222D02*
X4651573Y-15275984D01*
X5042049Y-15066460D02*
X4870621Y-15323603D01*
X5299192Y-15075984D02*
X5318240Y-15075984D01*
X5318240Y-15075984D02*
X5337288Y-15085508D01*
X5337288Y-15085508D02*
X5346811Y-15095031D01*
X5346811Y-15095031D02*
X5356335Y-15114079D01*
X5356335Y-15114079D02*
X5365859Y-15152174D01*
X5365859Y-15152174D02*
X5365859Y-15199793D01*
X5365859Y-15199793D02*
X5356335Y-15237888D01*
X5356335Y-15237888D02*
X5346811Y-15256936D01*
X5346811Y-15256936D02*
X5337288Y-15266460D01*
X5337288Y-15266460D02*
X5318240Y-15275984D01*
X5318240Y-15275984D02*
X5299192Y-15275984D01*
X5299192Y-15275984D02*
X5280145Y-15266460D01*
X5280145Y-15266460D02*
X5270621Y-15256936D01*
X5270621Y-15256936D02*
X5261097Y-15237888D01*
X5261097Y-15237888D02*
X5251573Y-15199793D01*
X5251573Y-15199793D02*
X5251573Y-15152174D01*
X5251573Y-15152174D02*
X5261097Y-15114079D01*
X5261097Y-15114079D02*
X5270621Y-15095031D01*
X5270621Y-15095031D02*
X5280145Y-15085508D01*
X5280145Y-15085508D02*
X5299192Y-15075984D01*
X5451573Y-15256936D02*
X5461097Y-15266460D01*
X5461097Y-15266460D02*
X5451573Y-15275984D01*
X5451573Y-15275984D02*
X5442049Y-15266460D01*
X5442049Y-15266460D02*
X5451573Y-15256936D01*
X5451573Y-15256936D02*
X5451573Y-15275984D01*
X5584907Y-15075984D02*
X5603954Y-15075984D01*
X5603954Y-15075984D02*
X5623002Y-15085508D01*
X5623002Y-15085508D02*
X5632526Y-15095031D01*
X5632526Y-15095031D02*
X5642049Y-15114079D01*
X5642049Y-15114079D02*
X5651573Y-15152174D01*
X5651573Y-15152174D02*
X5651573Y-15199793D01*
X5651573Y-15199793D02*
X5642049Y-15237888D01*
X5642049Y-15237888D02*
X5632526Y-15256936D01*
X5632526Y-15256936D02*
X5623002Y-15266460D01*
X5623002Y-15266460D02*
X5603954Y-15275984D01*
X5603954Y-15275984D02*
X5584907Y-15275984D01*
X5584907Y-15275984D02*
X5565859Y-15266460D01*
X5565859Y-15266460D02*
X5556335Y-15256936D01*
X5556335Y-15256936D02*
X5546811Y-15237888D01*
X5546811Y-15237888D02*
X5537288Y-15199793D01*
X5537288Y-15199793D02*
X5537288Y-15152174D01*
X5537288Y-15152174D02*
X5546811Y-15114079D01*
X5546811Y-15114079D02*
X5556335Y-15095031D01*
X5556335Y-15095031D02*
X5565859Y-15085508D01*
X5565859Y-15085508D02*
X5584907Y-15075984D01*
X5718240Y-15075984D02*
X5842049Y-15075984D01*
X5842049Y-15075984D02*
X5775383Y-15152174D01*
X5775383Y-15152174D02*
X5803954Y-15152174D01*
X5803954Y-15152174D02*
X5823002Y-15161698D01*
X5823002Y-15161698D02*
X5832526Y-15171222D01*
X5832526Y-15171222D02*
X5842049Y-15190269D01*
X5842049Y-15190269D02*
X5842049Y-15237888D01*
X5842049Y-15237888D02*
X5832526Y-15256936D01*
X5832526Y-15256936D02*
X5823002Y-15266460D01*
X5823002Y-15266460D02*
X5803954Y-15275984D01*
X5803954Y-15275984D02*
X5746811Y-15275984D01*
X5746811Y-15275984D02*
X5727764Y-15266460D01*
X5727764Y-15266460D02*
X5718240Y-15256936D01*
X5937287Y-15275984D02*
X5975383Y-15275984D01*
X5975383Y-15275984D02*
X5994430Y-15266460D01*
X5994430Y-15266460D02*
X6003954Y-15256936D01*
X6003954Y-15256936D02*
X6023002Y-15228365D01*
X6023002Y-15228365D02*
X6032526Y-15190269D01*
X6032526Y-15190269D02*
X6032526Y-15114079D01*
X6032526Y-15114079D02*
X6023002Y-15095031D01*
X6023002Y-15095031D02*
X6013478Y-15085508D01*
X6013478Y-15085508D02*
X5994430Y-15075984D01*
X5994430Y-15075984D02*
X5956335Y-15075984D01*
X5956335Y-15075984D02*
X5937287Y-15085508D01*
X5937287Y-15085508D02*
X5927764Y-15095031D01*
X5927764Y-15095031D02*
X5918240Y-15114079D01*
X5918240Y-15114079D02*
X5918240Y-15161698D01*
X5918240Y-15161698D02*
X5927764Y-15180746D01*
X5927764Y-15180746D02*
X5937287Y-15190269D01*
X5937287Y-15190269D02*
X5956335Y-15199793D01*
X5956335Y-15199793D02*
X5994430Y-15199793D01*
X5994430Y-15199793D02*
X6013478Y-15190269D01*
X6013478Y-15190269D02*
X6023002Y-15180746D01*
X6023002Y-15180746D02*
X6032526Y-15161698D01*
X6203954Y-15142650D02*
X6203954Y-15275984D01*
X6156335Y-15066460D02*
X6108716Y-15209317D01*
X6108716Y-15209317D02*
X6232526Y-15209317D01*
X6299192Y-15075984D02*
X6299192Y-15114079D01*
X6375383Y-15075984D02*
X6375383Y-15114079D01*
X6670621Y-15352174D02*
X6661097Y-15342650D01*
X6661097Y-15342650D02*
X6642049Y-15314079D01*
X6642049Y-15314079D02*
X6632526Y-15295031D01*
X6632526Y-15295031D02*
X6623002Y-15266460D01*
X6623002Y-15266460D02*
X6613478Y-15218841D01*
X6613478Y-15218841D02*
X6613478Y-15180746D01*
X6613478Y-15180746D02*
X6623002Y-15133127D01*
X6623002Y-15133127D02*
X6632526Y-15104555D01*
X6632526Y-15104555D02*
X6642049Y-15085508D01*
X6642049Y-15085508D02*
X6661097Y-15056936D01*
X6661097Y-15056936D02*
X6670621Y-15047412D01*
X6832526Y-15075984D02*
X6794430Y-15075984D01*
X6794430Y-15075984D02*
X6775383Y-15085508D01*
X6775383Y-15085508D02*
X6765859Y-15095031D01*
X6765859Y-15095031D02*
X6746811Y-15123603D01*
X6746811Y-15123603D02*
X6737288Y-15161698D01*
X6737288Y-15161698D02*
X6737288Y-15237888D01*
X6737288Y-15237888D02*
X6746811Y-15256936D01*
X6746811Y-15256936D02*
X6756335Y-15266460D01*
X6756335Y-15266460D02*
X6775383Y-15275984D01*
X6775383Y-15275984D02*
X6813478Y-15275984D01*
X6813478Y-15275984D02*
X6832526Y-15266460D01*
X6832526Y-15266460D02*
X6842049Y-15256936D01*
X6842049Y-15256936D02*
X6851573Y-15237888D01*
X6851573Y-15237888D02*
X6851573Y-15190269D01*
X6851573Y-15190269D02*
X6842049Y-15171222D01*
X6842049Y-15171222D02*
X6832526Y-15161698D01*
X6832526Y-15161698D02*
X6813478Y-15152174D01*
X6813478Y-15152174D02*
X6775383Y-15152174D01*
X6775383Y-15152174D02*
X6756335Y-15161698D01*
X6756335Y-15161698D02*
X6746811Y-15171222D01*
X6746811Y-15171222D02*
X6737288Y-15190269D01*
X7089669Y-15275984D02*
X7089669Y-15075984D01*
X7175383Y-15275984D02*
X7175383Y-15171222D01*
X7175383Y-15171222D02*
X7165859Y-15152174D01*
X7165859Y-15152174D02*
X7146811Y-15142650D01*
X7146811Y-15142650D02*
X7118240Y-15142650D01*
X7118240Y-15142650D02*
X7099192Y-15152174D01*
X7099192Y-15152174D02*
X7089669Y-15161698D01*
X7299192Y-15275984D02*
X7280145Y-15266460D01*
X7280145Y-15266460D02*
X7270621Y-15256936D01*
X7270621Y-15256936D02*
X7261097Y-15237888D01*
X7261097Y-15237888D02*
X7261097Y-15180746D01*
X7261097Y-15180746D02*
X7270621Y-15161698D01*
X7270621Y-15161698D02*
X7280145Y-15152174D01*
X7280145Y-15152174D02*
X7299192Y-15142650D01*
X7299192Y-15142650D02*
X7327764Y-15142650D01*
X7327764Y-15142650D02*
X7346811Y-15152174D01*
X7346811Y-15152174D02*
X7356335Y-15161698D01*
X7356335Y-15161698D02*
X7365859Y-15180746D01*
X7365859Y-15180746D02*
X7365859Y-15237888D01*
X7365859Y-15237888D02*
X7356335Y-15256936D01*
X7356335Y-15256936D02*
X7346811Y-15266460D01*
X7346811Y-15266460D02*
X7327764Y-15275984D01*
X7327764Y-15275984D02*
X7299192Y-15275984D01*
X7480145Y-15275984D02*
X7461097Y-15266460D01*
X7461097Y-15266460D02*
X7451573Y-15247412D01*
X7451573Y-15247412D02*
X7451573Y-15075984D01*
X7632526Y-15266460D02*
X7613478Y-15275984D01*
X7613478Y-15275984D02*
X7575383Y-15275984D01*
X7575383Y-15275984D02*
X7556335Y-15266460D01*
X7556335Y-15266460D02*
X7546811Y-15247412D01*
X7546811Y-15247412D02*
X7546811Y-15171222D01*
X7546811Y-15171222D02*
X7556335Y-15152174D01*
X7556335Y-15152174D02*
X7575383Y-15142650D01*
X7575383Y-15142650D02*
X7613478Y-15142650D01*
X7613478Y-15142650D02*
X7632526Y-15152174D01*
X7632526Y-15152174D02*
X7642050Y-15171222D01*
X7642050Y-15171222D02*
X7642050Y-15190269D01*
X7642050Y-15190269D02*
X7546811Y-15209317D01*
X7718240Y-15266460D02*
X7737288Y-15275984D01*
X7737288Y-15275984D02*
X7775383Y-15275984D01*
X7775383Y-15275984D02*
X7794431Y-15266460D01*
X7794431Y-15266460D02*
X7803954Y-15247412D01*
X7803954Y-15247412D02*
X7803954Y-15237888D01*
X7803954Y-15237888D02*
X7794431Y-15218841D01*
X7794431Y-15218841D02*
X7775383Y-15209317D01*
X7775383Y-15209317D02*
X7746811Y-15209317D01*
X7746811Y-15209317D02*
X7727764Y-15199793D01*
X7727764Y-15199793D02*
X7718240Y-15180746D01*
X7718240Y-15180746D02*
X7718240Y-15171222D01*
X7718240Y-15171222D02*
X7727764Y-15152174D01*
X7727764Y-15152174D02*
X7746811Y-15142650D01*
X7746811Y-15142650D02*
X7775383Y-15142650D01*
X7775383Y-15142650D02*
X7794431Y-15152174D01*
X7870621Y-15352174D02*
X7880145Y-15342650D01*
X7880145Y-15342650D02*
X7899192Y-15314079D01*
X7899192Y-15314079D02*
X7908716Y-15295031D01*
X7908716Y-15295031D02*
X7918240Y-15266460D01*
X7918240Y-15266460D02*
X7927764Y-15218841D01*
X7927764Y-15218841D02*
X7927764Y-15180746D01*
X7927764Y-15180746D02*
X7918240Y-15133127D01*
X7918240Y-15133127D02*
X7908716Y-15104555D01*
X7908716Y-15104555D02*
X7899192Y-15085508D01*
X7899192Y-15085508D02*
X7880145Y-15056936D01*
X7880145Y-15056936D02*
X7870621Y-15047412D01*
D13*
X3020558Y-15523500D02*
X3095558Y-15448500D01*
X3020558Y-15373500D01*
X2945558Y-15448500D01*
X3020558Y-15523500D01*
D11*
X3461097Y-15539984D02*
X3346811Y-15539984D01*
X3403954Y-15539984D02*
X3403954Y-15339984D01*
X3403954Y-15339984D02*
X3384906Y-15368555D01*
X3384906Y-15368555D02*
X3365859Y-15387603D01*
X3365859Y-15387603D02*
X3346811Y-15397127D01*
X3546811Y-15520936D02*
X3556335Y-15530460D01*
X3556335Y-15530460D02*
X3546811Y-15539984D01*
X3546811Y-15539984D02*
X3537287Y-15530460D01*
X3537287Y-15530460D02*
X3546811Y-15520936D01*
X3546811Y-15520936D02*
X3546811Y-15539984D01*
X3737287Y-15339984D02*
X3642049Y-15339984D01*
X3642049Y-15339984D02*
X3632525Y-15435222D01*
X3632525Y-15435222D02*
X3642049Y-15425698D01*
X3642049Y-15425698D02*
X3661097Y-15416174D01*
X3661097Y-15416174D02*
X3708716Y-15416174D01*
X3708716Y-15416174D02*
X3727763Y-15425698D01*
X3727763Y-15425698D02*
X3737287Y-15435222D01*
X3737287Y-15435222D02*
X3746811Y-15454269D01*
X3746811Y-15454269D02*
X3746811Y-15501888D01*
X3746811Y-15501888D02*
X3737287Y-15520936D01*
X3737287Y-15520936D02*
X3727763Y-15530460D01*
X3727763Y-15530460D02*
X3708716Y-15539984D01*
X3708716Y-15539984D02*
X3661097Y-15539984D01*
X3661097Y-15539984D02*
X3642049Y-15530460D01*
X3642049Y-15530460D02*
X3632525Y-15520936D01*
X3870621Y-15339984D02*
X3889668Y-15339984D01*
X3889668Y-15339984D02*
X3908716Y-15349508D01*
X3908716Y-15349508D02*
X3918240Y-15359031D01*
X3918240Y-15359031D02*
X3927763Y-15378079D01*
X3927763Y-15378079D02*
X3937287Y-15416174D01*
X3937287Y-15416174D02*
X3937287Y-15463793D01*
X3937287Y-15463793D02*
X3927763Y-15501888D01*
X3927763Y-15501888D02*
X3918240Y-15520936D01*
X3918240Y-15520936D02*
X3908716Y-15530460D01*
X3908716Y-15530460D02*
X3889668Y-15539984D01*
X3889668Y-15539984D02*
X3870621Y-15539984D01*
X3870621Y-15539984D02*
X3851573Y-15530460D01*
X3851573Y-15530460D02*
X3842049Y-15520936D01*
X3842049Y-15520936D02*
X3832525Y-15501888D01*
X3832525Y-15501888D02*
X3823002Y-15463793D01*
X3823002Y-15463793D02*
X3823002Y-15416174D01*
X3823002Y-15416174D02*
X3832525Y-15378079D01*
X3832525Y-15378079D02*
X3842049Y-15359031D01*
X3842049Y-15359031D02*
X3851573Y-15349508D01*
X3851573Y-15349508D02*
X3870621Y-15339984D01*
X4061097Y-15339984D02*
X4080144Y-15339984D01*
X4080144Y-15339984D02*
X4099192Y-15349508D01*
X4099192Y-15349508D02*
X4108716Y-15359031D01*
X4108716Y-15359031D02*
X4118240Y-15378079D01*
X4118240Y-15378079D02*
X4127763Y-15416174D01*
X4127763Y-15416174D02*
X4127763Y-15463793D01*
X4127763Y-15463793D02*
X4118240Y-15501888D01*
X4118240Y-15501888D02*
X4108716Y-15520936D01*
X4108716Y-15520936D02*
X4099192Y-15530460D01*
X4099192Y-15530460D02*
X4080144Y-15539984D01*
X4080144Y-15539984D02*
X4061097Y-15539984D01*
X4061097Y-15539984D02*
X4042049Y-15530460D01*
X4042049Y-15530460D02*
X4032525Y-15520936D01*
X4032525Y-15520936D02*
X4023002Y-15501888D01*
X4023002Y-15501888D02*
X4013478Y-15463793D01*
X4013478Y-15463793D02*
X4013478Y-15416174D01*
X4013478Y-15416174D02*
X4023002Y-15378079D01*
X4023002Y-15378079D02*
X4032525Y-15359031D01*
X4032525Y-15359031D02*
X4042049Y-15349508D01*
X4042049Y-15349508D02*
X4061097Y-15339984D01*
X4213478Y-15539984D02*
X4213478Y-15406650D01*
X4213478Y-15425698D02*
X4223002Y-15416174D01*
X4223002Y-15416174D02*
X4242049Y-15406650D01*
X4242049Y-15406650D02*
X4270621Y-15406650D01*
X4270621Y-15406650D02*
X4289668Y-15416174D01*
X4289668Y-15416174D02*
X4299192Y-15435222D01*
X4299192Y-15435222D02*
X4299192Y-15539984D01*
X4299192Y-15435222D02*
X4308716Y-15416174D01*
X4308716Y-15416174D02*
X4327764Y-15406650D01*
X4327764Y-15406650D02*
X4356335Y-15406650D01*
X4356335Y-15406650D02*
X4375383Y-15416174D01*
X4375383Y-15416174D02*
X4384906Y-15435222D01*
X4384906Y-15435222D02*
X4384906Y-15539984D01*
X4480145Y-15539984D02*
X4480145Y-15406650D01*
X4480145Y-15425698D02*
X4489668Y-15416174D01*
X4489668Y-15416174D02*
X4508716Y-15406650D01*
X4508716Y-15406650D02*
X4537287Y-15406650D01*
X4537287Y-15406650D02*
X4556335Y-15416174D01*
X4556335Y-15416174D02*
X4565859Y-15435222D01*
X4565859Y-15435222D02*
X4565859Y-15539984D01*
X4565859Y-15435222D02*
X4575383Y-15416174D01*
X4575383Y-15416174D02*
X4594430Y-15406650D01*
X4594430Y-15406650D02*
X4623002Y-15406650D01*
X4623002Y-15406650D02*
X4642049Y-15416174D01*
X4642049Y-15416174D02*
X4651573Y-15435222D01*
X4651573Y-15435222D02*
X4651573Y-15539984D01*
X5042049Y-15330460D02*
X4870621Y-15587603D01*
X5299192Y-15339984D02*
X5318240Y-15339984D01*
X5318240Y-15339984D02*
X5337288Y-15349508D01*
X5337288Y-15349508D02*
X5346811Y-15359031D01*
X5346811Y-15359031D02*
X5356335Y-15378079D01*
X5356335Y-15378079D02*
X5365859Y-15416174D01*
X5365859Y-15416174D02*
X5365859Y-15463793D01*
X5365859Y-15463793D02*
X5356335Y-15501888D01*
X5356335Y-15501888D02*
X5346811Y-15520936D01*
X5346811Y-15520936D02*
X5337288Y-15530460D01*
X5337288Y-15530460D02*
X5318240Y-15539984D01*
X5318240Y-15539984D02*
X5299192Y-15539984D01*
X5299192Y-15539984D02*
X5280145Y-15530460D01*
X5280145Y-15530460D02*
X5270621Y-15520936D01*
X5270621Y-15520936D02*
X5261097Y-15501888D01*
X5261097Y-15501888D02*
X5251573Y-15463793D01*
X5251573Y-15463793D02*
X5251573Y-15416174D01*
X5251573Y-15416174D02*
X5261097Y-15378079D01*
X5261097Y-15378079D02*
X5270621Y-15359031D01*
X5270621Y-15359031D02*
X5280145Y-15349508D01*
X5280145Y-15349508D02*
X5299192Y-15339984D01*
X5451573Y-15520936D02*
X5461097Y-15530460D01*
X5461097Y-15530460D02*
X5451573Y-15539984D01*
X5451573Y-15539984D02*
X5442049Y-15530460D01*
X5442049Y-15530460D02*
X5451573Y-15520936D01*
X5451573Y-15520936D02*
X5451573Y-15539984D01*
X5584907Y-15339984D02*
X5603954Y-15339984D01*
X5603954Y-15339984D02*
X5623002Y-15349508D01*
X5623002Y-15349508D02*
X5632526Y-15359031D01*
X5632526Y-15359031D02*
X5642049Y-15378079D01*
X5642049Y-15378079D02*
X5651573Y-15416174D01*
X5651573Y-15416174D02*
X5651573Y-15463793D01*
X5651573Y-15463793D02*
X5642049Y-15501888D01*
X5642049Y-15501888D02*
X5632526Y-15520936D01*
X5632526Y-15520936D02*
X5623002Y-15530460D01*
X5623002Y-15530460D02*
X5603954Y-15539984D01*
X5603954Y-15539984D02*
X5584907Y-15539984D01*
X5584907Y-15539984D02*
X5565859Y-15530460D01*
X5565859Y-15530460D02*
X5556335Y-15520936D01*
X5556335Y-15520936D02*
X5546811Y-15501888D01*
X5546811Y-15501888D02*
X5537288Y-15463793D01*
X5537288Y-15463793D02*
X5537288Y-15416174D01*
X5537288Y-15416174D02*
X5546811Y-15378079D01*
X5546811Y-15378079D02*
X5556335Y-15359031D01*
X5556335Y-15359031D02*
X5565859Y-15349508D01*
X5565859Y-15349508D02*
X5584907Y-15339984D01*
X5832526Y-15339984D02*
X5737287Y-15339984D01*
X5737287Y-15339984D02*
X5727764Y-15435222D01*
X5727764Y-15435222D02*
X5737287Y-15425698D01*
X5737287Y-15425698D02*
X5756335Y-15416174D01*
X5756335Y-15416174D02*
X5803954Y-15416174D01*
X5803954Y-15416174D02*
X5823002Y-15425698D01*
X5823002Y-15425698D02*
X5832526Y-15435222D01*
X5832526Y-15435222D02*
X5842049Y-15454269D01*
X5842049Y-15454269D02*
X5842049Y-15501888D01*
X5842049Y-15501888D02*
X5832526Y-15520936D01*
X5832526Y-15520936D02*
X5823002Y-15530460D01*
X5823002Y-15530460D02*
X5803954Y-15539984D01*
X5803954Y-15539984D02*
X5756335Y-15539984D01*
X5756335Y-15539984D02*
X5737287Y-15530460D01*
X5737287Y-15530460D02*
X5727764Y-15520936D01*
X5937287Y-15539984D02*
X5975383Y-15539984D01*
X5975383Y-15539984D02*
X5994430Y-15530460D01*
X5994430Y-15530460D02*
X6003954Y-15520936D01*
X6003954Y-15520936D02*
X6023002Y-15492365D01*
X6023002Y-15492365D02*
X6032526Y-15454269D01*
X6032526Y-15454269D02*
X6032526Y-15378079D01*
X6032526Y-15378079D02*
X6023002Y-15359031D01*
X6023002Y-15359031D02*
X6013478Y-15349508D01*
X6013478Y-15349508D02*
X5994430Y-15339984D01*
X5994430Y-15339984D02*
X5956335Y-15339984D01*
X5956335Y-15339984D02*
X5937287Y-15349508D01*
X5937287Y-15349508D02*
X5927764Y-15359031D01*
X5927764Y-15359031D02*
X5918240Y-15378079D01*
X5918240Y-15378079D02*
X5918240Y-15425698D01*
X5918240Y-15425698D02*
X5927764Y-15444746D01*
X5927764Y-15444746D02*
X5937287Y-15454269D01*
X5937287Y-15454269D02*
X5956335Y-15463793D01*
X5956335Y-15463793D02*
X5994430Y-15463793D01*
X5994430Y-15463793D02*
X6013478Y-15454269D01*
X6013478Y-15454269D02*
X6023002Y-15444746D01*
X6023002Y-15444746D02*
X6032526Y-15425698D01*
X6223002Y-15539984D02*
X6108716Y-15539984D01*
X6165859Y-15539984D02*
X6165859Y-15339984D01*
X6165859Y-15339984D02*
X6146811Y-15368555D01*
X6146811Y-15368555D02*
X6127764Y-15387603D01*
X6127764Y-15387603D02*
X6108716Y-15397127D01*
X6299192Y-15339984D02*
X6299192Y-15378079D01*
X6375383Y-15339984D02*
X6375383Y-15378079D01*
X6670621Y-15616174D02*
X6661097Y-15606650D01*
X6661097Y-15606650D02*
X6642049Y-15578079D01*
X6642049Y-15578079D02*
X6632526Y-15559031D01*
X6632526Y-15559031D02*
X6623002Y-15530460D01*
X6623002Y-15530460D02*
X6613478Y-15482841D01*
X6613478Y-15482841D02*
X6613478Y-15444746D01*
X6613478Y-15444746D02*
X6623002Y-15397127D01*
X6623002Y-15397127D02*
X6632526Y-15368555D01*
X6632526Y-15368555D02*
X6642049Y-15349508D01*
X6642049Y-15349508D02*
X6661097Y-15320936D01*
X6661097Y-15320936D02*
X6670621Y-15311412D01*
X6775383Y-15425698D02*
X6756335Y-15416174D01*
X6756335Y-15416174D02*
X6746811Y-15406650D01*
X6746811Y-15406650D02*
X6737288Y-15387603D01*
X6737288Y-15387603D02*
X6737288Y-15378079D01*
X6737288Y-15378079D02*
X6746811Y-15359031D01*
X6746811Y-15359031D02*
X6756335Y-15349508D01*
X6756335Y-15349508D02*
X6775383Y-15339984D01*
X6775383Y-15339984D02*
X6813478Y-15339984D01*
X6813478Y-15339984D02*
X6832526Y-15349508D01*
X6832526Y-15349508D02*
X6842049Y-15359031D01*
X6842049Y-15359031D02*
X6851573Y-15378079D01*
X6851573Y-15378079D02*
X6851573Y-15387603D01*
X6851573Y-15387603D02*
X6842049Y-15406650D01*
X6842049Y-15406650D02*
X6832526Y-15416174D01*
X6832526Y-15416174D02*
X6813478Y-15425698D01*
X6813478Y-15425698D02*
X6775383Y-15425698D01*
X6775383Y-15425698D02*
X6756335Y-15435222D01*
X6756335Y-15435222D02*
X6746811Y-15444746D01*
X6746811Y-15444746D02*
X6737288Y-15463793D01*
X6737288Y-15463793D02*
X6737288Y-15501888D01*
X6737288Y-15501888D02*
X6746811Y-15520936D01*
X6746811Y-15520936D02*
X6756335Y-15530460D01*
X6756335Y-15530460D02*
X6775383Y-15539984D01*
X6775383Y-15539984D02*
X6813478Y-15539984D01*
X6813478Y-15539984D02*
X6832526Y-15530460D01*
X6832526Y-15530460D02*
X6842049Y-15520936D01*
X6842049Y-15520936D02*
X6851573Y-15501888D01*
X6851573Y-15501888D02*
X6851573Y-15463793D01*
X6851573Y-15463793D02*
X6842049Y-15444746D01*
X6842049Y-15444746D02*
X6832526Y-15435222D01*
X6832526Y-15435222D02*
X6813478Y-15425698D01*
X6965859Y-15425698D02*
X6946811Y-15416174D01*
X6946811Y-15416174D02*
X6937288Y-15406650D01*
X6937288Y-15406650D02*
X6927764Y-15387603D01*
X6927764Y-15387603D02*
X6927764Y-15378079D01*
X6927764Y-15378079D02*
X6937288Y-15359031D01*
X6937288Y-15359031D02*
X6946811Y-15349508D01*
X6946811Y-15349508D02*
X6965859Y-15339984D01*
X6965859Y-15339984D02*
X7003954Y-15339984D01*
X7003954Y-15339984D02*
X7023002Y-15349508D01*
X7023002Y-15349508D02*
X7032526Y-15359031D01*
X7032526Y-15359031D02*
X7042049Y-15378079D01*
X7042049Y-15378079D02*
X7042049Y-15387603D01*
X7042049Y-15387603D02*
X7032526Y-15406650D01*
X7032526Y-15406650D02*
X7023002Y-15416174D01*
X7023002Y-15416174D02*
X7003954Y-15425698D01*
X7003954Y-15425698D02*
X6965859Y-15425698D01*
X6965859Y-15425698D02*
X6946811Y-15435222D01*
X6946811Y-15435222D02*
X6937288Y-15444746D01*
X6937288Y-15444746D02*
X6927764Y-15463793D01*
X6927764Y-15463793D02*
X6927764Y-15501888D01*
X6927764Y-15501888D02*
X6937288Y-15520936D01*
X6937288Y-15520936D02*
X6946811Y-15530460D01*
X6946811Y-15530460D02*
X6965859Y-15539984D01*
X6965859Y-15539984D02*
X7003954Y-15539984D01*
X7003954Y-15539984D02*
X7023002Y-15530460D01*
X7023002Y-15530460D02*
X7032526Y-15520936D01*
X7032526Y-15520936D02*
X7042049Y-15501888D01*
X7042049Y-15501888D02*
X7042049Y-15463793D01*
X7042049Y-15463793D02*
X7032526Y-15444746D01*
X7032526Y-15444746D02*
X7023002Y-15435222D01*
X7023002Y-15435222D02*
X7003954Y-15425698D01*
X7280145Y-15539984D02*
X7280145Y-15339984D01*
X7365859Y-15539984D02*
X7365859Y-15435222D01*
X7365859Y-15435222D02*
X7356335Y-15416174D01*
X7356335Y-15416174D02*
X7337288Y-15406650D01*
X7337288Y-15406650D02*
X7308716Y-15406650D01*
X7308716Y-15406650D02*
X7289669Y-15416174D01*
X7289669Y-15416174D02*
X7280145Y-15425698D01*
X7489669Y-15539984D02*
X7470621Y-15530460D01*
X7470621Y-15530460D02*
X7461097Y-15520936D01*
X7461097Y-15520936D02*
X7451573Y-15501888D01*
X7451573Y-15501888D02*
X7451573Y-15444746D01*
X7451573Y-15444746D02*
X7461097Y-15425698D01*
X7461097Y-15425698D02*
X7470621Y-15416174D01*
X7470621Y-15416174D02*
X7489669Y-15406650D01*
X7489669Y-15406650D02*
X7518240Y-15406650D01*
X7518240Y-15406650D02*
X7537288Y-15416174D01*
X7537288Y-15416174D02*
X7546811Y-15425698D01*
X7546811Y-15425698D02*
X7556335Y-15444746D01*
X7556335Y-15444746D02*
X7556335Y-15501888D01*
X7556335Y-15501888D02*
X7546811Y-15520936D01*
X7546811Y-15520936D02*
X7537288Y-15530460D01*
X7537288Y-15530460D02*
X7518240Y-15539984D01*
X7518240Y-15539984D02*
X7489669Y-15539984D01*
X7670621Y-15539984D02*
X7651573Y-15530460D01*
X7651573Y-15530460D02*
X7642050Y-15511412D01*
X7642050Y-15511412D02*
X7642050Y-15339984D01*
X7823002Y-15530460D02*
X7803954Y-15539984D01*
X7803954Y-15539984D02*
X7765859Y-15539984D01*
X7765859Y-15539984D02*
X7746811Y-15530460D01*
X7746811Y-15530460D02*
X7737288Y-15511412D01*
X7737288Y-15511412D02*
X7737288Y-15435222D01*
X7737288Y-15435222D02*
X7746811Y-15416174D01*
X7746811Y-15416174D02*
X7765859Y-15406650D01*
X7765859Y-15406650D02*
X7803954Y-15406650D01*
X7803954Y-15406650D02*
X7823002Y-15416174D01*
X7823002Y-15416174D02*
X7832526Y-15435222D01*
X7832526Y-15435222D02*
X7832526Y-15454269D01*
X7832526Y-15454269D02*
X7737288Y-15473317D01*
X7908716Y-15530460D02*
X7927764Y-15539984D01*
X7927764Y-15539984D02*
X7965859Y-15539984D01*
X7965859Y-15539984D02*
X7984907Y-15530460D01*
X7984907Y-15530460D02*
X7994431Y-15511412D01*
X7994431Y-15511412D02*
X7994431Y-15501888D01*
X7994431Y-15501888D02*
X7984907Y-15482841D01*
X7984907Y-15482841D02*
X7965859Y-15473317D01*
X7965859Y-15473317D02*
X7937288Y-15473317D01*
X7937288Y-15473317D02*
X7918240Y-15463793D01*
X7918240Y-15463793D02*
X7908716Y-15444746D01*
X7908716Y-15444746D02*
X7908716Y-15435222D01*
X7908716Y-15435222D02*
X7918240Y-15416174D01*
X7918240Y-15416174D02*
X7937288Y-15406650D01*
X7937288Y-15406650D02*
X7965859Y-15406650D01*
X7965859Y-15406650D02*
X7984907Y-15416174D01*
X8061097Y-15616174D02*
X8070621Y-15606650D01*
X8070621Y-15606650D02*
X8089669Y-15578079D01*
X8089669Y-15578079D02*
X8099192Y-15559031D01*
X8099192Y-15559031D02*
X8108716Y-15530460D01*
X8108716Y-15530460D02*
X8118240Y-15482841D01*
X8118240Y-15482841D02*
X8118240Y-15444746D01*
X8118240Y-15444746D02*
X8108716Y-15397127D01*
X8108716Y-15397127D02*
X8099192Y-15368555D01*
X8099192Y-15368555D02*
X8089669Y-15349508D01*
X8089669Y-15349508D02*
X8070621Y-15320936D01*
X8070621Y-15320936D02*
X8061097Y-15311412D01*
X2895558Y-15618500D02*
X3095558Y-15818500D01*
X3095558Y-15618500D02*
X2895558Y-15818500D01*
X3095558Y-15718500D02*
G75*
G02*
X2895558Y-15718500I-100000J0D01*
G01*
X2895558Y-15718500D02*
G75*
G02*
X3095558Y-15718500I100000J0D01*
G01*
X3346811Y-15629031D02*
X3356335Y-15619508D01*
X3356335Y-15619508D02*
X3375382Y-15609984D01*
X3375382Y-15609984D02*
X3423002Y-15609984D01*
X3423002Y-15609984D02*
X3442049Y-15619508D01*
X3442049Y-15619508D02*
X3451573Y-15629031D01*
X3451573Y-15629031D02*
X3461097Y-15648079D01*
X3461097Y-15648079D02*
X3461097Y-15667127D01*
X3461097Y-15667127D02*
X3451573Y-15695698D01*
X3451573Y-15695698D02*
X3337287Y-15809984D01*
X3337287Y-15809984D02*
X3461097Y-15809984D01*
X3546811Y-15790936D02*
X3556335Y-15800460D01*
X3556335Y-15800460D02*
X3546811Y-15809984D01*
X3546811Y-15809984D02*
X3537287Y-15800460D01*
X3537287Y-15800460D02*
X3546811Y-15790936D01*
X3546811Y-15790936D02*
X3546811Y-15809984D01*
X3632525Y-15629031D02*
X3642049Y-15619508D01*
X3642049Y-15619508D02*
X3661097Y-15609984D01*
X3661097Y-15609984D02*
X3708716Y-15609984D01*
X3708716Y-15609984D02*
X3727763Y-15619508D01*
X3727763Y-15619508D02*
X3737287Y-15629031D01*
X3737287Y-15629031D02*
X3746811Y-15648079D01*
X3746811Y-15648079D02*
X3746811Y-15667127D01*
X3746811Y-15667127D02*
X3737287Y-15695698D01*
X3737287Y-15695698D02*
X3623002Y-15809984D01*
X3623002Y-15809984D02*
X3746811Y-15809984D01*
X3870621Y-15609984D02*
X3889668Y-15609984D01*
X3889668Y-15609984D02*
X3908716Y-15619508D01*
X3908716Y-15619508D02*
X3918240Y-15629031D01*
X3918240Y-15629031D02*
X3927763Y-15648079D01*
X3927763Y-15648079D02*
X3937287Y-15686174D01*
X3937287Y-15686174D02*
X3937287Y-15733793D01*
X3937287Y-15733793D02*
X3927763Y-15771888D01*
X3927763Y-15771888D02*
X3918240Y-15790936D01*
X3918240Y-15790936D02*
X3908716Y-15800460D01*
X3908716Y-15800460D02*
X3889668Y-15809984D01*
X3889668Y-15809984D02*
X3870621Y-15809984D01*
X3870621Y-15809984D02*
X3851573Y-15800460D01*
X3851573Y-15800460D02*
X3842049Y-15790936D01*
X3842049Y-15790936D02*
X3832525Y-15771888D01*
X3832525Y-15771888D02*
X3823002Y-15733793D01*
X3823002Y-15733793D02*
X3823002Y-15686174D01*
X3823002Y-15686174D02*
X3832525Y-15648079D01*
X3832525Y-15648079D02*
X3842049Y-15629031D01*
X3842049Y-15629031D02*
X3851573Y-15619508D01*
X3851573Y-15619508D02*
X3870621Y-15609984D01*
X4061097Y-15609984D02*
X4080144Y-15609984D01*
X4080144Y-15609984D02*
X4099192Y-15619508D01*
X4099192Y-15619508D02*
X4108716Y-15629031D01*
X4108716Y-15629031D02*
X4118240Y-15648079D01*
X4118240Y-15648079D02*
X4127763Y-15686174D01*
X4127763Y-15686174D02*
X4127763Y-15733793D01*
X4127763Y-15733793D02*
X4118240Y-15771888D01*
X4118240Y-15771888D02*
X4108716Y-15790936D01*
X4108716Y-15790936D02*
X4099192Y-15800460D01*
X4099192Y-15800460D02*
X4080144Y-15809984D01*
X4080144Y-15809984D02*
X4061097Y-15809984D01*
X4061097Y-15809984D02*
X4042049Y-15800460D01*
X4042049Y-15800460D02*
X4032525Y-15790936D01*
X4032525Y-15790936D02*
X4023002Y-15771888D01*
X4023002Y-15771888D02*
X4013478Y-15733793D01*
X4013478Y-15733793D02*
X4013478Y-15686174D01*
X4013478Y-15686174D02*
X4023002Y-15648079D01*
X4023002Y-15648079D02*
X4032525Y-15629031D01*
X4032525Y-15629031D02*
X4042049Y-15619508D01*
X4042049Y-15619508D02*
X4061097Y-15609984D01*
X4213478Y-15809984D02*
X4213478Y-15676650D01*
X4213478Y-15695698D02*
X4223002Y-15686174D01*
X4223002Y-15686174D02*
X4242049Y-15676650D01*
X4242049Y-15676650D02*
X4270621Y-15676650D01*
X4270621Y-15676650D02*
X4289668Y-15686174D01*
X4289668Y-15686174D02*
X4299192Y-15705222D01*
X4299192Y-15705222D02*
X4299192Y-15809984D01*
X4299192Y-15705222D02*
X4308716Y-15686174D01*
X4308716Y-15686174D02*
X4327764Y-15676650D01*
X4327764Y-15676650D02*
X4356335Y-15676650D01*
X4356335Y-15676650D02*
X4375383Y-15686174D01*
X4375383Y-15686174D02*
X4384906Y-15705222D01*
X4384906Y-15705222D02*
X4384906Y-15809984D01*
X4480145Y-15809984D02*
X4480145Y-15676650D01*
X4480145Y-15695698D02*
X4489668Y-15686174D01*
X4489668Y-15686174D02*
X4508716Y-15676650D01*
X4508716Y-15676650D02*
X4537287Y-15676650D01*
X4537287Y-15676650D02*
X4556335Y-15686174D01*
X4556335Y-15686174D02*
X4565859Y-15705222D01*
X4565859Y-15705222D02*
X4565859Y-15809984D01*
X4565859Y-15705222D02*
X4575383Y-15686174D01*
X4575383Y-15686174D02*
X4594430Y-15676650D01*
X4594430Y-15676650D02*
X4623002Y-15676650D01*
X4623002Y-15676650D02*
X4642049Y-15686174D01*
X4642049Y-15686174D02*
X4651573Y-15705222D01*
X4651573Y-15705222D02*
X4651573Y-15809984D01*
X5042049Y-15600460D02*
X4870621Y-15857603D01*
X5299192Y-15609984D02*
X5318240Y-15609984D01*
X5318240Y-15609984D02*
X5337288Y-15619508D01*
X5337288Y-15619508D02*
X5346811Y-15629031D01*
X5346811Y-15629031D02*
X5356335Y-15648079D01*
X5356335Y-15648079D02*
X5365859Y-15686174D01*
X5365859Y-15686174D02*
X5365859Y-15733793D01*
X5365859Y-15733793D02*
X5356335Y-15771888D01*
X5356335Y-15771888D02*
X5346811Y-15790936D01*
X5346811Y-15790936D02*
X5337288Y-15800460D01*
X5337288Y-15800460D02*
X5318240Y-15809984D01*
X5318240Y-15809984D02*
X5299192Y-15809984D01*
X5299192Y-15809984D02*
X5280145Y-15800460D01*
X5280145Y-15800460D02*
X5270621Y-15790936D01*
X5270621Y-15790936D02*
X5261097Y-15771888D01*
X5261097Y-15771888D02*
X5251573Y-15733793D01*
X5251573Y-15733793D02*
X5251573Y-15686174D01*
X5251573Y-15686174D02*
X5261097Y-15648079D01*
X5261097Y-15648079D02*
X5270621Y-15629031D01*
X5270621Y-15629031D02*
X5280145Y-15619508D01*
X5280145Y-15619508D02*
X5299192Y-15609984D01*
X5451573Y-15790936D02*
X5461097Y-15800460D01*
X5461097Y-15800460D02*
X5451573Y-15809984D01*
X5451573Y-15809984D02*
X5442049Y-15800460D01*
X5442049Y-15800460D02*
X5451573Y-15790936D01*
X5451573Y-15790936D02*
X5451573Y-15809984D01*
X5584907Y-15609984D02*
X5603954Y-15609984D01*
X5603954Y-15609984D02*
X5623002Y-15619508D01*
X5623002Y-15619508D02*
X5632526Y-15629031D01*
X5632526Y-15629031D02*
X5642049Y-15648079D01*
X5642049Y-15648079D02*
X5651573Y-15686174D01*
X5651573Y-15686174D02*
X5651573Y-15733793D01*
X5651573Y-15733793D02*
X5642049Y-15771888D01*
X5642049Y-15771888D02*
X5632526Y-15790936D01*
X5632526Y-15790936D02*
X5623002Y-15800460D01*
X5623002Y-15800460D02*
X5603954Y-15809984D01*
X5603954Y-15809984D02*
X5584907Y-15809984D01*
X5584907Y-15809984D02*
X5565859Y-15800460D01*
X5565859Y-15800460D02*
X5556335Y-15790936D01*
X5556335Y-15790936D02*
X5546811Y-15771888D01*
X5546811Y-15771888D02*
X5537288Y-15733793D01*
X5537288Y-15733793D02*
X5537288Y-15686174D01*
X5537288Y-15686174D02*
X5546811Y-15648079D01*
X5546811Y-15648079D02*
X5556335Y-15629031D01*
X5556335Y-15629031D02*
X5565859Y-15619508D01*
X5565859Y-15619508D02*
X5584907Y-15609984D01*
X5765859Y-15695698D02*
X5746811Y-15686174D01*
X5746811Y-15686174D02*
X5737287Y-15676650D01*
X5737287Y-15676650D02*
X5727764Y-15657603D01*
X5727764Y-15657603D02*
X5727764Y-15648079D01*
X5727764Y-15648079D02*
X5737287Y-15629031D01*
X5737287Y-15629031D02*
X5746811Y-15619508D01*
X5746811Y-15619508D02*
X5765859Y-15609984D01*
X5765859Y-15609984D02*
X5803954Y-15609984D01*
X5803954Y-15609984D02*
X5823002Y-15619508D01*
X5823002Y-15619508D02*
X5832526Y-15629031D01*
X5832526Y-15629031D02*
X5842049Y-15648079D01*
X5842049Y-15648079D02*
X5842049Y-15657603D01*
X5842049Y-15657603D02*
X5832526Y-15676650D01*
X5832526Y-15676650D02*
X5823002Y-15686174D01*
X5823002Y-15686174D02*
X5803954Y-15695698D01*
X5803954Y-15695698D02*
X5765859Y-15695698D01*
X5765859Y-15695698D02*
X5746811Y-15705222D01*
X5746811Y-15705222D02*
X5737287Y-15714746D01*
X5737287Y-15714746D02*
X5727764Y-15733793D01*
X5727764Y-15733793D02*
X5727764Y-15771888D01*
X5727764Y-15771888D02*
X5737287Y-15790936D01*
X5737287Y-15790936D02*
X5746811Y-15800460D01*
X5746811Y-15800460D02*
X5765859Y-15809984D01*
X5765859Y-15809984D02*
X5803954Y-15809984D01*
X5803954Y-15809984D02*
X5823002Y-15800460D01*
X5823002Y-15800460D02*
X5832526Y-15790936D01*
X5832526Y-15790936D02*
X5842049Y-15771888D01*
X5842049Y-15771888D02*
X5842049Y-15733793D01*
X5842049Y-15733793D02*
X5832526Y-15714746D01*
X5832526Y-15714746D02*
X5823002Y-15705222D01*
X5823002Y-15705222D02*
X5803954Y-15695698D01*
X6013478Y-15609984D02*
X5975383Y-15609984D01*
X5975383Y-15609984D02*
X5956335Y-15619508D01*
X5956335Y-15619508D02*
X5946811Y-15629031D01*
X5946811Y-15629031D02*
X5927764Y-15657603D01*
X5927764Y-15657603D02*
X5918240Y-15695698D01*
X5918240Y-15695698D02*
X5918240Y-15771888D01*
X5918240Y-15771888D02*
X5927764Y-15790936D01*
X5927764Y-15790936D02*
X5937287Y-15800460D01*
X5937287Y-15800460D02*
X5956335Y-15809984D01*
X5956335Y-15809984D02*
X5994430Y-15809984D01*
X5994430Y-15809984D02*
X6013478Y-15800460D01*
X6013478Y-15800460D02*
X6023002Y-15790936D01*
X6023002Y-15790936D02*
X6032526Y-15771888D01*
X6032526Y-15771888D02*
X6032526Y-15724269D01*
X6032526Y-15724269D02*
X6023002Y-15705222D01*
X6023002Y-15705222D02*
X6013478Y-15695698D01*
X6013478Y-15695698D02*
X5994430Y-15686174D01*
X5994430Y-15686174D02*
X5956335Y-15686174D01*
X5956335Y-15686174D02*
X5937287Y-15695698D01*
X5937287Y-15695698D02*
X5927764Y-15705222D01*
X5927764Y-15705222D02*
X5918240Y-15724269D01*
X6203954Y-15609984D02*
X6165859Y-15609984D01*
X6165859Y-15609984D02*
X6146811Y-15619508D01*
X6146811Y-15619508D02*
X6137287Y-15629031D01*
X6137287Y-15629031D02*
X6118240Y-15657603D01*
X6118240Y-15657603D02*
X6108716Y-15695698D01*
X6108716Y-15695698D02*
X6108716Y-15771888D01*
X6108716Y-15771888D02*
X6118240Y-15790936D01*
X6118240Y-15790936D02*
X6127764Y-15800460D01*
X6127764Y-15800460D02*
X6146811Y-15809984D01*
X6146811Y-15809984D02*
X6184907Y-15809984D01*
X6184907Y-15809984D02*
X6203954Y-15800460D01*
X6203954Y-15800460D02*
X6213478Y-15790936D01*
X6213478Y-15790936D02*
X6223002Y-15771888D01*
X6223002Y-15771888D02*
X6223002Y-15724269D01*
X6223002Y-15724269D02*
X6213478Y-15705222D01*
X6213478Y-15705222D02*
X6203954Y-15695698D01*
X6203954Y-15695698D02*
X6184907Y-15686174D01*
X6184907Y-15686174D02*
X6146811Y-15686174D01*
X6146811Y-15686174D02*
X6127764Y-15695698D01*
X6127764Y-15695698D02*
X6118240Y-15705222D01*
X6118240Y-15705222D02*
X6108716Y-15724269D01*
X6299192Y-15609984D02*
X6299192Y-15648079D01*
X6375383Y-15609984D02*
X6375383Y-15648079D01*
X6670621Y-15886174D02*
X6661097Y-15876650D01*
X6661097Y-15876650D02*
X6642049Y-15848079D01*
X6642049Y-15848079D02*
X6632526Y-15829031D01*
X6632526Y-15829031D02*
X6623002Y-15800460D01*
X6623002Y-15800460D02*
X6613478Y-15752841D01*
X6613478Y-15752841D02*
X6613478Y-15714746D01*
X6613478Y-15714746D02*
X6623002Y-15667127D01*
X6623002Y-15667127D02*
X6632526Y-15638555D01*
X6632526Y-15638555D02*
X6642049Y-15619508D01*
X6642049Y-15619508D02*
X6661097Y-15590936D01*
X6661097Y-15590936D02*
X6670621Y-15581412D01*
X6775383Y-15695698D02*
X6756335Y-15686174D01*
X6756335Y-15686174D02*
X6746811Y-15676650D01*
X6746811Y-15676650D02*
X6737288Y-15657603D01*
X6737288Y-15657603D02*
X6737288Y-15648079D01*
X6737288Y-15648079D02*
X6746811Y-15629031D01*
X6746811Y-15629031D02*
X6756335Y-15619508D01*
X6756335Y-15619508D02*
X6775383Y-15609984D01*
X6775383Y-15609984D02*
X6813478Y-15609984D01*
X6813478Y-15609984D02*
X6832526Y-15619508D01*
X6832526Y-15619508D02*
X6842049Y-15629031D01*
X6842049Y-15629031D02*
X6851573Y-15648079D01*
X6851573Y-15648079D02*
X6851573Y-15657603D01*
X6851573Y-15657603D02*
X6842049Y-15676650D01*
X6842049Y-15676650D02*
X6832526Y-15686174D01*
X6832526Y-15686174D02*
X6813478Y-15695698D01*
X6813478Y-15695698D02*
X6775383Y-15695698D01*
X6775383Y-15695698D02*
X6756335Y-15705222D01*
X6756335Y-15705222D02*
X6746811Y-15714746D01*
X6746811Y-15714746D02*
X6737288Y-15733793D01*
X6737288Y-15733793D02*
X6737288Y-15771888D01*
X6737288Y-15771888D02*
X6746811Y-15790936D01*
X6746811Y-15790936D02*
X6756335Y-15800460D01*
X6756335Y-15800460D02*
X6775383Y-15809984D01*
X6775383Y-15809984D02*
X6813478Y-15809984D01*
X6813478Y-15809984D02*
X6832526Y-15800460D01*
X6832526Y-15800460D02*
X6842049Y-15790936D01*
X6842049Y-15790936D02*
X6851573Y-15771888D01*
X6851573Y-15771888D02*
X6851573Y-15733793D01*
X6851573Y-15733793D02*
X6842049Y-15714746D01*
X6842049Y-15714746D02*
X6832526Y-15705222D01*
X6832526Y-15705222D02*
X6813478Y-15695698D01*
X7089669Y-15809984D02*
X7089669Y-15609984D01*
X7175383Y-15809984D02*
X7175383Y-15705222D01*
X7175383Y-15705222D02*
X7165859Y-15686174D01*
X7165859Y-15686174D02*
X7146811Y-15676650D01*
X7146811Y-15676650D02*
X7118240Y-15676650D01*
X7118240Y-15676650D02*
X7099192Y-15686174D01*
X7099192Y-15686174D02*
X7089669Y-15695698D01*
X7299192Y-15809984D02*
X7280145Y-15800460D01*
X7280145Y-15800460D02*
X7270621Y-15790936D01*
X7270621Y-15790936D02*
X7261097Y-15771888D01*
X7261097Y-15771888D02*
X7261097Y-15714746D01*
X7261097Y-15714746D02*
X7270621Y-15695698D01*
X7270621Y-15695698D02*
X7280145Y-15686174D01*
X7280145Y-15686174D02*
X7299192Y-15676650D01*
X7299192Y-15676650D02*
X7327764Y-15676650D01*
X7327764Y-15676650D02*
X7346811Y-15686174D01*
X7346811Y-15686174D02*
X7356335Y-15695698D01*
X7356335Y-15695698D02*
X7365859Y-15714746D01*
X7365859Y-15714746D02*
X7365859Y-15771888D01*
X7365859Y-15771888D02*
X7356335Y-15790936D01*
X7356335Y-15790936D02*
X7346811Y-15800460D01*
X7346811Y-15800460D02*
X7327764Y-15809984D01*
X7327764Y-15809984D02*
X7299192Y-15809984D01*
X7480145Y-15809984D02*
X7461097Y-15800460D01*
X7461097Y-15800460D02*
X7451573Y-15781412D01*
X7451573Y-15781412D02*
X7451573Y-15609984D01*
X7632526Y-15800460D02*
X7613478Y-15809984D01*
X7613478Y-15809984D02*
X7575383Y-15809984D01*
X7575383Y-15809984D02*
X7556335Y-15800460D01*
X7556335Y-15800460D02*
X7546811Y-15781412D01*
X7546811Y-15781412D02*
X7546811Y-15705222D01*
X7546811Y-15705222D02*
X7556335Y-15686174D01*
X7556335Y-15686174D02*
X7575383Y-15676650D01*
X7575383Y-15676650D02*
X7613478Y-15676650D01*
X7613478Y-15676650D02*
X7632526Y-15686174D01*
X7632526Y-15686174D02*
X7642050Y-15705222D01*
X7642050Y-15705222D02*
X7642050Y-15724269D01*
X7642050Y-15724269D02*
X7546811Y-15743317D01*
X7718240Y-15800460D02*
X7737288Y-15809984D01*
X7737288Y-15809984D02*
X7775383Y-15809984D01*
X7775383Y-15809984D02*
X7794431Y-15800460D01*
X7794431Y-15800460D02*
X7803954Y-15781412D01*
X7803954Y-15781412D02*
X7803954Y-15771888D01*
X7803954Y-15771888D02*
X7794431Y-15752841D01*
X7794431Y-15752841D02*
X7775383Y-15743317D01*
X7775383Y-15743317D02*
X7746811Y-15743317D01*
X7746811Y-15743317D02*
X7727764Y-15733793D01*
X7727764Y-15733793D02*
X7718240Y-15714746D01*
X7718240Y-15714746D02*
X7718240Y-15705222D01*
X7718240Y-15705222D02*
X7727764Y-15686174D01*
X7727764Y-15686174D02*
X7746811Y-15676650D01*
X7746811Y-15676650D02*
X7775383Y-15676650D01*
X7775383Y-15676650D02*
X7794431Y-15686174D01*
X7870621Y-15886174D02*
X7880145Y-15876650D01*
X7880145Y-15876650D02*
X7899192Y-15848079D01*
X7899192Y-15848079D02*
X7908716Y-15829031D01*
X7908716Y-15829031D02*
X7918240Y-15800460D01*
X7918240Y-15800460D02*
X7927764Y-15752841D01*
X7927764Y-15752841D02*
X7927764Y-15714746D01*
X7927764Y-15714746D02*
X7918240Y-15667127D01*
X7918240Y-15667127D02*
X7908716Y-15638555D01*
X7908716Y-15638555D02*
X7899192Y-15619508D01*
X7899192Y-15619508D02*
X7880145Y-15590936D01*
X7880145Y-15590936D02*
X7870621Y-15581412D01*
M02*
