%TF.GenerationSoftware,KiCad,Pcbnew,9.0.1*%
%TF.CreationDate,2025-05-05T23:15:36+01:00*%
%TF.ProjectId,keyboard,6b657962-6f61-4726-942e-6b696361645f,rev?*%
%TF.SameCoordinates,Original*%
%TF.FileFunction,Legend,Bot*%
%TF.FilePolarity,Positive*%
%FSLAX46Y46*%
G04 Gerber Fmt 4.6, Leading zero omitted, Abs format (unit mm)*
G04 Created by KiCad (PCBNEW 9.0.1) date 2025-05-05 23:15:36*
%MOMM*%
%LPD*%
G01*
G04 APERTURE LIST*
%ADD10C,0.120000*%
%ADD11C,1.412000*%
%ADD12C,2.500000*%
%ADD13C,1.750000*%
%ADD14C,4.000000*%
%ADD15C,3.800000*%
%ADD16R,1.700000X1.700000*%
%ADD17C,1.700000*%
G04 APERTURE END LIST*
D10*
%TO.C,J3*%
X103620000Y-48120000D02*
X106380000Y-48120000D01*
X103620000Y-50770000D02*
X103620000Y-48120000D01*
X103620000Y-50770000D02*
X106380000Y-50770000D01*
X103620000Y-52040000D02*
X103620000Y-53420000D01*
X103620000Y-53420000D02*
X105000000Y-53420000D01*
X106380000Y-50770000D02*
X106380000Y-48120000D01*
%TD*%
%LPC*%
D11*
%TO.C,U3*%
X143820000Y-47500000D03*
X143820000Y-47900000D03*
X143820000Y-48300000D03*
X143820000Y-51350000D03*
X143820000Y-51850000D03*
X135180000Y-47500000D03*
X135180000Y-47900000D03*
X135180000Y-48300000D03*
X135180000Y-51350000D03*
X135180000Y-51850000D03*
%TD*%
D12*
%TO.C,SW1:1*%
X70390022Y-69708756D03*
X63695427Y-71107502D03*
D13*
X72009301Y-75152646D03*
D14*
X67006478Y-74270513D03*
D13*
X62003655Y-73388380D03*
%TD*%
D15*
%TO.C,H8*%
X80500000Y-48000000D03*
%TD*%
%TO.C,H7*%
X219000000Y-48000000D03*
%TD*%
%TO.C,H6*%
X142000000Y-72000000D03*
%TD*%
%TO.C,H5*%
X167000000Y-82000000D03*
%TD*%
%TO.C,H4*%
X150000000Y-103000000D03*
%TD*%
%TO.C,H3*%
X150000000Y-127000000D03*
%TD*%
%TO.C,H2*%
X52500000Y-120500000D03*
%TD*%
%TO.C,H1*%
X247500000Y-120500000D03*
%TD*%
D13*
%TO.C,SW11:2*%
X250272501Y-93513001D03*
D14*
X255275324Y-92630868D03*
D13*
X260278147Y-91748735D03*
D12*
X251082140Y-90791056D03*
X256894603Y-87186978D03*
%TD*%
D13*
%TO.C,SW6:1*%
X164135770Y-122835969D03*
D14*
X165017903Y-127838792D03*
D13*
X165900036Y-132841615D03*
D12*
X166857715Y-123645608D03*
X170461793Y-129458071D03*
%TD*%
D13*
%TO.C,SW7:2*%
X175948056Y-109664686D03*
D14*
X180950879Y-108782553D03*
D13*
X185953702Y-107900420D03*
D12*
X176757695Y-106942741D03*
X182570158Y-103338663D03*
%TD*%
D13*
%TO.C,SW0:1*%
X42771364Y-73043488D03*
D14*
X47774187Y-73925621D03*
D13*
X52777010Y-74807754D03*
D12*
X44463136Y-70762610D03*
X51157731Y-69363864D03*
%TD*%
D13*
%TO.C,SW10:1*%
X227740894Y-75146546D03*
D14*
X232743717Y-74264413D03*
D13*
X237746540Y-73382280D03*
D12*
X228550533Y-72424601D03*
X234362996Y-68820523D03*
%TD*%
D13*
%TO.C,SW0:2*%
X39472048Y-91754835D03*
D14*
X44474871Y-92636968D03*
D13*
X49477694Y-93519101D03*
D12*
X41163820Y-89473957D03*
X47858415Y-88075211D03*
%TD*%
D13*
%TO.C,SW11:3*%
X253571816Y-112224348D03*
D14*
X258574639Y-111342215D03*
D13*
X263577462Y-110460082D03*
D12*
X254381455Y-109502403D03*
X260193918Y-105898325D03*
%TD*%
D13*
%TO.C,SW8:0*%
X187192532Y-64018637D03*
D14*
X192195355Y-63136504D03*
D13*
X197198178Y-62254371D03*
D12*
X188002171Y-61296692D03*
X193814634Y-57692614D03*
%TD*%
D13*
%TO.C,SW9:1*%
X208161305Y-73521823D03*
D14*
X213164128Y-72639690D03*
D13*
X218166951Y-71757557D03*
D12*
X208970944Y-70799878D03*
X214783407Y-67195800D03*
%TD*%
D13*
%TO.C,SW2:0*%
X84882559Y-53052309D03*
D14*
X89885382Y-53934442D03*
D13*
X94888205Y-54816575D03*
D12*
X86574331Y-50771431D03*
X93268926Y-49372685D03*
%TD*%
D13*
%TO.C,SW0:0*%
X46070679Y-54332140D03*
D14*
X51073502Y-55214273D03*
D13*
X56076325Y-56096406D03*
D12*
X47762451Y-52051262D03*
X54457046Y-50652516D03*
%TD*%
D13*
%TO.C,SW2:1*%
X81583244Y-71763656D03*
D14*
X86586067Y-72645789D03*
D13*
X91588890Y-73527922D03*
D12*
X83275016Y-69482778D03*
X89969611Y-68084032D03*
%TD*%
D13*
%TO.C,SW3:1*%
X99252702Y-80971818D03*
D14*
X104255525Y-81853951D03*
D13*
X109258348Y-82736084D03*
D12*
X100944474Y-78690940D03*
X107639069Y-77292194D03*
%TD*%
D13*
%TO.C,SW8:3*%
X197090478Y-120152679D03*
D14*
X202093301Y-119270546D03*
D13*
X207096124Y-118388413D03*
D12*
X197900117Y-117430734D03*
X203712580Y-113826656D03*
%TD*%
D13*
%TO.C,SW4:2*%
X113796493Y-107906520D03*
D14*
X118799316Y-108788653D03*
D13*
X123802139Y-109670786D03*
D12*
X115488265Y-105625642D03*
X122182860Y-104226896D03*
%TD*%
D13*
%TO.C,SW1:3*%
X55405025Y-110811074D03*
D14*
X60407848Y-111693207D03*
D13*
X65410671Y-112575340D03*
D12*
X57096797Y-108530196D03*
X63791392Y-107131450D03*
%TD*%
D13*
%TO.C,SW1:2*%
X58704340Y-92099727D03*
D14*
X63707163Y-92981860D03*
D13*
X68709986Y-93863993D03*
D12*
X60396112Y-89818849D03*
X67090707Y-88420103D03*
%TD*%
D13*
%TO.C,SW1:0*%
X65302971Y-54677033D03*
D14*
X70305794Y-55559166D03*
D13*
X75308617Y-56441299D03*
D12*
X66994743Y-52396155D03*
X73689338Y-50997409D03*
%TD*%
D13*
%TO.C,SW10:0*%
X224441578Y-56435199D03*
D14*
X229444401Y-55553066D03*
D13*
X234447224Y-54670933D03*
D12*
X225251217Y-53713254D03*
X231063680Y-50109176D03*
%TD*%
D13*
%TO.C,SW5:1*%
X133850159Y-132847715D03*
D14*
X134732292Y-127844892D03*
D13*
X135614425Y-122842069D03*
D12*
X131569281Y-131155943D03*
X130170535Y-124461348D03*
%TD*%
D13*
%TO.C,SW11:1*%
X246973185Y-74801654D03*
D14*
X251976008Y-73919521D03*
D13*
X256978831Y-73037388D03*
D12*
X247782824Y-72079709D03*
X253595287Y-68475631D03*
%TD*%
D13*
%TO.C,SW4:0*%
X120395124Y-70483825D03*
D14*
X125397947Y-71365958D03*
D13*
X130400770Y-72248091D03*
D12*
X122086896Y-68202947D03*
X128781491Y-66804201D03*
%TD*%
D13*
%TO.C,SW10:2*%
X231040209Y-93857893D03*
D14*
X236043032Y-92975760D03*
D13*
X241045855Y-92093627D03*
D12*
X231849848Y-91135948D03*
X237662311Y-87531870D03*
%TD*%
D13*
%TO.C,SW5:0*%
X137149474Y-114136365D03*
D14*
X138031607Y-109133542D03*
D13*
X138913740Y-104130719D03*
D12*
X134868596Y-112444593D03*
X133469850Y-105749998D03*
%TD*%
D13*
%TO.C,SW11:0*%
X243673870Y-56090307D03*
D14*
X248676693Y-55208174D03*
D13*
X253679516Y-54326041D03*
D12*
X244483509Y-53368362D03*
X250295972Y-49764284D03*
%TD*%
D13*
%TO.C,SW3:0*%
X102552017Y-62260471D03*
D14*
X107554840Y-63142604D03*
D13*
X112557663Y-64024737D03*
D12*
X104243789Y-59979593D03*
X110938384Y-58580847D03*
%TD*%
D13*
%TO.C,SW8:1*%
X190491847Y-82729984D03*
D14*
X195494670Y-81847851D03*
D13*
X200497493Y-80965718D03*
D12*
X191301486Y-80008039D03*
X197113949Y-76403961D03*
%TD*%
D13*
%TO.C,SW3:2*%
X95953386Y-99683166D03*
D14*
X100956209Y-100565299D03*
D13*
X105959032Y-101447432D03*
D12*
X97645158Y-97402288D03*
X104339753Y-96003542D03*
%TD*%
D13*
%TO.C,SW8:2*%
X193791163Y-101441332D03*
D14*
X198793986Y-100559199D03*
D13*
X203796809Y-99677066D03*
D12*
X194600802Y-98719387D03*
X200413265Y-95115309D03*
%TD*%
D13*
%TO.C,SW7:3*%
X179247372Y-128376033D03*
D14*
X184250195Y-127493900D03*
D13*
X189253018Y-126611767D03*
D12*
X180057011Y-125654088D03*
X185869474Y-122050010D03*
%TD*%
D13*
%TO.C,SW9:3*%
X214759936Y-110944517D03*
D14*
X219762759Y-110062384D03*
D13*
X224765582Y-109180251D03*
D12*
X215569575Y-108222572D03*
X221382038Y-104618494D03*
%TD*%
D13*
%TO.C,SW2:3*%
X74984613Y-109186351D03*
D14*
X79987436Y-110068484D03*
D13*
X84990259Y-110950617D03*
D12*
X76676385Y-106905473D03*
X83370980Y-105506727D03*
%TD*%
D13*
%TO.C,SW7:1*%
X172648741Y-90953339D03*
D14*
X177651564Y-90071206D03*
D13*
X182654387Y-89189073D03*
D12*
X173458380Y-88231394D03*
X179270843Y-84627316D03*
%TD*%
D13*
%TO.C,SW9:0*%
X204861990Y-54810475D03*
D14*
X209864813Y-53928342D03*
D13*
X214867636Y-53046209D03*
D12*
X205671629Y-52088530D03*
X211484092Y-48484452D03*
%TD*%
D13*
%TO.C,SW3:3*%
X92654071Y-118394513D03*
D14*
X97656894Y-119276646D03*
D13*
X102659717Y-120158779D03*
D12*
X94345843Y-116113635D03*
X101040438Y-114714889D03*
%TD*%
D13*
%TO.C,SW4:3*%
X110497177Y-126617867D03*
D14*
X115500000Y-127500000D03*
D13*
X120502823Y-128382133D03*
D12*
X112188949Y-124336989D03*
X118883544Y-122938243D03*
%TD*%
D13*
%TO.C,SW6:0*%
X160836455Y-104130719D03*
D14*
X161718588Y-109133542D03*
D13*
X162600721Y-114136365D03*
D12*
X163558400Y-104940358D03*
X167162478Y-110752821D03*
%TD*%
D13*
%TO.C,SW9:2*%
X211460621Y-92233170D03*
D14*
X216463444Y-91351037D03*
D13*
X221466267Y-90468904D03*
D12*
X212270260Y-89511225D03*
X218082723Y-85907147D03*
%TD*%
D13*
%TO.C,SW10:3*%
X234339524Y-112569241D03*
D14*
X239342347Y-111687108D03*
D13*
X244345170Y-110804975D03*
D12*
X235149163Y-109847296D03*
X240961626Y-106243218D03*
%TD*%
D13*
%TO.C,SW7:0*%
X169349425Y-72241991D03*
D14*
X174352248Y-71359858D03*
D13*
X179355071Y-70477725D03*
D12*
X170159064Y-69520046D03*
X175971527Y-65915968D03*
%TD*%
D13*
%TO.C,SW0:3*%
X36172733Y-110466182D03*
D14*
X41175556Y-111348315D03*
D13*
X46178379Y-112230448D03*
D12*
X37864505Y-108185304D03*
X44559100Y-106786558D03*
%TD*%
D13*
%TO.C,SW2:2*%
X78283928Y-90475004D03*
D14*
X83286751Y-91357137D03*
D13*
X88289574Y-92239270D03*
D12*
X79975700Y-88194126D03*
X86670295Y-86795380D03*
%TD*%
D13*
%TO.C,SW4:1*%
X117095808Y-89195172D03*
D14*
X122098631Y-90077305D03*
D13*
X127101454Y-90959438D03*
D12*
X118787580Y-86914294D03*
X125482175Y-85515548D03*
%TD*%
D16*
%TO.C,J2*%
X146420000Y-98000000D03*
D17*
X148960000Y-98000000D03*
X151500000Y-98000000D03*
X154040000Y-98000000D03*
%TD*%
D16*
%TO.C,J3*%
X105000000Y-52040000D03*
D17*
X105000000Y-49500000D03*
%TD*%
%LPD*%
M02*
