%TF.GenerationSoftware,KiCad,Pcbnew,9.0.1*%
%TF.CreationDate,2025-05-05T23:15:36+01:00*%
%TF.ProjectId,keyboard,6b657962-6f61-4726-942e-6b696361645f,rev?*%
%TF.SameCoordinates,Original*%
%TF.FileFunction,Soldermask,Top*%
%TF.FilePolarity,Negative*%
%FSLAX46Y46*%
G04 Gerber Fmt 4.6, Leading zero omitted, Abs format (unit mm)*
G04 Created by KiCad (PCBNEW 9.0.1) date 2025-05-05 23:15:36*
%MOMM*%
%LPD*%
G01*
G04 APERTURE LIST*
G04 Aperture macros list*
%AMRoundRect*
0 Rectangle with rounded corners*
0 $1 Rounding radius*
0 $2 $3 $4 $5 $6 $7 $8 $9 X,Y pos of 4 corners*
0 Add a 4 corners polygon primitive as box body*
4,1,4,$2,$3,$4,$5,$6,$7,$8,$9,$2,$3,0*
0 Add four circle primitives for the rounded corners*
1,1,$1+$1,$2,$3*
1,1,$1+$1,$4,$5*
1,1,$1+$1,$6,$7*
1,1,$1+$1,$8,$9*
0 Add four rect primitives between the rounded corners*
20,1,$1+$1,$2,$3,$4,$5,0*
20,1,$1+$1,$4,$5,$6,$7,0*
20,1,$1+$1,$6,$7,$8,$9,0*
20,1,$1+$1,$8,$9,$2,$3,0*%
%AMRotRect*
0 Rectangle, with rotation*
0 The origin of the aperture is its center*
0 $1 length*
0 $2 width*
0 $3 Rotation angle, in degrees counterclockwise*
0 Add horizontal line*
21,1,$1,$2,0,0,$3*%
G04 Aperture macros list end*
%ADD10C,0.600000*%
%ADD11RoundRect,0.050000X-0.730000X-0.150000X0.730000X-0.150000X0.730000X0.150000X-0.730000X0.150000X0*%
%ADD12RoundRect,0.102000X0.350000X0.900000X-0.350000X0.900000X-0.350000X-0.900000X0.350000X-0.900000X0*%
%ADD13RoundRect,0.102000X0.400000X0.900000X-0.400000X0.900000X-0.400000X-0.900000X0.400000X-0.900000X0*%
%ADD14RoundRect,0.102000X0.450000X0.900000X-0.450000X0.900000X-0.450000X-0.900000X0.450000X-0.900000X0*%
%ADD15C,1.412000*%
%ADD16RoundRect,0.250000X-0.450000X0.350000X-0.450000X-0.350000X0.450000X-0.350000X0.450000X0.350000X0*%
%ADD17R,0.800000X0.300000*%
%ADD18R,0.300000X0.800000*%
%ADD19R,3.600000X3.600000*%
%ADD20C,2.000000*%
%ADD21C,2.500000*%
%ADD22C,1.750000*%
%ADD23C,4.000000*%
%ADD24RoundRect,0.250000X0.450000X-0.350000X0.450000X0.350000X-0.450000X0.350000X-0.450000X-0.350000X0*%
%ADD25C,3.800000*%
%ADD26RoundRect,0.105000X0.895000X0.245000X-0.895000X0.245000X-0.895000X-0.245000X0.895000X-0.245000X0*%
%ADD27RoundRect,0.105000X-0.245000X0.895000X-0.245000X-0.895000X0.245000X-0.895000X0.245000X0.895000X0*%
%ADD28RoundRect,0.105000X-0.895000X-0.245000X0.895000X-0.245000X0.895000X0.245000X-0.895000X0.245000X0*%
%ADD29RotRect,1.200000X1.200000X80.000000*%
%ADD30RotRect,1.200000X1.200000X100.000000*%
%ADD31RoundRect,0.250000X-0.350000X-0.450000X0.350000X-0.450000X0.350000X0.450000X-0.350000X0.450000X0*%
%ADD32RoundRect,0.250000X0.750000X-0.250000X0.750000X0.250000X-0.750000X0.250000X-0.750000X-0.250000X0*%
%ADD33RoundRect,0.250000X-0.450000X0.325000X-0.450000X-0.325000X0.450000X-0.325000X0.450000X0.325000X0*%
%ADD34RoundRect,0.250001X0.849999X-0.462499X0.849999X0.462499X-0.849999X0.462499X-0.849999X-0.462499X0*%
%ADD35RoundRect,0.250000X-0.337500X-0.475000X0.337500X-0.475000X0.337500X0.475000X-0.337500X0.475000X0*%
%ADD36RoundRect,0.250000X-0.475000X0.337500X-0.475000X-0.337500X0.475000X-0.337500X0.475000X0.337500X0*%
%ADD37RoundRect,0.250000X-0.250000X-0.750000X0.250000X-0.750000X0.250000X0.750000X-0.250000X0.750000X0*%
%ADD38RoundRect,0.225000X0.330232X-0.286700X0.408374X0.156464X-0.330232X0.286700X-0.408374X-0.156464X0*%
%ADD39RoundRect,0.250000X0.475000X-0.337500X0.475000X0.337500X-0.475000X0.337500X-0.475000X-0.337500X0*%
%ADD40RoundRect,0.250000X-0.325000X-0.450000X0.325000X-0.450000X0.325000X0.450000X-0.325000X0.450000X0*%
%ADD41RoundRect,0.250000X0.337500X0.475000X-0.337500X0.475000X-0.337500X-0.475000X0.337500X-0.475000X0*%
%ADD42RoundRect,0.150000X0.150000X-0.512500X0.150000X0.512500X-0.150000X0.512500X-0.150000X-0.512500X0*%
%ADD43R,1.700000X1.700000*%
%ADD44C,1.700000*%
G04 APERTURE END LIST*
D10*
X206207424Y-127616697D02*
X207117468Y-129487085D01*
X207117468Y-129487085D02*
X207432146Y-127980989D01*
X207432146Y-127980989D02*
X208242962Y-129288630D01*
X208242962Y-129288630D02*
X208458413Y-127219787D01*
X209931204Y-128990947D02*
X209583908Y-127021332D01*
X209683135Y-127584079D02*
X209774208Y-127277899D01*
X209774208Y-127277899D02*
X209890088Y-127112405D01*
X209890088Y-127112405D02*
X210146655Y-126922104D01*
X210146655Y-126922104D02*
X210428029Y-126872491D01*
X212182193Y-128594037D02*
X211876013Y-128502964D01*
X211876013Y-128502964D02*
X211685712Y-128246397D01*
X211685712Y-128246397D02*
X211239188Y-125714035D01*
X213142195Y-128279702D02*
X213448375Y-128370775D01*
X213448375Y-128370775D02*
X214011123Y-128271548D01*
X214011123Y-128271548D02*
X214267689Y-128081247D01*
X214267689Y-128081247D02*
X214358762Y-127775067D01*
X214358762Y-127775067D02*
X214333955Y-127634380D01*
X214333955Y-127634380D02*
X214143655Y-127377813D01*
X214143655Y-127377813D02*
X213837474Y-127286740D01*
X213837474Y-127286740D02*
X213415414Y-127361161D01*
X213415414Y-127361161D02*
X213109233Y-127270088D01*
X213109233Y-127270088D02*
X212918933Y-127013521D01*
X212918933Y-127013521D02*
X212894126Y-126872834D01*
X212894126Y-126872834D02*
X212985199Y-126566653D01*
X212985199Y-126566653D02*
X213241766Y-126376353D01*
X213241766Y-126376353D02*
X213663826Y-126301932D01*
X213663826Y-126301932D02*
X213970007Y-126393005D01*
X215045544Y-128379273D02*
X217296533Y-127982363D01*
X219216534Y-127353693D02*
X218943659Y-125806138D01*
X218943659Y-125806138D02*
X218753358Y-125549571D01*
X218753358Y-125549571D02*
X218447177Y-125458498D01*
X218447177Y-125458498D02*
X217884430Y-125557726D01*
X217884430Y-125557726D02*
X217627863Y-125748026D01*
X219191727Y-127213006D02*
X218935161Y-127403307D01*
X218935161Y-127403307D02*
X218231726Y-127527341D01*
X218231726Y-127527341D02*
X217925546Y-127436268D01*
X217925546Y-127436268D02*
X217735245Y-127179702D01*
X217735245Y-127179702D02*
X217685632Y-126898328D01*
X217685632Y-126898328D02*
X217776705Y-126592147D01*
X217776705Y-126592147D02*
X218033271Y-126401847D01*
X218033271Y-126401847D02*
X218736706Y-126277812D01*
X218736706Y-126277812D02*
X218993272Y-126087512D01*
X219854046Y-125210429D02*
X220979540Y-125011974D01*
X220102458Y-124151201D02*
X220548982Y-126683564D01*
X220548982Y-126683564D02*
X220739283Y-126940131D01*
X220739283Y-126940131D02*
X221045463Y-127031204D01*
X221045463Y-127031204D02*
X221326837Y-126981590D01*
X222311645Y-126807942D02*
X221964349Y-124838326D01*
X222063576Y-125401073D02*
X222154649Y-125094893D01*
X222154649Y-125094893D02*
X222270529Y-124929399D01*
X222270529Y-124929399D02*
X222527096Y-124739099D01*
X222527096Y-124739099D02*
X222808469Y-124689485D01*
X225241261Y-126146310D02*
X224984695Y-126336611D01*
X224984695Y-126336611D02*
X224421947Y-126435838D01*
X224421947Y-126435838D02*
X224115767Y-126344765D01*
X224115767Y-126344765D02*
X223925466Y-126088199D01*
X223925466Y-126088199D02*
X223727011Y-124962704D01*
X223727011Y-124962704D02*
X223818084Y-124656523D01*
X223818084Y-124656523D02*
X224074651Y-124466223D01*
X224074651Y-124466223D02*
X224637398Y-124366995D01*
X224637398Y-124366995D02*
X224943579Y-124458068D01*
X224943579Y-124458068D02*
X225133879Y-124714635D01*
X225133879Y-124714635D02*
X225183493Y-124996009D01*
X225183493Y-124996009D02*
X223826239Y-125525451D01*
X227591822Y-123846051D02*
X227939118Y-125815666D01*
X226325641Y-124069313D02*
X226598516Y-125616868D01*
X226598516Y-125616868D02*
X226788817Y-125873434D01*
X226788817Y-125873434D02*
X227094997Y-125964508D01*
X227094997Y-125964508D02*
X227517058Y-125890087D01*
X227517058Y-125890087D02*
X227773625Y-125699786D01*
X227773625Y-125699786D02*
X227889505Y-125534293D01*
X229180493Y-125451717D02*
X229486674Y-125542790D01*
X229486674Y-125542790D02*
X230049421Y-125443563D01*
X230049421Y-125443563D02*
X230305988Y-125253262D01*
X230305988Y-125253262D02*
X230397061Y-124947082D01*
X230397061Y-124947082D02*
X230372254Y-124806395D01*
X230372254Y-124806395D02*
X230181953Y-124549828D01*
X230181953Y-124549828D02*
X229875773Y-124458755D01*
X229875773Y-124458755D02*
X229453712Y-124533176D01*
X229453712Y-124533176D02*
X229147532Y-124442103D01*
X229147532Y-124442103D02*
X228957231Y-124185536D01*
X228957231Y-124185536D02*
X228932424Y-124044849D01*
X228932424Y-124044849D02*
X229023497Y-123738669D01*
X229023497Y-123738669D02*
X229280064Y-123548368D01*
X229280064Y-123548368D02*
X229702125Y-123473947D01*
X229702125Y-123473947D02*
X230008305Y-123565021D01*
X233359981Y-122828969D02*
X234410712Y-124674550D01*
X234410712Y-124674550D02*
X234766849Y-122580900D01*
X237787195Y-124079185D02*
X236098953Y-124376867D01*
X236943074Y-124228026D02*
X236422130Y-121273603D01*
X236422130Y-121273603D02*
X236215177Y-121745277D01*
X236215177Y-121745277D02*
X235983417Y-122076264D01*
X235983417Y-122076264D02*
X235726850Y-122266565D01*
X239003763Y-123574549D02*
X239169257Y-123690429D01*
X239169257Y-123690429D02*
X239053377Y-123855923D01*
X239053377Y-123855923D02*
X238887883Y-123740043D01*
X238887883Y-123740043D02*
X239003763Y-123574549D01*
X239003763Y-123574549D02*
X239053377Y-123855923D01*
X240502047Y-120554203D02*
X240783421Y-120504589D01*
X240783421Y-120504589D02*
X241089601Y-120595662D01*
X241089601Y-120595662D02*
X241255095Y-120711542D01*
X241255095Y-120711542D02*
X241445396Y-120968109D01*
X241445396Y-120968109D02*
X241685310Y-121506049D01*
X241685310Y-121506049D02*
X241809344Y-122209484D01*
X241809344Y-122209484D02*
X241767885Y-122797038D01*
X241767885Y-122797038D02*
X241676812Y-123103218D01*
X241676812Y-123103218D02*
X241560932Y-123268712D01*
X241560932Y-123268712D02*
X241304365Y-123459013D01*
X241304365Y-123459013D02*
X241022992Y-123508626D01*
X241022992Y-123508626D02*
X240716811Y-123417553D01*
X240716811Y-123417553D02*
X240551318Y-123301673D01*
X240551318Y-123301673D02*
X240361017Y-123045107D01*
X240361017Y-123045107D02*
X240121103Y-122507166D01*
X240121103Y-122507166D02*
X239997068Y-121803732D01*
X239997068Y-121803732D02*
X240038527Y-121216178D01*
X240038527Y-121216178D02*
X240129601Y-120909997D01*
X240129601Y-120909997D02*
X240245480Y-120744504D01*
X240245480Y-120744504D02*
X240502047Y-120554203D01*
X67659849Y-123744053D02*
X68180794Y-120789630D01*
X68180794Y-120789630D02*
X69306288Y-120988085D01*
X69306288Y-120988085D02*
X69562855Y-121178385D01*
X69562855Y-121178385D02*
X69678735Y-121343879D01*
X69678735Y-121343879D02*
X69769808Y-121650060D01*
X69769808Y-121650060D02*
X69695387Y-122072120D01*
X69695387Y-122072120D02*
X69505087Y-122328687D01*
X69505087Y-122328687D02*
X69339593Y-122444567D01*
X69339593Y-122444567D02*
X69033413Y-122535640D01*
X69033413Y-122535640D02*
X67907918Y-122337185D01*
X70614272Y-124264997D02*
X71135217Y-121310574D01*
X72302514Y-124562680D02*
X71334016Y-122651176D01*
X72823459Y-121608257D02*
X70837534Y-122998816D01*
X76150329Y-122484996D02*
X76315822Y-122369116D01*
X76315822Y-122369116D02*
X76622003Y-122278043D01*
X76622003Y-122278043D02*
X77325437Y-122402077D01*
X77325437Y-122402077D02*
X77582004Y-122592378D01*
X77582004Y-122592378D02*
X77697884Y-122757871D01*
X77697884Y-122757871D02*
X77788957Y-123064052D01*
X77788957Y-123064052D02*
X77739343Y-123345425D01*
X77739343Y-123345425D02*
X77524235Y-123742679D01*
X77524235Y-123742679D02*
X75538311Y-125133238D01*
X75538311Y-125133238D02*
X77367240Y-125455728D01*
X79717113Y-122823794D02*
X79998487Y-122873408D01*
X79998487Y-122873408D02*
X80255053Y-123063708D01*
X80255053Y-123063708D02*
X80370933Y-123229202D01*
X80370933Y-123229202D02*
X80462006Y-123535383D01*
X80462006Y-123535383D02*
X80503466Y-124122937D01*
X80503466Y-124122937D02*
X80379431Y-124826371D01*
X80379431Y-124826371D02*
X80139517Y-125364311D01*
X80139517Y-125364311D02*
X79949216Y-125620878D01*
X79949216Y-125620878D02*
X79783723Y-125736758D01*
X79783723Y-125736758D02*
X79477542Y-125827831D01*
X79477542Y-125827831D02*
X79196168Y-125778217D01*
X79196168Y-125778217D02*
X78939602Y-125587917D01*
X78939602Y-125587917D02*
X78823722Y-125422423D01*
X78823722Y-125422423D02*
X78732649Y-125116242D01*
X78732649Y-125116242D02*
X78691189Y-124528688D01*
X78691189Y-124528688D02*
X78815224Y-123825254D01*
X78815224Y-123825254D02*
X79055138Y-123287314D01*
X79055138Y-123287314D02*
X79245439Y-123030747D01*
X79245439Y-123030747D02*
X79410932Y-122914867D01*
X79410932Y-122914867D02*
X79717113Y-122823794D01*
X81777802Y-123477271D02*
X81943295Y-123361391D01*
X81943295Y-123361391D02*
X82249476Y-123270318D01*
X82249476Y-123270318D02*
X82952910Y-123394352D01*
X82952910Y-123394352D02*
X83209477Y-123584653D01*
X83209477Y-123584653D02*
X83325357Y-123750147D01*
X83325357Y-123750147D02*
X83416430Y-124056327D01*
X83416430Y-124056327D02*
X83366816Y-124337701D01*
X83366816Y-124337701D02*
X83151709Y-124734954D01*
X83151709Y-124734954D02*
X81165784Y-126125514D01*
X81165784Y-126125514D02*
X82994713Y-126448003D01*
X86188707Y-123964911D02*
X84781839Y-123716842D01*
X84781839Y-123716842D02*
X84393083Y-125098903D01*
X84393083Y-125098903D02*
X84558577Y-124983023D01*
X84558577Y-124983023D02*
X84864757Y-124891950D01*
X84864757Y-124891950D02*
X85568192Y-125015985D01*
X85568192Y-125015985D02*
X85824758Y-125206285D01*
X85824758Y-125206285D02*
X85940638Y-125371779D01*
X85940638Y-125371779D02*
X86031711Y-125677959D01*
X86031711Y-125677959D02*
X85907677Y-126381394D01*
X85907677Y-126381394D02*
X85717376Y-126637960D01*
X85717376Y-126637960D02*
X85551883Y-126753840D01*
X85551883Y-126753840D02*
X85245702Y-126844913D01*
X85245702Y-126844913D02*
X84542268Y-126720879D01*
X84542268Y-126720879D02*
X84285701Y-126530578D01*
X84285701Y-126530578D02*
X84169821Y-126365085D01*
D11*
%TO.C,Q1*%
X114380000Y-51525000D03*
X114380000Y-52175000D03*
X114380000Y-52825000D03*
X114380000Y-53475000D03*
X108620000Y-53475000D03*
X108620000Y-52825000D03*
X108620000Y-52175000D03*
X108620000Y-51525000D03*
%TD*%
D12*
%TO.C,U3*%
X140000000Y-52200000D03*
D13*
X137980000Y-52200000D03*
D14*
X136750000Y-52200000D03*
D12*
X139000000Y-52200000D03*
D13*
X141020000Y-52200000D03*
D14*
X142250000Y-52200000D03*
D15*
X143820000Y-47500000D03*
X143820000Y-47900000D03*
X143820000Y-48300000D03*
X143820000Y-51350000D03*
X143820000Y-51850000D03*
X135180000Y-47500000D03*
X135180000Y-47900000D03*
X135180000Y-48300000D03*
X135180000Y-51350000D03*
X135180000Y-51850000D03*
%TD*%
D16*
%TO.C,R8*%
X136000000Y-91000000D03*
X136000000Y-93000000D03*
%TD*%
D17*
%TO.C,IC2*%
X121600000Y-49500000D03*
X121600000Y-50000000D03*
X121600000Y-50500000D03*
X121600000Y-51000000D03*
X121600000Y-51500000D03*
X121600000Y-52000000D03*
X121600000Y-52500000D03*
X121600000Y-53000000D03*
D18*
X122300000Y-53700000D03*
X122800000Y-53700000D03*
X123300000Y-53700000D03*
X123800000Y-53700000D03*
X124300000Y-53700000D03*
X124800000Y-53700000D03*
X125300000Y-53700000D03*
X125800000Y-53700000D03*
D17*
X126500000Y-53000000D03*
X126500000Y-52500000D03*
X126500000Y-52000000D03*
X126500000Y-51500000D03*
X126500000Y-51000000D03*
X126500000Y-50500000D03*
X126500000Y-50000000D03*
X126500000Y-49500000D03*
D18*
X125800000Y-48800000D03*
X125300000Y-48800000D03*
X124800000Y-48800000D03*
X124300000Y-48800000D03*
X123800000Y-48800000D03*
X123300000Y-48800000D03*
X122800000Y-48800000D03*
X122300000Y-48800000D03*
D19*
X124050000Y-51250000D03*
%TD*%
D20*
%TO.C,J1*%
X190950000Y-50300000D03*
X193490000Y-50300000D03*
X196030000Y-50300000D03*
X196030000Y-47760000D03*
X193490000Y-47760000D03*
%TD*%
D21*
%TO.C,SW1:1*%
X70390022Y-69708756D03*
X63695427Y-71107502D03*
D22*
X72009301Y-75152646D03*
D23*
X67006478Y-74270513D03*
D22*
X62003655Y-73388380D03*
%TD*%
D24*
%TO.C,R2*%
X100451423Y-51645384D03*
X100451423Y-49645384D03*
%TD*%
D25*
%TO.C,H8*%
X80500000Y-48000000D03*
%TD*%
%TO.C,H7*%
X219000000Y-48000000D03*
%TD*%
%TO.C,H6*%
X142000000Y-72000000D03*
%TD*%
%TO.C,H5*%
X167000000Y-82000000D03*
%TD*%
%TO.C,H4*%
X150000000Y-103000000D03*
%TD*%
%TO.C,H3*%
X150000000Y-127000000D03*
%TD*%
%TO.C,H2*%
X52500000Y-120500000D03*
%TD*%
%TO.C,H1*%
X247500000Y-120500000D03*
%TD*%
D26*
%TO.C,U1*%
X147370000Y-53770000D03*
X147370000Y-55040000D03*
X147370000Y-56310000D03*
X147370000Y-57580000D03*
X147370000Y-58850000D03*
X147370000Y-60120000D03*
X147370000Y-61390000D03*
X147370000Y-62660000D03*
X147370000Y-63930000D03*
X147370000Y-65200000D03*
X147370000Y-66470000D03*
X147370000Y-67740000D03*
D27*
X148860000Y-70000000D03*
X150130000Y-70000000D03*
X151400000Y-70000000D03*
X152670000Y-70000000D03*
X153940000Y-70000000D03*
X155210000Y-70000000D03*
X156480000Y-70000000D03*
X157750000Y-70000000D03*
X159020000Y-70000000D03*
X160290000Y-70000000D03*
X161560000Y-70000000D03*
D28*
X163000000Y-67740000D03*
X163000000Y-66470000D03*
X163000000Y-65200000D03*
X163000000Y-63930000D03*
X163000000Y-62660000D03*
X163000000Y-61390000D03*
X163000000Y-60120000D03*
X163000000Y-58850000D03*
X163000000Y-57580000D03*
X163000000Y-56310000D03*
X163000000Y-55040000D03*
X163000000Y-53770000D03*
X163000000Y-52500000D03*
%TD*%
D29*
%TO.C,D1:0*%
X79062687Y-56937897D03*
X79548901Y-54180435D03*
%TD*%
D22*
%TO.C,SW11:2*%
X250272501Y-93513001D03*
D23*
X255275324Y-92630868D03*
D22*
X260278147Y-91748735D03*
D21*
X251082140Y-90791056D03*
X256894603Y-87186978D03*
%TD*%
D24*
%TO.C,R7*%
X183000000Y-52500000D03*
X183000000Y-54500000D03*
%TD*%
%TO.C,R4*%
X174000000Y-54500000D03*
X174000000Y-52500000D03*
%TD*%
D22*
%TO.C,SW6:1*%
X164135770Y-122835969D03*
D23*
X165017903Y-127838792D03*
D22*
X165900036Y-132841615D03*
D21*
X166857715Y-123645608D03*
X170461793Y-129458071D03*
%TD*%
D29*
%TO.C,D1:3*%
X69164741Y-113071938D03*
X69650955Y-110314476D03*
%TD*%
%TO.C,D0:1*%
X56531080Y-75304352D03*
X57017294Y-72546890D03*
%TD*%
%TO.C,D5:1*%
X143489185Y-129223623D03*
X143975399Y-126466161D03*
%TD*%
D30*
%TO.C,D8:1*%
X186737777Y-83226582D03*
X186251563Y-80469120D03*
%TD*%
D22*
%TO.C,SW7:2*%
X175948056Y-109664686D03*
D23*
X180950879Y-108782553D03*
D22*
X185953702Y-107900420D03*
D21*
X176757695Y-106942741D03*
X182570158Y-103338663D03*
%TD*%
D22*
%TO.C,SW0:1*%
X42771364Y-73043488D03*
D23*
X47774187Y-73925621D03*
D22*
X52777010Y-74807754D03*
D21*
X44463136Y-70762610D03*
X51157731Y-69363864D03*
%TD*%
D29*
%TO.C,D1:1*%
X75763371Y-75649244D03*
X76249585Y-72891782D03*
%TD*%
D22*
%TO.C,SW10:1*%
X227740894Y-75146546D03*
D23*
X232743717Y-74264413D03*
D22*
X237746540Y-73382280D03*
D21*
X228550533Y-72424601D03*
X234362996Y-68820523D03*
%TD*%
D31*
%TO.C,R1*%
X128500000Y-54500000D03*
X130500000Y-54500000D03*
%TD*%
D29*
%TO.C,D0:0*%
X59830395Y-56593004D03*
X60316609Y-53835542D03*
%TD*%
D22*
%TO.C,SW0:2*%
X39472048Y-91754835D03*
D23*
X44474871Y-92636968D03*
D22*
X49477694Y-93519101D03*
D21*
X41163820Y-89473957D03*
X47858415Y-88075211D03*
%TD*%
D30*
%TO.C,D11:2*%
X246518431Y-94009599D03*
X246032217Y-91252137D03*
%TD*%
D24*
%TO.C,R3*%
X108000000Y-49500000D03*
X108000000Y-47500000D03*
%TD*%
D22*
%TO.C,SW11:3*%
X253571816Y-112224348D03*
D23*
X258574639Y-111342215D03*
D22*
X263577462Y-110460082D03*
D21*
X254381455Y-109502403D03*
X260193918Y-105898325D03*
%TD*%
D30*
%TO.C,D8:3*%
X193336408Y-120649277D03*
X192850194Y-117891815D03*
%TD*%
D32*
%TO.C,J11*%
X143000000Y-65500000D03*
%TD*%
D33*
%TO.C,D2*%
X174000000Y-47975000D03*
X174000000Y-50025000D03*
%TD*%
D22*
%TO.C,SW8:0*%
X187192532Y-64018637D03*
D23*
X192195355Y-63136504D03*
D22*
X197198178Y-62254371D03*
D21*
X188002171Y-61296692D03*
X193814634Y-57692614D03*
%TD*%
D34*
%TO.C,L1*%
X117144373Y-51808774D03*
X117144373Y-49483774D03*
%TD*%
D30*
%TO.C,D7:0*%
X165595355Y-72738589D03*
X165109141Y-69981127D03*
%TD*%
D32*
%TO.C,J12*%
X143000000Y-63000000D03*
%TD*%
D22*
%TO.C,SW9:1*%
X208161305Y-73521823D03*
D23*
X213164128Y-72639690D03*
D22*
X218166951Y-71757557D03*
D21*
X208970944Y-70799878D03*
X214783407Y-67195800D03*
%TD*%
D30*
%TO.C,D9:0*%
X201107920Y-55307073D03*
X200621706Y-52549611D03*
%TD*%
%TO.C,D11:3*%
X249817746Y-112720946D03*
X249331532Y-109963484D03*
%TD*%
D32*
%TO.C,J10*%
X143000000Y-67000000D03*
%TD*%
D22*
%TO.C,SW2:0*%
X84882559Y-53052309D03*
D23*
X89885382Y-53934442D03*
D22*
X94888205Y-54816575D03*
D21*
X86574331Y-50771431D03*
X93268926Y-49372685D03*
%TD*%
D30*
%TO.C,D7:3*%
X175493302Y-128872631D03*
X175007088Y-126115169D03*
%TD*%
D22*
%TO.C,SW0:0*%
X46070679Y-54332140D03*
D23*
X51073502Y-55214273D03*
D22*
X56076325Y-56096406D03*
D21*
X47762451Y-52051262D03*
X54457046Y-50652516D03*
%TD*%
D29*
%TO.C,D5:0*%
X146756893Y-113192213D03*
X147243107Y-110434751D03*
%TD*%
D35*
%TO.C,C3*%
X118925000Y-46927985D03*
X121000000Y-46927985D03*
%TD*%
D22*
%TO.C,SW2:1*%
X81583244Y-71763656D03*
D23*
X86586067Y-72645789D03*
D22*
X91588890Y-73527922D03*
D21*
X83275016Y-69482778D03*
X89969611Y-68084032D03*
%TD*%
D30*
%TO.C,D10:0*%
X220687508Y-56931797D03*
X220201294Y-54174335D03*
%TD*%
%TO.C,D7:2*%
X172193986Y-110161284D03*
X171707772Y-107403822D03*
%TD*%
D22*
%TO.C,SW3:1*%
X99252702Y-80971818D03*
D23*
X104255525Y-81853951D03*
D22*
X109258348Y-82736084D03*
D21*
X100944474Y-78690940D03*
X107639069Y-77292194D03*
%TD*%
D22*
%TO.C,SW8:3*%
X197090478Y-120152679D03*
D23*
X202093301Y-119270546D03*
D22*
X207096124Y-118388413D03*
D21*
X197900117Y-117430734D03*
X203712580Y-113826656D03*
%TD*%
D22*
%TO.C,SW4:2*%
X113796493Y-107906520D03*
D23*
X118799316Y-108788653D03*
D22*
X123802139Y-109670786D03*
D21*
X115488265Y-105625642D03*
X122182860Y-104226896D03*
%TD*%
D29*
%TO.C,D4:3*%
X124256893Y-128878731D03*
X124743107Y-126121269D03*
%TD*%
D22*
%TO.C,SW1:3*%
X55405025Y-110811074D03*
D23*
X60407848Y-111693207D03*
D22*
X65410671Y-112575340D03*
D21*
X57096797Y-108530196D03*
X63791392Y-107131450D03*
%TD*%
D22*
%TO.C,SW1:2*%
X58704340Y-92099727D03*
D23*
X63707163Y-92981860D03*
D22*
X68709986Y-93863993D03*
D21*
X60396112Y-89818849D03*
X67090707Y-88420103D03*
%TD*%
D29*
%TO.C,D2:3*%
X88744329Y-111447215D03*
X89230543Y-108689753D03*
%TD*%
D36*
%TO.C,C5*%
X124632741Y-56194947D03*
X124632741Y-58269947D03*
%TD*%
D30*
%TO.C,D10:2*%
X227286139Y-94354491D03*
X226799925Y-91597029D03*
%TD*%
D32*
%TO.C,J13*%
X143000000Y-61500000D03*
%TD*%
D30*
%TO.C,D9:1*%
X204407235Y-74018421D03*
X203921021Y-71260959D03*
%TD*%
D22*
%TO.C,SW1:0*%
X65302971Y-54677033D03*
D23*
X70305794Y-55559166D03*
D22*
X75308617Y-56441299D03*
D21*
X66994743Y-52396155D03*
X73689338Y-50997409D03*
%TD*%
D37*
%TO.C,J18*%
X119000000Y-57500000D03*
%TD*%
D22*
%TO.C,SW10:0*%
X224441578Y-56435199D03*
D23*
X229444401Y-55553066D03*
D22*
X234447224Y-54670933D03*
D21*
X225251217Y-53713254D03*
X231063680Y-50109176D03*
%TD*%
D29*
%TO.C,D3:3*%
X106413787Y-120655377D03*
X106900001Y-117897915D03*
%TD*%
D22*
%TO.C,SW5:1*%
X133850159Y-132847715D03*
D23*
X134732292Y-127844892D03*
D22*
X135614425Y-122842069D03*
D21*
X131569281Y-131155943D03*
X130170535Y-124461348D03*
%TD*%
D30*
%TO.C,D11:1*%
X243219115Y-75298252D03*
X242732901Y-72540790D03*
%TD*%
D29*
%TO.C,D0:3*%
X49932449Y-112727046D03*
X50418663Y-109969584D03*
%TD*%
%TO.C,D1:2*%
X72464056Y-94360591D03*
X72950270Y-91603129D03*
%TD*%
D22*
%TO.C,SW11:1*%
X246973185Y-74801654D03*
D23*
X251976008Y-73919521D03*
D22*
X256978831Y-73037388D03*
D21*
X247782824Y-72079709D03*
X253595287Y-68475631D03*
%TD*%
D33*
%TO.C,D5*%
X183000000Y-47975000D03*
X183000000Y-50025000D03*
%TD*%
D22*
%TO.C,SW4:0*%
X120395124Y-70483825D03*
D23*
X125397947Y-71365958D03*
D22*
X130400770Y-72248091D03*
D21*
X122086896Y-68202947D03*
X128781491Y-66804201D03*
%TD*%
D38*
%TO.C,D2:0*%
X98213481Y-57124933D03*
X98786519Y-53875067D03*
%TD*%
D22*
%TO.C,SW10:2*%
X231040209Y-93857893D03*
D23*
X236043032Y-92975760D03*
D22*
X241045855Y-92093627D03*
D21*
X231849848Y-91135948D03*
X237662311Y-87531870D03*
%TD*%
D22*
%TO.C,SW5:0*%
X137149474Y-114136365D03*
D23*
X138031607Y-109133542D03*
D22*
X138913740Y-104130719D03*
D21*
X134868596Y-112444593D03*
X133469850Y-105749998D03*
%TD*%
D22*
%TO.C,SW11:0*%
X243673870Y-56090307D03*
D23*
X248676693Y-55208174D03*
D22*
X253679516Y-54326041D03*
D21*
X244483509Y-53368362D03*
X250295972Y-49764284D03*
%TD*%
D29*
%TO.C,D4:0*%
X134154840Y-72744689D03*
X134641054Y-69987227D03*
%TD*%
D24*
%TO.C,R6*%
X180000000Y-54500000D03*
X180000000Y-52500000D03*
%TD*%
D22*
%TO.C,SW3:0*%
X102552017Y-62260471D03*
D23*
X107554840Y-63142604D03*
D22*
X112557663Y-64024737D03*
D21*
X104243789Y-59979593D03*
X110938384Y-58580847D03*
%TD*%
D30*
%TO.C,D9:3*%
X211005866Y-111441115D03*
X210519652Y-108683653D03*
%TD*%
%TO.C,D7:1*%
X168894671Y-91449937D03*
X168408457Y-88692475D03*
%TD*%
D22*
%TO.C,SW8:1*%
X190491847Y-82729984D03*
D23*
X195494670Y-81847851D03*
D22*
X200497493Y-80965718D03*
D21*
X191301486Y-80008039D03*
X197113949Y-76403961D03*
%TD*%
D29*
%TO.C,D4:1*%
X130855524Y-91456036D03*
X131341738Y-88698574D03*
%TD*%
D22*
%TO.C,SW3:2*%
X95953386Y-99683166D03*
D23*
X100956209Y-100565299D03*
D22*
X105959032Y-101447432D03*
D21*
X97645158Y-97402288D03*
X104339753Y-96003542D03*
%TD*%
D22*
%TO.C,SW8:2*%
X193791163Y-101441332D03*
D23*
X198793986Y-100559199D03*
D22*
X203796809Y-99677066D03*
D21*
X194600802Y-98719387D03*
X200413265Y-95115309D03*
%TD*%
D37*
%TO.C,J14*%
X119000000Y-60500000D03*
%TD*%
D22*
%TO.C,SW7:3*%
X179247372Y-128376033D03*
D23*
X184250195Y-127493900D03*
D22*
X189253018Y-126611767D03*
D21*
X180057011Y-125654088D03*
X185869474Y-122050010D03*
%TD*%
D22*
%TO.C,SW9:3*%
X214759936Y-110944517D03*
D23*
X219762759Y-110062384D03*
D22*
X224765582Y-109180251D03*
D21*
X215569575Y-108222572D03*
X221382038Y-104618494D03*
%TD*%
D39*
%TO.C,C1*%
X119588866Y-52849252D03*
X119588866Y-50774252D03*
%TD*%
D40*
%TO.C,D1*%
X128976133Y-47279634D03*
X131026133Y-47279634D03*
%TD*%
D22*
%TO.C,SW2:3*%
X74984613Y-109186351D03*
D23*
X79987436Y-110068484D03*
D22*
X84990259Y-110950617D03*
D21*
X76676385Y-106905473D03*
X83370980Y-105506727D03*
%TD*%
D24*
%TO.C,R5*%
X177000000Y-54500000D03*
X177000000Y-52500000D03*
%TD*%
D29*
%TO.C,D2:2*%
X92043644Y-92735868D03*
X92529858Y-89978406D03*
%TD*%
D22*
%TO.C,SW7:1*%
X172648741Y-90953339D03*
D23*
X177651564Y-90071206D03*
D22*
X182654387Y-89189073D03*
D21*
X173458380Y-88231394D03*
X179270843Y-84627316D03*
%TD*%
D30*
%TO.C,D11:0*%
X239919800Y-56586905D03*
X239433586Y-53829443D03*
%TD*%
D41*
%TO.C,C4*%
X144575000Y-57500000D03*
X142500000Y-57500000D03*
%TD*%
D29*
%TO.C,D3:0*%
X116311733Y-64521335D03*
X116797947Y-61763873D03*
%TD*%
%TO.C,D3:1*%
X113012418Y-83232682D03*
X113498632Y-80475220D03*
%TD*%
D22*
%TO.C,SW9:0*%
X204861990Y-54810475D03*
D23*
X209864813Y-53928342D03*
D22*
X214867636Y-53046209D03*
D21*
X205671629Y-52088530D03*
X211484092Y-48484452D03*
%TD*%
D22*
%TO.C,SW3:3*%
X92654071Y-118394513D03*
D23*
X97656894Y-119276646D03*
D22*
X102659717Y-120158779D03*
D21*
X94345843Y-116113635D03*
X101040438Y-114714889D03*
%TD*%
D37*
%TO.C,J16*%
X123000000Y-60500000D03*
%TD*%
D22*
%TO.C,SW4:3*%
X110497177Y-126617867D03*
D23*
X115500000Y-127500000D03*
D22*
X120502823Y-128382133D03*
D21*
X112188949Y-124336989D03*
X118883544Y-122938243D03*
%TD*%
D30*
%TO.C,D8:0*%
X183438462Y-64515235D03*
X182952248Y-61757773D03*
%TD*%
D22*
%TO.C,SW6:0*%
X160836455Y-104130719D03*
D23*
X161718588Y-109133542D03*
D22*
X162600721Y-114136365D03*
D21*
X163558400Y-104940358D03*
X167162478Y-110752821D03*
%TD*%
D30*
%TO.C,D10:1*%
X223986824Y-75643144D03*
X223500610Y-72885682D03*
%TD*%
D22*
%TO.C,SW9:2*%
X211460621Y-92233170D03*
D23*
X216463444Y-91351037D03*
D22*
X221466267Y-90468904D03*
D21*
X212270260Y-89511225D03*
X218082723Y-85907147D03*
%TD*%
D37*
%TO.C,J15*%
X121000000Y-60500000D03*
%TD*%
D29*
%TO.C,D4:2*%
X127556209Y-110167384D03*
X128042423Y-107409922D03*
%TD*%
D33*
%TO.C,D3*%
X177000000Y-47975000D03*
X177000000Y-50025000D03*
%TD*%
D29*
%TO.C,D0:2*%
X53231764Y-94015699D03*
X53717978Y-91258237D03*
%TD*%
D30*
%TO.C,D6:1*%
X156261010Y-129217523D03*
X155774796Y-126460061D03*
%TD*%
%TO.C,D8:2*%
X190037093Y-101937930D03*
X189550879Y-99180468D03*
%TD*%
D22*
%TO.C,SW10:3*%
X234339524Y-112569241D03*
D23*
X239342347Y-111687108D03*
D22*
X244345170Y-110804975D03*
D21*
X235149163Y-109847296D03*
X240961626Y-106243218D03*
%TD*%
D32*
%TO.C,J9*%
X143000000Y-68500000D03*
%TD*%
D22*
%TO.C,SW7:0*%
X169349425Y-72241991D03*
D23*
X174352248Y-71359858D03*
D22*
X179355071Y-70477725D03*
D21*
X170159064Y-69520046D03*
X175971527Y-65915968D03*
%TD*%
D42*
%TO.C,U2*%
X110472935Y-49494760D03*
X111422935Y-49494760D03*
X112372935Y-49494760D03*
X112372935Y-47219760D03*
X111422935Y-47219760D03*
X110472935Y-47219760D03*
%TD*%
D22*
%TO.C,SW0:3*%
X36172733Y-110466182D03*
D23*
X41175556Y-111348315D03*
D22*
X46178379Y-112230448D03*
D21*
X37864505Y-108185304D03*
X44559100Y-106786558D03*
%TD*%
D29*
%TO.C,D2:1*%
X95342960Y-74024520D03*
X95829174Y-71267058D03*
%TD*%
%TO.C,D3:2*%
X109713102Y-101944030D03*
X110199316Y-99186568D03*
%TD*%
D22*
%TO.C,SW2:2*%
X78283928Y-90475004D03*
D23*
X83286751Y-91357137D03*
D22*
X88289574Y-92239270D03*
D21*
X79975700Y-88194126D03*
X86670295Y-86795380D03*
%TD*%
D37*
%TO.C,J17*%
X121000000Y-57500000D03*
%TD*%
D35*
%TO.C,C2*%
X128925000Y-50000000D03*
X131000000Y-50000000D03*
%TD*%
D30*
%TO.C,D6:0*%
X152743107Y-112878731D03*
X152256893Y-110121269D03*
%TD*%
D33*
%TO.C,D4*%
X180000000Y-47975000D03*
X180000000Y-50025000D03*
%TD*%
D30*
%TO.C,D9:2*%
X207706551Y-92729768D03*
X207220337Y-89972306D03*
%TD*%
%TO.C,D10:3*%
X230585454Y-113065839D03*
X230099240Y-110308377D03*
%TD*%
D22*
%TO.C,SW4:1*%
X117095808Y-89195172D03*
D23*
X122098631Y-90077305D03*
D22*
X127101454Y-90959438D03*
D21*
X118787580Y-86914294D03*
X125482175Y-85515548D03*
%TD*%
D43*
%TO.C,J2*%
X146420000Y-98000000D03*
D44*
X148960000Y-98000000D03*
X151500000Y-98000000D03*
X154040000Y-98000000D03*
%TD*%
D43*
%TO.C,J3*%
X105000000Y-52040000D03*
D44*
X105000000Y-49500000D03*
%TD*%
M02*
