%TF.GenerationSoftware,KiCad,Pcbnew,9.0.1*%
%TF.CreationDate,2025-05-05T23:15:39+01:00*%
%TF.ProjectId,keyboard,6b657962-6f61-4726-942e-6b696361645f,rev?*%
%TF.SameCoordinates,Original*%
%TF.FileFunction,Drillmap*%
%TF.FilePolarity,Positive*%
%FSLAX45Y45*%
G04 Gerber Fmt 4.5, Leading zero omitted, Abs format (unit mm)*
G04 Created by KiCad (PCBNEW 9.0.1) date 2025-05-05 23:15:39*
%MOMM*%
%LPD*%
G01*
G04 APERTURE LIST*
%ADD10C,0.050000*%
%ADD11C,0.200000*%
%ADD12C,0.175000*%
%ADD13C,0.400000*%
G04 APERTURE END LIST*
D10*
X25543190Y-4736003D02*
X26809992Y-11658168D01*
X26407089Y-12233900D01*
X17500000Y-13750000D01*
X12500000Y-13750000D01*
X3491727Y-12090581D01*
X3098058Y-11509710D01*
X4458621Y-4706893D01*
X4710990Y-4500000D01*
X25260077Y-4500000D01*
X25543190Y-4736003D01*
D11*
D12*
X3529773Y-10959118D02*
X3704773Y-11134118D01*
X3704773Y-10959118D02*
X3529773Y-11134118D01*
X3859705Y-9087984D02*
X4034705Y-9262984D01*
X4034705Y-9087984D02*
X3859705Y-9262984D01*
X4189636Y-7216849D02*
X4364636Y-7391849D01*
X4364636Y-7216849D02*
X4189636Y-7391849D01*
X4519568Y-5345714D02*
X4694568Y-5520714D01*
X4694568Y-5345714D02*
X4519568Y-5520714D01*
X4530338Y-11135545D02*
X4705338Y-11310545D01*
X4705338Y-11135545D02*
X4530338Y-11310545D01*
X4860269Y-9264410D02*
X5035269Y-9439410D01*
X5035269Y-9264410D02*
X4860269Y-9439410D01*
X5190201Y-7393275D02*
X5365201Y-7568275D01*
X5365201Y-7393275D02*
X5190201Y-7568275D01*
X5453003Y-10993607D02*
X5628002Y-11168607D01*
X5628002Y-10993607D02*
X5453003Y-11168607D01*
X5520133Y-5522141D02*
X5695132Y-5697141D01*
X5695132Y-5522141D02*
X5520133Y-5697141D01*
X5782934Y-9122473D02*
X5957934Y-9297473D01*
X5957934Y-9122473D02*
X5782934Y-9297473D01*
X6112865Y-7251338D02*
X6287865Y-7426338D01*
X6287865Y-7251338D02*
X6112865Y-7426338D01*
X6442797Y-5380203D02*
X6617797Y-5555203D01*
X6617797Y-5380203D02*
X6442797Y-5555203D01*
X6453567Y-11170034D02*
X6628567Y-11345034D01*
X6628567Y-11170034D02*
X6453567Y-11345034D01*
X6783499Y-9298899D02*
X6958499Y-9473899D01*
X6958499Y-9298899D02*
X6783499Y-9473899D01*
X7113430Y-7427765D02*
X7288430Y-7602765D01*
X7288430Y-7427765D02*
X7113430Y-7602765D01*
X7410961Y-10831135D02*
X7585961Y-11006135D01*
X7585961Y-10831135D02*
X7410961Y-11006135D01*
X7443362Y-5556630D02*
X7618362Y-5731630D01*
X7618362Y-5556630D02*
X7443362Y-5731630D01*
X7740893Y-8960000D02*
X7915893Y-9135000D01*
X7915893Y-8960000D02*
X7740893Y-9135000D01*
X8070824Y-7088866D02*
X8245824Y-7263866D01*
X8245824Y-7088866D02*
X8070824Y-7263866D01*
X8400756Y-5217731D02*
X8575756Y-5392731D01*
X8575756Y-5217731D02*
X8400756Y-5392731D01*
X8411526Y-11007562D02*
X8586526Y-11182562D01*
X8586526Y-11007562D02*
X8411526Y-11182562D01*
X8741457Y-9136427D02*
X8916457Y-9311427D01*
X8916457Y-9136427D02*
X8741457Y-9311427D01*
X9071389Y-7265292D02*
X9246389Y-7440292D01*
X9246389Y-7265292D02*
X9071389Y-7440292D01*
X9177907Y-11751951D02*
X9352907Y-11926951D01*
X9352907Y-11751951D02*
X9177907Y-11926951D01*
X9401321Y-5394158D02*
X9576321Y-5569158D01*
X9576321Y-5394158D02*
X9401321Y-5569158D01*
X9507839Y-9880817D02*
X9682839Y-10055817D01*
X9682839Y-9880817D02*
X9507839Y-10055817D01*
X9837770Y-8009682D02*
X10012770Y-8184682D01*
X10012770Y-8009682D02*
X9837770Y-8184682D01*
X10167702Y-6138547D02*
X10342702Y-6313547D01*
X10342702Y-6138547D02*
X10167702Y-6313547D01*
X10178472Y-11928378D02*
X10353472Y-12103378D01*
X10353472Y-11928378D02*
X10178472Y-12103378D01*
X10508403Y-10057243D02*
X10683403Y-10232243D01*
X10683403Y-10057243D02*
X10508403Y-10232243D01*
X10838335Y-8186108D02*
X11013335Y-8361108D01*
X11013335Y-8186108D02*
X10838335Y-8361108D01*
X10962218Y-12574287D02*
X11137218Y-12749287D01*
X11137218Y-12574287D02*
X10962218Y-12749287D01*
X11168266Y-6314974D02*
X11343266Y-6489974D01*
X11343266Y-6314974D02*
X11168266Y-6489974D01*
X11292149Y-10703152D02*
X11467149Y-10878152D01*
X11467149Y-10703152D02*
X11292149Y-10878152D01*
X11622081Y-8832017D02*
X11797081Y-9007017D01*
X11797081Y-8832017D02*
X11622081Y-9007017D01*
X11952012Y-6960882D02*
X12127012Y-7135882D01*
X12127012Y-6960882D02*
X11952012Y-7135882D01*
X11962782Y-12750713D02*
X12137782Y-12925713D01*
X12137782Y-12750713D02*
X11962782Y-12925713D01*
X12292714Y-10879579D02*
X12467714Y-11054579D01*
X12467714Y-10879579D02*
X12292714Y-11054579D01*
X12622645Y-9008444D02*
X12797645Y-9183444D01*
X12797645Y-9008444D02*
X12622645Y-9183444D01*
X12952577Y-7137309D02*
X13127577Y-7312309D01*
X13127577Y-7137309D02*
X12952577Y-7312309D01*
X13297516Y-13197271D02*
X13472516Y-13372271D01*
X13472516Y-13197271D02*
X13297516Y-13372271D01*
X13473942Y-12196707D02*
X13648942Y-12371707D01*
X13648942Y-12196707D02*
X13473942Y-12371707D01*
X13627447Y-11326136D02*
X13802447Y-11501136D01*
X13802447Y-11326136D02*
X13627447Y-11501136D01*
X13803874Y-10325572D02*
X13978874Y-10500572D01*
X13978874Y-10325572D02*
X13803874Y-10500572D01*
X15996145Y-10325572D02*
X16171145Y-10500572D01*
X16171145Y-10325572D02*
X15996145Y-10500572D01*
X16172572Y-11326136D02*
X16347572Y-11501136D01*
X16347572Y-11326136D02*
X16172572Y-11501136D01*
X16326077Y-12196097D02*
X16501077Y-12371097D01*
X16501077Y-12196097D02*
X16326077Y-12371097D01*
X16502504Y-13196661D02*
X16677504Y-13371661D01*
X16677504Y-13196661D02*
X16502504Y-13371661D01*
X16847443Y-7136699D02*
X17022443Y-7311699D01*
X17022443Y-7136699D02*
X16847443Y-7311699D01*
X17177374Y-9007834D02*
X17352374Y-9182834D01*
X17352374Y-9007834D02*
X17177374Y-9182834D01*
X17507306Y-10878969D02*
X17682306Y-11053969D01*
X17682306Y-10878969D02*
X17507306Y-11053969D01*
X17837237Y-12750103D02*
X18012237Y-12925103D01*
X18012237Y-12750103D02*
X17837237Y-12925103D01*
X17848007Y-6960272D02*
X18023007Y-7135272D01*
X18023007Y-6960272D02*
X17848007Y-7135272D01*
X18177939Y-8831407D02*
X18352939Y-9006407D01*
X18352939Y-8831407D02*
X18177939Y-9006407D01*
X18507870Y-10702542D02*
X18682870Y-10877542D01*
X18682870Y-10702542D02*
X18507870Y-10877542D01*
X18631753Y-6314364D02*
X18806753Y-6489364D01*
X18806753Y-6314364D02*
X18631753Y-6489364D01*
X18837802Y-12573677D02*
X19012802Y-12748677D01*
X19012802Y-12573677D02*
X18837802Y-12748677D01*
X18961685Y-8185498D02*
X19136685Y-8360498D01*
X19136685Y-8185498D02*
X18961685Y-8360498D01*
X19291616Y-10056633D02*
X19466616Y-10231633D01*
X19466616Y-10056633D02*
X19291616Y-10231633D01*
X19621548Y-11927768D02*
X19796548Y-12102768D01*
X19796548Y-11927768D02*
X19621548Y-12102768D01*
X19632318Y-6137937D02*
X19807318Y-6312937D01*
X19807318Y-6137937D02*
X19632318Y-6312937D01*
X19962249Y-8009072D02*
X20137249Y-8184072D01*
X20137249Y-8009072D02*
X19962249Y-8184072D01*
X20292181Y-9880207D02*
X20467181Y-10055207D01*
X20467181Y-9880207D02*
X20292181Y-10055207D01*
X20398699Y-5393548D02*
X20573699Y-5568548D01*
X20573699Y-5393548D02*
X20398699Y-5568548D01*
X20622112Y-11751341D02*
X20797112Y-11926341D01*
X20797112Y-11751341D02*
X20622112Y-11926341D01*
X20728631Y-7264682D02*
X20903631Y-7439682D01*
X20903631Y-7264682D02*
X20728631Y-7439682D01*
X21058562Y-9135817D02*
X21233562Y-9310817D01*
X21233562Y-9135817D02*
X21058562Y-9310817D01*
X21388494Y-11006952D02*
X21563494Y-11181952D01*
X21563494Y-11006952D02*
X21388494Y-11181952D01*
X21399264Y-5217121D02*
X21574264Y-5392121D01*
X21574264Y-5217121D02*
X21399264Y-5392121D01*
X21729195Y-7088256D02*
X21904195Y-7263256D01*
X21904195Y-7088256D02*
X21729195Y-7263256D01*
X22059127Y-8959390D02*
X22234127Y-9134390D01*
X22234127Y-8959390D02*
X22059127Y-9134390D01*
X22356658Y-5556020D02*
X22531658Y-5731020D01*
X22531658Y-5556020D02*
X22356658Y-5731020D01*
X22389058Y-10830525D02*
X22564058Y-11005525D01*
X22564058Y-10830525D02*
X22389058Y-11005525D01*
X22686589Y-7427155D02*
X22861589Y-7602155D01*
X22861589Y-7427155D02*
X22686589Y-7602155D01*
X23016521Y-9298289D02*
X23191521Y-9473289D01*
X23191521Y-9298289D02*
X23016521Y-9473289D01*
X23346452Y-11169424D02*
X23521452Y-11344424D01*
X23521452Y-11169424D02*
X23346452Y-11344424D01*
X23357222Y-5379593D02*
X23532222Y-5554593D01*
X23532222Y-5379593D02*
X23357222Y-5554593D01*
X23687154Y-7250728D02*
X23862154Y-7425728D01*
X23862154Y-7250728D02*
X23687154Y-7425728D01*
X24017085Y-9121863D02*
X24192085Y-9296863D01*
X24192085Y-9121863D02*
X24017085Y-9296863D01*
X24279887Y-5521531D02*
X24454887Y-5696531D01*
X24454887Y-5521531D02*
X24279887Y-5696531D01*
X24347017Y-10992998D02*
X24522017Y-11167998D01*
X24522017Y-10992998D02*
X24347017Y-11167998D01*
X24609818Y-7392665D02*
X24784818Y-7567665D01*
X24784818Y-7392665D02*
X24609818Y-7567665D01*
X24939750Y-9263800D02*
X25114750Y-9438800D01*
X25114750Y-9263800D02*
X24939750Y-9438800D01*
X25269682Y-11134935D02*
X25444682Y-11309935D01*
X25444682Y-11134935D02*
X25269682Y-11309935D01*
X25280452Y-5345104D02*
X25455452Y-5520104D01*
X25455452Y-5345104D02*
X25280452Y-5520104D01*
X25610383Y-7216239D02*
X25785383Y-7391239D01*
X25785383Y-7216239D02*
X25610383Y-7391239D01*
X25940315Y-9087374D02*
X26115315Y-9262374D01*
X26115315Y-9087374D02*
X25940315Y-9262374D01*
X26270246Y-10958508D02*
X26445246Y-11133508D01*
X26445246Y-10958508D02*
X26270246Y-11133508D01*
D13*
X4317556Y-11134832D02*
G75*
G02*
X3917556Y-11134832I-200000J0D01*
G01*
X3917556Y-11134832D02*
G75*
G02*
X4317556Y-11134832I200000J0D01*
G01*
X4647487Y-9263697D02*
G75*
G02*
X4247487Y-9263697I-200000J0D01*
G01*
X4247487Y-9263697D02*
G75*
G02*
X4647487Y-9263697I200000J0D01*
G01*
X4977419Y-7392562D02*
G75*
G02*
X4577419Y-7392562I-200000J0D01*
G01*
X4577419Y-7392562D02*
G75*
G02*
X4977419Y-7392562I200000J0D01*
G01*
X5307350Y-5521427D02*
G75*
G02*
X4907350Y-5521427I-200000J0D01*
G01*
X4907350Y-5521427D02*
G75*
G02*
X5307350Y-5521427I200000J0D01*
G01*
X6240785Y-11169321D02*
G75*
G02*
X5840785Y-11169321I-200000J0D01*
G01*
X5840785Y-11169321D02*
G75*
G02*
X6240785Y-11169321I200000J0D01*
G01*
X6570716Y-9298186D02*
G75*
G02*
X6170716Y-9298186I-200000J0D01*
G01*
X6170716Y-9298186D02*
G75*
G02*
X6570716Y-9298186I200000J0D01*
G01*
X6900648Y-7427051D02*
G75*
G02*
X6500648Y-7427051I-200000J0D01*
G01*
X6500648Y-7427051D02*
G75*
G02*
X6900648Y-7427051I200000J0D01*
G01*
X7230579Y-5555917D02*
G75*
G02*
X6830579Y-5555917I-200000J0D01*
G01*
X6830579Y-5555917D02*
G75*
G02*
X7230579Y-5555917I200000J0D01*
G01*
X8198744Y-11006848D02*
G75*
G02*
X7798744Y-11006848I-200000J0D01*
G01*
X7798744Y-11006848D02*
G75*
G02*
X8198744Y-11006848I200000J0D01*
G01*
X8528675Y-9135714D02*
G75*
G02*
X8128675Y-9135714I-200000J0D01*
G01*
X8128675Y-9135714D02*
G75*
G02*
X8528675Y-9135714I200000J0D01*
G01*
X8858607Y-7264579D02*
G75*
G02*
X8458607Y-7264579I-200000J0D01*
G01*
X8458607Y-7264579D02*
G75*
G02*
X8858607Y-7264579I200000J0D01*
G01*
X9188538Y-5393444D02*
G75*
G02*
X8788538Y-5393444I-200000J0D01*
G01*
X8788538Y-5393444D02*
G75*
G02*
X9188538Y-5393444I200000J0D01*
G01*
X9965689Y-11927665D02*
G75*
G02*
X9565689Y-11927665I-200000J0D01*
G01*
X9565689Y-11927665D02*
G75*
G02*
X9965689Y-11927665I200000J0D01*
G01*
X10295621Y-10056530D02*
G75*
G02*
X9895621Y-10056530I-200000J0D01*
G01*
X9895621Y-10056530D02*
G75*
G02*
X10295621Y-10056530I200000J0D01*
G01*
X10625553Y-8185395D02*
G75*
G02*
X10225553Y-8185395I-200000J0D01*
G01*
X10225553Y-8185395D02*
G75*
G02*
X10625553Y-8185395I200000J0D01*
G01*
X10955484Y-6314260D02*
G75*
G02*
X10555484Y-6314260I-200000J0D01*
G01*
X10555484Y-6314260D02*
G75*
G02*
X10955484Y-6314260I200000J0D01*
G01*
X11750000Y-12750000D02*
G75*
G02*
X11350000Y-12750000I-200000J0D01*
G01*
X11350000Y-12750000D02*
G75*
G02*
X11750000Y-12750000I200000J0D01*
G01*
X12079932Y-10878865D02*
G75*
G02*
X11679932Y-10878865I-200000J0D01*
G01*
X11679932Y-10878865D02*
G75*
G02*
X12079932Y-10878865I200000J0D01*
G01*
X12409863Y-9007731D02*
G75*
G02*
X12009863Y-9007731I-200000J0D01*
G01*
X12009863Y-9007731D02*
G75*
G02*
X12409863Y-9007731I200000J0D01*
G01*
X12739795Y-7136596D02*
G75*
G02*
X12339795Y-7136596I-200000J0D01*
G01*
X12339795Y-7136596D02*
G75*
G02*
X12739795Y-7136596I200000J0D01*
G01*
X13673229Y-12784489D02*
G75*
G02*
X13273229Y-12784489I-200000J0D01*
G01*
X13273229Y-12784489D02*
G75*
G02*
X13673229Y-12784489I200000J0D01*
G01*
X14003161Y-10913354D02*
G75*
G02*
X13603161Y-10913354I-200000J0D01*
G01*
X13603161Y-10913354D02*
G75*
G02*
X14003161Y-10913354I200000J0D01*
G01*
X16371859Y-10913354D02*
G75*
G02*
X15971859Y-10913354I-200000J0D01*
G01*
X15971859Y-10913354D02*
G75*
G02*
X16371859Y-10913354I200000J0D01*
G01*
X16701790Y-12783879D02*
G75*
G02*
X16301790Y-12783879I-200000J0D01*
G01*
X16301790Y-12783879D02*
G75*
G02*
X16701790Y-12783879I200000J0D01*
G01*
X17635225Y-7135986D02*
G75*
G02*
X17235225Y-7135986I-200000J0D01*
G01*
X17235225Y-7135986D02*
G75*
G02*
X17635225Y-7135986I200000J0D01*
G01*
X17965156Y-9007121D02*
G75*
G02*
X17565156Y-9007121I-200000J0D01*
G01*
X17565156Y-9007121D02*
G75*
G02*
X17965156Y-9007121I200000J0D01*
G01*
X18295088Y-10878255D02*
G75*
G02*
X17895088Y-10878255I-200000J0D01*
G01*
X17895088Y-10878255D02*
G75*
G02*
X18295088Y-10878255I200000J0D01*
G01*
X18625020Y-12749390D02*
G75*
G02*
X18225020Y-12749390I-200000J0D01*
G01*
X18225020Y-12749390D02*
G75*
G02*
X18625020Y-12749390I200000J0D01*
G01*
X19419536Y-6313650D02*
G75*
G02*
X19019536Y-6313650I-200000J0D01*
G01*
X19019536Y-6313650D02*
G75*
G02*
X19419536Y-6313650I200000J0D01*
G01*
X19749467Y-8184785D02*
G75*
G02*
X19349467Y-8184785I-200000J0D01*
G01*
X19349467Y-8184785D02*
G75*
G02*
X19749467Y-8184785I200000J0D01*
G01*
X20079399Y-10055920D02*
G75*
G02*
X19679399Y-10055920I-200000J0D01*
G01*
X19679399Y-10055920D02*
G75*
G02*
X20079399Y-10055920I200000J0D01*
G01*
X20409330Y-11927055D02*
G75*
G02*
X20009330Y-11927055I-200000J0D01*
G01*
X20009330Y-11927055D02*
G75*
G02*
X20409330Y-11927055I200000J0D01*
G01*
X21186481Y-5392834D02*
G75*
G02*
X20786481Y-5392834I-200000J0D01*
G01*
X20786481Y-5392834D02*
G75*
G02*
X21186481Y-5392834I200000J0D01*
G01*
X21516413Y-7263969D02*
G75*
G02*
X21116413Y-7263969I-200000J0D01*
G01*
X21116413Y-7263969D02*
G75*
G02*
X21516413Y-7263969I200000J0D01*
G01*
X21846344Y-9135104D02*
G75*
G02*
X21446344Y-9135104I-200000J0D01*
G01*
X21446344Y-9135104D02*
G75*
G02*
X21846344Y-9135104I200000J0D01*
G01*
X22176276Y-11006238D02*
G75*
G02*
X21776276Y-11006238I-200000J0D01*
G01*
X21776276Y-11006238D02*
G75*
G02*
X22176276Y-11006238I200000J0D01*
G01*
X23144440Y-5555307D02*
G75*
G02*
X22744440Y-5555307I-200000J0D01*
G01*
X22744440Y-5555307D02*
G75*
G02*
X23144440Y-5555307I200000J0D01*
G01*
X23474372Y-7426441D02*
G75*
G02*
X23074372Y-7426441I-200000J0D01*
G01*
X23074372Y-7426441D02*
G75*
G02*
X23474372Y-7426441I200000J0D01*
G01*
X23804303Y-9297576D02*
G75*
G02*
X23404303Y-9297576I-200000J0D01*
G01*
X23404303Y-9297576D02*
G75*
G02*
X23804303Y-9297576I200000J0D01*
G01*
X24134235Y-11168711D02*
G75*
G02*
X23734235Y-11168711I-200000J0D01*
G01*
X23734235Y-11168711D02*
G75*
G02*
X24134235Y-11168711I200000J0D01*
G01*
X25067669Y-5520817D02*
G75*
G02*
X24667669Y-5520817I-200000J0D01*
G01*
X24667669Y-5520817D02*
G75*
G02*
X25067669Y-5520817I200000J0D01*
G01*
X25397601Y-7391952D02*
G75*
G02*
X24997601Y-7391952I-200000J0D01*
G01*
X24997601Y-7391952D02*
G75*
G02*
X25397601Y-7391952I200000J0D01*
G01*
X25727532Y-9263087D02*
G75*
G02*
X25327532Y-9263087I-200000J0D01*
G01*
X25327532Y-9263087D02*
G75*
G02*
X25727532Y-9263087I200000J0D01*
G01*
X26057464Y-11134222D02*
G75*
G02*
X25657464Y-11134222I-200000J0D01*
G01*
X25657464Y-11134222D02*
G75*
G02*
X26057464Y-11134222I200000J0D01*
G01*
D11*
X3356335Y-14063984D02*
X3356335Y-13863984D01*
X3356335Y-13863984D02*
X3403954Y-13863984D01*
X3403954Y-13863984D02*
X3432525Y-13873508D01*
X3432525Y-13873508D02*
X3451573Y-13892555D01*
X3451573Y-13892555D02*
X3461097Y-13911603D01*
X3461097Y-13911603D02*
X3470621Y-13949698D01*
X3470621Y-13949698D02*
X3470621Y-13978269D01*
X3470621Y-13978269D02*
X3461097Y-14016365D01*
X3461097Y-14016365D02*
X3451573Y-14035412D01*
X3451573Y-14035412D02*
X3432525Y-14054460D01*
X3432525Y-14054460D02*
X3403954Y-14063984D01*
X3403954Y-14063984D02*
X3356335Y-14063984D01*
X3556335Y-14063984D02*
X3556335Y-13930650D01*
X3556335Y-13968746D02*
X3565859Y-13949698D01*
X3565859Y-13949698D02*
X3575382Y-13940174D01*
X3575382Y-13940174D02*
X3594430Y-13930650D01*
X3594430Y-13930650D02*
X3613478Y-13930650D01*
X3680144Y-14063984D02*
X3680144Y-13930650D01*
X3680144Y-13863984D02*
X3670621Y-13873508D01*
X3670621Y-13873508D02*
X3680144Y-13883031D01*
X3680144Y-13883031D02*
X3689668Y-13873508D01*
X3689668Y-13873508D02*
X3680144Y-13863984D01*
X3680144Y-13863984D02*
X3680144Y-13883031D01*
X3803954Y-14063984D02*
X3784906Y-14054460D01*
X3784906Y-14054460D02*
X3775382Y-14035412D01*
X3775382Y-14035412D02*
X3775382Y-13863984D01*
X3908716Y-14063984D02*
X3889668Y-14054460D01*
X3889668Y-14054460D02*
X3880144Y-14035412D01*
X3880144Y-14035412D02*
X3880144Y-13863984D01*
X4137287Y-14063984D02*
X4137287Y-13863984D01*
X4137287Y-13863984D02*
X4203954Y-14006841D01*
X4203954Y-14006841D02*
X4270621Y-13863984D01*
X4270621Y-13863984D02*
X4270621Y-14063984D01*
X4451573Y-14063984D02*
X4451573Y-13959222D01*
X4451573Y-13959222D02*
X4442049Y-13940174D01*
X4442049Y-13940174D02*
X4423002Y-13930650D01*
X4423002Y-13930650D02*
X4384906Y-13930650D01*
X4384906Y-13930650D02*
X4365859Y-13940174D01*
X4451573Y-14054460D02*
X4432525Y-14063984D01*
X4432525Y-14063984D02*
X4384906Y-14063984D01*
X4384906Y-14063984D02*
X4365859Y-14054460D01*
X4365859Y-14054460D02*
X4356335Y-14035412D01*
X4356335Y-14035412D02*
X4356335Y-14016365D01*
X4356335Y-14016365D02*
X4365859Y-13997317D01*
X4365859Y-13997317D02*
X4384906Y-13987793D01*
X4384906Y-13987793D02*
X4432525Y-13987793D01*
X4432525Y-13987793D02*
X4451573Y-13978269D01*
X4546811Y-13930650D02*
X4546811Y-14130650D01*
X4546811Y-13940174D02*
X4565859Y-13930650D01*
X4565859Y-13930650D02*
X4603954Y-13930650D01*
X4603954Y-13930650D02*
X4623002Y-13940174D01*
X4623002Y-13940174D02*
X4632525Y-13949698D01*
X4632525Y-13949698D02*
X4642049Y-13968746D01*
X4642049Y-13968746D02*
X4642049Y-14025888D01*
X4642049Y-14025888D02*
X4632525Y-14044936D01*
X4632525Y-14044936D02*
X4623002Y-14054460D01*
X4623002Y-14054460D02*
X4603954Y-14063984D01*
X4603954Y-14063984D02*
X4565859Y-14063984D01*
X4565859Y-14063984D02*
X4546811Y-14054460D01*
X4727764Y-14044936D02*
X4737287Y-14054460D01*
X4737287Y-14054460D02*
X4727764Y-14063984D01*
X4727764Y-14063984D02*
X4718240Y-14054460D01*
X4718240Y-14054460D02*
X4727764Y-14044936D01*
X4727764Y-14044936D02*
X4727764Y-14063984D01*
X4727764Y-13940174D02*
X4737287Y-13949698D01*
X4737287Y-13949698D02*
X4727764Y-13959222D01*
X4727764Y-13959222D02*
X4718240Y-13949698D01*
X4718240Y-13949698D02*
X4727764Y-13940174D01*
X4727764Y-13940174D02*
X4727764Y-13959222D01*
D12*
X2920558Y-14305000D02*
X3095558Y-14480000D01*
X3095558Y-14305000D02*
X2920558Y-14480000D01*
D11*
X3461097Y-14483984D02*
X3346811Y-14483984D01*
X3403954Y-14483984D02*
X3403954Y-14283984D01*
X3403954Y-14283984D02*
X3384906Y-14312555D01*
X3384906Y-14312555D02*
X3365859Y-14331603D01*
X3365859Y-14331603D02*
X3346811Y-14341127D01*
X3546811Y-14464936D02*
X3556335Y-14474460D01*
X3556335Y-14474460D02*
X3546811Y-14483984D01*
X3546811Y-14483984D02*
X3537287Y-14474460D01*
X3537287Y-14474460D02*
X3546811Y-14464936D01*
X3546811Y-14464936D02*
X3546811Y-14483984D01*
X3623002Y-14283984D02*
X3756335Y-14283984D01*
X3756335Y-14283984D02*
X3670621Y-14483984D01*
X3927763Y-14283984D02*
X3832525Y-14283984D01*
X3832525Y-14283984D02*
X3823002Y-14379222D01*
X3823002Y-14379222D02*
X3832525Y-14369698D01*
X3832525Y-14369698D02*
X3851573Y-14360174D01*
X3851573Y-14360174D02*
X3899192Y-14360174D01*
X3899192Y-14360174D02*
X3918240Y-14369698D01*
X3918240Y-14369698D02*
X3927763Y-14379222D01*
X3927763Y-14379222D02*
X3937287Y-14398269D01*
X3937287Y-14398269D02*
X3937287Y-14445888D01*
X3937287Y-14445888D02*
X3927763Y-14464936D01*
X3927763Y-14464936D02*
X3918240Y-14474460D01*
X3918240Y-14474460D02*
X3899192Y-14483984D01*
X3899192Y-14483984D02*
X3851573Y-14483984D01*
X3851573Y-14483984D02*
X3832525Y-14474460D01*
X3832525Y-14474460D02*
X3823002Y-14464936D01*
X4061097Y-14283984D02*
X4080144Y-14283984D01*
X4080144Y-14283984D02*
X4099192Y-14293508D01*
X4099192Y-14293508D02*
X4108716Y-14303031D01*
X4108716Y-14303031D02*
X4118240Y-14322079D01*
X4118240Y-14322079D02*
X4127763Y-14360174D01*
X4127763Y-14360174D02*
X4127763Y-14407793D01*
X4127763Y-14407793D02*
X4118240Y-14445888D01*
X4118240Y-14445888D02*
X4108716Y-14464936D01*
X4108716Y-14464936D02*
X4099192Y-14474460D01*
X4099192Y-14474460D02*
X4080144Y-14483984D01*
X4080144Y-14483984D02*
X4061097Y-14483984D01*
X4061097Y-14483984D02*
X4042049Y-14474460D01*
X4042049Y-14474460D02*
X4032525Y-14464936D01*
X4032525Y-14464936D02*
X4023002Y-14445888D01*
X4023002Y-14445888D02*
X4013478Y-14407793D01*
X4013478Y-14407793D02*
X4013478Y-14360174D01*
X4013478Y-14360174D02*
X4023002Y-14322079D01*
X4023002Y-14322079D02*
X4032525Y-14303031D01*
X4032525Y-14303031D02*
X4042049Y-14293508D01*
X4042049Y-14293508D02*
X4061097Y-14283984D01*
X4213478Y-14483984D02*
X4213478Y-14350650D01*
X4213478Y-14369698D02*
X4223002Y-14360174D01*
X4223002Y-14360174D02*
X4242049Y-14350650D01*
X4242049Y-14350650D02*
X4270621Y-14350650D01*
X4270621Y-14350650D02*
X4289668Y-14360174D01*
X4289668Y-14360174D02*
X4299192Y-14379222D01*
X4299192Y-14379222D02*
X4299192Y-14483984D01*
X4299192Y-14379222D02*
X4308716Y-14360174D01*
X4308716Y-14360174D02*
X4327764Y-14350650D01*
X4327764Y-14350650D02*
X4356335Y-14350650D01*
X4356335Y-14350650D02*
X4375383Y-14360174D01*
X4375383Y-14360174D02*
X4384906Y-14379222D01*
X4384906Y-14379222D02*
X4384906Y-14483984D01*
X4480145Y-14483984D02*
X4480145Y-14350650D01*
X4480145Y-14369698D02*
X4489668Y-14360174D01*
X4489668Y-14360174D02*
X4508716Y-14350650D01*
X4508716Y-14350650D02*
X4537287Y-14350650D01*
X4537287Y-14350650D02*
X4556335Y-14360174D01*
X4556335Y-14360174D02*
X4565859Y-14379222D01*
X4565859Y-14379222D02*
X4565859Y-14483984D01*
X4565859Y-14379222D02*
X4575383Y-14360174D01*
X4575383Y-14360174D02*
X4594430Y-14350650D01*
X4594430Y-14350650D02*
X4623002Y-14350650D01*
X4623002Y-14350650D02*
X4642049Y-14360174D01*
X4642049Y-14360174D02*
X4651573Y-14379222D01*
X4651573Y-14379222D02*
X4651573Y-14483984D01*
X5042049Y-14274460D02*
X4870621Y-14531603D01*
X5299192Y-14283984D02*
X5318240Y-14283984D01*
X5318240Y-14283984D02*
X5337288Y-14293508D01*
X5337288Y-14293508D02*
X5346811Y-14303031D01*
X5346811Y-14303031D02*
X5356335Y-14322079D01*
X5356335Y-14322079D02*
X5365859Y-14360174D01*
X5365859Y-14360174D02*
X5365859Y-14407793D01*
X5365859Y-14407793D02*
X5356335Y-14445888D01*
X5356335Y-14445888D02*
X5346811Y-14464936D01*
X5346811Y-14464936D02*
X5337288Y-14474460D01*
X5337288Y-14474460D02*
X5318240Y-14483984D01*
X5318240Y-14483984D02*
X5299192Y-14483984D01*
X5299192Y-14483984D02*
X5280145Y-14474460D01*
X5280145Y-14474460D02*
X5270621Y-14464936D01*
X5270621Y-14464936D02*
X5261097Y-14445888D01*
X5261097Y-14445888D02*
X5251573Y-14407793D01*
X5251573Y-14407793D02*
X5251573Y-14360174D01*
X5251573Y-14360174D02*
X5261097Y-14322079D01*
X5261097Y-14322079D02*
X5270621Y-14303031D01*
X5270621Y-14303031D02*
X5280145Y-14293508D01*
X5280145Y-14293508D02*
X5299192Y-14283984D01*
X5451573Y-14464936D02*
X5461097Y-14474460D01*
X5461097Y-14474460D02*
X5451573Y-14483984D01*
X5451573Y-14483984D02*
X5442049Y-14474460D01*
X5442049Y-14474460D02*
X5451573Y-14464936D01*
X5451573Y-14464936D02*
X5451573Y-14483984D01*
X5584907Y-14283984D02*
X5603954Y-14283984D01*
X5603954Y-14283984D02*
X5623002Y-14293508D01*
X5623002Y-14293508D02*
X5632526Y-14303031D01*
X5632526Y-14303031D02*
X5642049Y-14322079D01*
X5642049Y-14322079D02*
X5651573Y-14360174D01*
X5651573Y-14360174D02*
X5651573Y-14407793D01*
X5651573Y-14407793D02*
X5642049Y-14445888D01*
X5642049Y-14445888D02*
X5632526Y-14464936D01*
X5632526Y-14464936D02*
X5623002Y-14474460D01*
X5623002Y-14474460D02*
X5603954Y-14483984D01*
X5603954Y-14483984D02*
X5584907Y-14483984D01*
X5584907Y-14483984D02*
X5565859Y-14474460D01*
X5565859Y-14474460D02*
X5556335Y-14464936D01*
X5556335Y-14464936D02*
X5546811Y-14445888D01*
X5546811Y-14445888D02*
X5537288Y-14407793D01*
X5537288Y-14407793D02*
X5537288Y-14360174D01*
X5537288Y-14360174D02*
X5546811Y-14322079D01*
X5546811Y-14322079D02*
X5556335Y-14303031D01*
X5556335Y-14303031D02*
X5565859Y-14293508D01*
X5565859Y-14293508D02*
X5584907Y-14283984D01*
X5823002Y-14283984D02*
X5784906Y-14283984D01*
X5784906Y-14283984D02*
X5765859Y-14293508D01*
X5765859Y-14293508D02*
X5756335Y-14303031D01*
X5756335Y-14303031D02*
X5737287Y-14331603D01*
X5737287Y-14331603D02*
X5727764Y-14369698D01*
X5727764Y-14369698D02*
X5727764Y-14445888D01*
X5727764Y-14445888D02*
X5737287Y-14464936D01*
X5737287Y-14464936D02*
X5746811Y-14474460D01*
X5746811Y-14474460D02*
X5765859Y-14483984D01*
X5765859Y-14483984D02*
X5803954Y-14483984D01*
X5803954Y-14483984D02*
X5823002Y-14474460D01*
X5823002Y-14474460D02*
X5832526Y-14464936D01*
X5832526Y-14464936D02*
X5842049Y-14445888D01*
X5842049Y-14445888D02*
X5842049Y-14398269D01*
X5842049Y-14398269D02*
X5832526Y-14379222D01*
X5832526Y-14379222D02*
X5823002Y-14369698D01*
X5823002Y-14369698D02*
X5803954Y-14360174D01*
X5803954Y-14360174D02*
X5765859Y-14360174D01*
X5765859Y-14360174D02*
X5746811Y-14369698D01*
X5746811Y-14369698D02*
X5737287Y-14379222D01*
X5737287Y-14379222D02*
X5727764Y-14398269D01*
X5956335Y-14369698D02*
X5937287Y-14360174D01*
X5937287Y-14360174D02*
X5927764Y-14350650D01*
X5927764Y-14350650D02*
X5918240Y-14331603D01*
X5918240Y-14331603D02*
X5918240Y-14322079D01*
X5918240Y-14322079D02*
X5927764Y-14303031D01*
X5927764Y-14303031D02*
X5937287Y-14293508D01*
X5937287Y-14293508D02*
X5956335Y-14283984D01*
X5956335Y-14283984D02*
X5994430Y-14283984D01*
X5994430Y-14283984D02*
X6013478Y-14293508D01*
X6013478Y-14293508D02*
X6023002Y-14303031D01*
X6023002Y-14303031D02*
X6032526Y-14322079D01*
X6032526Y-14322079D02*
X6032526Y-14331603D01*
X6032526Y-14331603D02*
X6023002Y-14350650D01*
X6023002Y-14350650D02*
X6013478Y-14360174D01*
X6013478Y-14360174D02*
X5994430Y-14369698D01*
X5994430Y-14369698D02*
X5956335Y-14369698D01*
X5956335Y-14369698D02*
X5937287Y-14379222D01*
X5937287Y-14379222D02*
X5927764Y-14388746D01*
X5927764Y-14388746D02*
X5918240Y-14407793D01*
X5918240Y-14407793D02*
X5918240Y-14445888D01*
X5918240Y-14445888D02*
X5927764Y-14464936D01*
X5927764Y-14464936D02*
X5937287Y-14474460D01*
X5937287Y-14474460D02*
X5956335Y-14483984D01*
X5956335Y-14483984D02*
X5994430Y-14483984D01*
X5994430Y-14483984D02*
X6013478Y-14474460D01*
X6013478Y-14474460D02*
X6023002Y-14464936D01*
X6023002Y-14464936D02*
X6032526Y-14445888D01*
X6032526Y-14445888D02*
X6032526Y-14407793D01*
X6032526Y-14407793D02*
X6023002Y-14388746D01*
X6023002Y-14388746D02*
X6013478Y-14379222D01*
X6013478Y-14379222D02*
X5994430Y-14369698D01*
X6127764Y-14483984D02*
X6165859Y-14483984D01*
X6165859Y-14483984D02*
X6184907Y-14474460D01*
X6184907Y-14474460D02*
X6194430Y-14464936D01*
X6194430Y-14464936D02*
X6213478Y-14436365D01*
X6213478Y-14436365D02*
X6223002Y-14398269D01*
X6223002Y-14398269D02*
X6223002Y-14322079D01*
X6223002Y-14322079D02*
X6213478Y-14303031D01*
X6213478Y-14303031D02*
X6203954Y-14293508D01*
X6203954Y-14293508D02*
X6184907Y-14283984D01*
X6184907Y-14283984D02*
X6146811Y-14283984D01*
X6146811Y-14283984D02*
X6127764Y-14293508D01*
X6127764Y-14293508D02*
X6118240Y-14303031D01*
X6118240Y-14303031D02*
X6108716Y-14322079D01*
X6108716Y-14322079D02*
X6108716Y-14369698D01*
X6108716Y-14369698D02*
X6118240Y-14388746D01*
X6118240Y-14388746D02*
X6127764Y-14398269D01*
X6127764Y-14398269D02*
X6146811Y-14407793D01*
X6146811Y-14407793D02*
X6184907Y-14407793D01*
X6184907Y-14407793D02*
X6203954Y-14398269D01*
X6203954Y-14398269D02*
X6213478Y-14388746D01*
X6213478Y-14388746D02*
X6223002Y-14369698D01*
X6299192Y-14283984D02*
X6299192Y-14322079D01*
X6375383Y-14283984D02*
X6375383Y-14322079D01*
X6670621Y-14560174D02*
X6661097Y-14550650D01*
X6661097Y-14550650D02*
X6642049Y-14522079D01*
X6642049Y-14522079D02*
X6632526Y-14503031D01*
X6632526Y-14503031D02*
X6623002Y-14474460D01*
X6623002Y-14474460D02*
X6613478Y-14426841D01*
X6613478Y-14426841D02*
X6613478Y-14388746D01*
X6613478Y-14388746D02*
X6623002Y-14341127D01*
X6623002Y-14341127D02*
X6632526Y-14312555D01*
X6632526Y-14312555D02*
X6642049Y-14293508D01*
X6642049Y-14293508D02*
X6661097Y-14264936D01*
X6661097Y-14264936D02*
X6670621Y-14255412D01*
X6775383Y-14369698D02*
X6756335Y-14360174D01*
X6756335Y-14360174D02*
X6746811Y-14350650D01*
X6746811Y-14350650D02*
X6737288Y-14331603D01*
X6737288Y-14331603D02*
X6737288Y-14322079D01*
X6737288Y-14322079D02*
X6746811Y-14303031D01*
X6746811Y-14303031D02*
X6756335Y-14293508D01*
X6756335Y-14293508D02*
X6775383Y-14283984D01*
X6775383Y-14283984D02*
X6813478Y-14283984D01*
X6813478Y-14283984D02*
X6832526Y-14293508D01*
X6832526Y-14293508D02*
X6842049Y-14303031D01*
X6842049Y-14303031D02*
X6851573Y-14322079D01*
X6851573Y-14322079D02*
X6851573Y-14331603D01*
X6851573Y-14331603D02*
X6842049Y-14350650D01*
X6842049Y-14350650D02*
X6832526Y-14360174D01*
X6832526Y-14360174D02*
X6813478Y-14369698D01*
X6813478Y-14369698D02*
X6775383Y-14369698D01*
X6775383Y-14369698D02*
X6756335Y-14379222D01*
X6756335Y-14379222D02*
X6746811Y-14388746D01*
X6746811Y-14388746D02*
X6737288Y-14407793D01*
X6737288Y-14407793D02*
X6737288Y-14445888D01*
X6737288Y-14445888D02*
X6746811Y-14464936D01*
X6746811Y-14464936D02*
X6756335Y-14474460D01*
X6756335Y-14474460D02*
X6775383Y-14483984D01*
X6775383Y-14483984D02*
X6813478Y-14483984D01*
X6813478Y-14483984D02*
X6832526Y-14474460D01*
X6832526Y-14474460D02*
X6842049Y-14464936D01*
X6842049Y-14464936D02*
X6851573Y-14445888D01*
X6851573Y-14445888D02*
X6851573Y-14407793D01*
X6851573Y-14407793D02*
X6842049Y-14388746D01*
X6842049Y-14388746D02*
X6832526Y-14379222D01*
X6832526Y-14379222D02*
X6813478Y-14369698D01*
X6965859Y-14369698D02*
X6946811Y-14360174D01*
X6946811Y-14360174D02*
X6937288Y-14350650D01*
X6937288Y-14350650D02*
X6927764Y-14331603D01*
X6927764Y-14331603D02*
X6927764Y-14322079D01*
X6927764Y-14322079D02*
X6937288Y-14303031D01*
X6937288Y-14303031D02*
X6946811Y-14293508D01*
X6946811Y-14293508D02*
X6965859Y-14283984D01*
X6965859Y-14283984D02*
X7003954Y-14283984D01*
X7003954Y-14283984D02*
X7023002Y-14293508D01*
X7023002Y-14293508D02*
X7032526Y-14303031D01*
X7032526Y-14303031D02*
X7042049Y-14322079D01*
X7042049Y-14322079D02*
X7042049Y-14331603D01*
X7042049Y-14331603D02*
X7032526Y-14350650D01*
X7032526Y-14350650D02*
X7023002Y-14360174D01*
X7023002Y-14360174D02*
X7003954Y-14369698D01*
X7003954Y-14369698D02*
X6965859Y-14369698D01*
X6965859Y-14369698D02*
X6946811Y-14379222D01*
X6946811Y-14379222D02*
X6937288Y-14388746D01*
X6937288Y-14388746D02*
X6927764Y-14407793D01*
X6927764Y-14407793D02*
X6927764Y-14445888D01*
X6927764Y-14445888D02*
X6937288Y-14464936D01*
X6937288Y-14464936D02*
X6946811Y-14474460D01*
X6946811Y-14474460D02*
X6965859Y-14483984D01*
X6965859Y-14483984D02*
X7003954Y-14483984D01*
X7003954Y-14483984D02*
X7023002Y-14474460D01*
X7023002Y-14474460D02*
X7032526Y-14464936D01*
X7032526Y-14464936D02*
X7042049Y-14445888D01*
X7042049Y-14445888D02*
X7042049Y-14407793D01*
X7042049Y-14407793D02*
X7032526Y-14388746D01*
X7032526Y-14388746D02*
X7023002Y-14379222D01*
X7023002Y-14379222D02*
X7003954Y-14369698D01*
X7280145Y-14483984D02*
X7280145Y-14283984D01*
X7365859Y-14483984D02*
X7365859Y-14379222D01*
X7365859Y-14379222D02*
X7356335Y-14360174D01*
X7356335Y-14360174D02*
X7337288Y-14350650D01*
X7337288Y-14350650D02*
X7308716Y-14350650D01*
X7308716Y-14350650D02*
X7289669Y-14360174D01*
X7289669Y-14360174D02*
X7280145Y-14369698D01*
X7489669Y-14483984D02*
X7470621Y-14474460D01*
X7470621Y-14474460D02*
X7461097Y-14464936D01*
X7461097Y-14464936D02*
X7451573Y-14445888D01*
X7451573Y-14445888D02*
X7451573Y-14388746D01*
X7451573Y-14388746D02*
X7461097Y-14369698D01*
X7461097Y-14369698D02*
X7470621Y-14360174D01*
X7470621Y-14360174D02*
X7489669Y-14350650D01*
X7489669Y-14350650D02*
X7518240Y-14350650D01*
X7518240Y-14350650D02*
X7537288Y-14360174D01*
X7537288Y-14360174D02*
X7546811Y-14369698D01*
X7546811Y-14369698D02*
X7556335Y-14388746D01*
X7556335Y-14388746D02*
X7556335Y-14445888D01*
X7556335Y-14445888D02*
X7546811Y-14464936D01*
X7546811Y-14464936D02*
X7537288Y-14474460D01*
X7537288Y-14474460D02*
X7518240Y-14483984D01*
X7518240Y-14483984D02*
X7489669Y-14483984D01*
X7670621Y-14483984D02*
X7651573Y-14474460D01*
X7651573Y-14474460D02*
X7642050Y-14455412D01*
X7642050Y-14455412D02*
X7642050Y-14283984D01*
X7823002Y-14474460D02*
X7803954Y-14483984D01*
X7803954Y-14483984D02*
X7765859Y-14483984D01*
X7765859Y-14483984D02*
X7746811Y-14474460D01*
X7746811Y-14474460D02*
X7737288Y-14455412D01*
X7737288Y-14455412D02*
X7737288Y-14379222D01*
X7737288Y-14379222D02*
X7746811Y-14360174D01*
X7746811Y-14360174D02*
X7765859Y-14350650D01*
X7765859Y-14350650D02*
X7803954Y-14350650D01*
X7803954Y-14350650D02*
X7823002Y-14360174D01*
X7823002Y-14360174D02*
X7832526Y-14379222D01*
X7832526Y-14379222D02*
X7832526Y-14398269D01*
X7832526Y-14398269D02*
X7737288Y-14417317D01*
X7908716Y-14474460D02*
X7927764Y-14483984D01*
X7927764Y-14483984D02*
X7965859Y-14483984D01*
X7965859Y-14483984D02*
X7984907Y-14474460D01*
X7984907Y-14474460D02*
X7994431Y-14455412D01*
X7994431Y-14455412D02*
X7994431Y-14445888D01*
X7994431Y-14445888D02*
X7984907Y-14426841D01*
X7984907Y-14426841D02*
X7965859Y-14417317D01*
X7965859Y-14417317D02*
X7937288Y-14417317D01*
X7937288Y-14417317D02*
X7918240Y-14407793D01*
X7918240Y-14407793D02*
X7908716Y-14388746D01*
X7908716Y-14388746D02*
X7908716Y-14379222D01*
X7908716Y-14379222D02*
X7918240Y-14360174D01*
X7918240Y-14360174D02*
X7937288Y-14350650D01*
X7937288Y-14350650D02*
X7965859Y-14350650D01*
X7965859Y-14350650D02*
X7984907Y-14360174D01*
X8061097Y-14560174D02*
X8070621Y-14550650D01*
X8070621Y-14550650D02*
X8089669Y-14522079D01*
X8089669Y-14522079D02*
X8099192Y-14503031D01*
X8099192Y-14503031D02*
X8108716Y-14474460D01*
X8108716Y-14474460D02*
X8118240Y-14426841D01*
X8118240Y-14426841D02*
X8118240Y-14388746D01*
X8118240Y-14388746D02*
X8108716Y-14341127D01*
X8108716Y-14341127D02*
X8099192Y-14312555D01*
X8099192Y-14312555D02*
X8089669Y-14293508D01*
X8089669Y-14293508D02*
X8070621Y-14264936D01*
X8070621Y-14264936D02*
X8061097Y-14255412D01*
X8423002Y-14560174D02*
X8413478Y-14550650D01*
X8413478Y-14550650D02*
X8394431Y-14522079D01*
X8394431Y-14522079D02*
X8384907Y-14503031D01*
X8384907Y-14503031D02*
X8375383Y-14474460D01*
X8375383Y-14474460D02*
X8365859Y-14426841D01*
X8365859Y-14426841D02*
X8365859Y-14388746D01*
X8365859Y-14388746D02*
X8375383Y-14341127D01*
X8375383Y-14341127D02*
X8384907Y-14312555D01*
X8384907Y-14312555D02*
X8394431Y-14293508D01*
X8394431Y-14293508D02*
X8413478Y-14264936D01*
X8413478Y-14264936D02*
X8423002Y-14255412D01*
X8499193Y-14350650D02*
X8499193Y-14483984D01*
X8499193Y-14369698D02*
X8508716Y-14360174D01*
X8508716Y-14360174D02*
X8527764Y-14350650D01*
X8527764Y-14350650D02*
X8556335Y-14350650D01*
X8556335Y-14350650D02*
X8575383Y-14360174D01*
X8575383Y-14360174D02*
X8584907Y-14379222D01*
X8584907Y-14379222D02*
X8584907Y-14483984D01*
X8708716Y-14483984D02*
X8689669Y-14474460D01*
X8689669Y-14474460D02*
X8680145Y-14464936D01*
X8680145Y-14464936D02*
X8670621Y-14445888D01*
X8670621Y-14445888D02*
X8670621Y-14388746D01*
X8670621Y-14388746D02*
X8680145Y-14369698D01*
X8680145Y-14369698D02*
X8689669Y-14360174D01*
X8689669Y-14360174D02*
X8708716Y-14350650D01*
X8708716Y-14350650D02*
X8737288Y-14350650D01*
X8737288Y-14350650D02*
X8756335Y-14360174D01*
X8756335Y-14360174D02*
X8765859Y-14369698D01*
X8765859Y-14369698D02*
X8775383Y-14388746D01*
X8775383Y-14388746D02*
X8775383Y-14445888D01*
X8775383Y-14445888D02*
X8765859Y-14464936D01*
X8765859Y-14464936D02*
X8756335Y-14474460D01*
X8756335Y-14474460D02*
X8737288Y-14483984D01*
X8737288Y-14483984D02*
X8708716Y-14483984D01*
X8832526Y-14350650D02*
X8908716Y-14350650D01*
X8861097Y-14283984D02*
X8861097Y-14455412D01*
X8861097Y-14455412D02*
X8870621Y-14474460D01*
X8870621Y-14474460D02*
X8889669Y-14483984D01*
X8889669Y-14483984D02*
X8908716Y-14483984D01*
X9127764Y-14350650D02*
X9127764Y-14550650D01*
X9127764Y-14360174D02*
X9146812Y-14350650D01*
X9146812Y-14350650D02*
X9184907Y-14350650D01*
X9184907Y-14350650D02*
X9203955Y-14360174D01*
X9203955Y-14360174D02*
X9213478Y-14369698D01*
X9213478Y-14369698D02*
X9223002Y-14388746D01*
X9223002Y-14388746D02*
X9223002Y-14445888D01*
X9223002Y-14445888D02*
X9213478Y-14464936D01*
X9213478Y-14464936D02*
X9203955Y-14474460D01*
X9203955Y-14474460D02*
X9184907Y-14483984D01*
X9184907Y-14483984D02*
X9146812Y-14483984D01*
X9146812Y-14483984D02*
X9127764Y-14474460D01*
X9337288Y-14483984D02*
X9318240Y-14474460D01*
X9318240Y-14474460D02*
X9308716Y-14455412D01*
X9308716Y-14455412D02*
X9308716Y-14283984D01*
X9499193Y-14483984D02*
X9499193Y-14379222D01*
X9499193Y-14379222D02*
X9489669Y-14360174D01*
X9489669Y-14360174D02*
X9470621Y-14350650D01*
X9470621Y-14350650D02*
X9432526Y-14350650D01*
X9432526Y-14350650D02*
X9413478Y-14360174D01*
X9499193Y-14474460D02*
X9480145Y-14483984D01*
X9480145Y-14483984D02*
X9432526Y-14483984D01*
X9432526Y-14483984D02*
X9413478Y-14474460D01*
X9413478Y-14474460D02*
X9403955Y-14455412D01*
X9403955Y-14455412D02*
X9403955Y-14436365D01*
X9403955Y-14436365D02*
X9413478Y-14417317D01*
X9413478Y-14417317D02*
X9432526Y-14407793D01*
X9432526Y-14407793D02*
X9480145Y-14407793D01*
X9480145Y-14407793D02*
X9499193Y-14398269D01*
X9565859Y-14350650D02*
X9642050Y-14350650D01*
X9594431Y-14283984D02*
X9594431Y-14455412D01*
X9594431Y-14455412D02*
X9603955Y-14474460D01*
X9603955Y-14474460D02*
X9623002Y-14483984D01*
X9623002Y-14483984D02*
X9642050Y-14483984D01*
X9784907Y-14474460D02*
X9765859Y-14483984D01*
X9765859Y-14483984D02*
X9727764Y-14483984D01*
X9727764Y-14483984D02*
X9708716Y-14474460D01*
X9708716Y-14474460D02*
X9699193Y-14455412D01*
X9699193Y-14455412D02*
X9699193Y-14379222D01*
X9699193Y-14379222D02*
X9708716Y-14360174D01*
X9708716Y-14360174D02*
X9727764Y-14350650D01*
X9727764Y-14350650D02*
X9765859Y-14350650D01*
X9765859Y-14350650D02*
X9784907Y-14360174D01*
X9784907Y-14360174D02*
X9794431Y-14379222D01*
X9794431Y-14379222D02*
X9794431Y-14398269D01*
X9794431Y-14398269D02*
X9699193Y-14417317D01*
X9965859Y-14483984D02*
X9965859Y-14283984D01*
X9965859Y-14474460D02*
X9946812Y-14483984D01*
X9946812Y-14483984D02*
X9908716Y-14483984D01*
X9908716Y-14483984D02*
X9889669Y-14474460D01*
X9889669Y-14474460D02*
X9880145Y-14464936D01*
X9880145Y-14464936D02*
X9870621Y-14445888D01*
X9870621Y-14445888D02*
X9870621Y-14388746D01*
X9870621Y-14388746D02*
X9880145Y-14369698D01*
X9880145Y-14369698D02*
X9889669Y-14360174D01*
X9889669Y-14360174D02*
X9908716Y-14350650D01*
X9908716Y-14350650D02*
X9946812Y-14350650D01*
X9946812Y-14350650D02*
X9965859Y-14360174D01*
X10042050Y-14560174D02*
X10051574Y-14550650D01*
X10051574Y-14550650D02*
X10070621Y-14522079D01*
X10070621Y-14522079D02*
X10080145Y-14503031D01*
X10080145Y-14503031D02*
X10089669Y-14474460D01*
X10089669Y-14474460D02*
X10099193Y-14426841D01*
X10099193Y-14426841D02*
X10099193Y-14388746D01*
X10099193Y-14388746D02*
X10089669Y-14341127D01*
X10089669Y-14341127D02*
X10080145Y-14312555D01*
X10080145Y-14312555D02*
X10070621Y-14293508D01*
X10070621Y-14293508D02*
X10051574Y-14264936D01*
X10051574Y-14264936D02*
X10042050Y-14255412D01*
X3095558Y-14687500D02*
G75*
G02*
X2895558Y-14687500I-100000J0D01*
G01*
X2895558Y-14687500D02*
G75*
G02*
X3095558Y-14687500I100000J0D01*
G01*
X3442049Y-14645650D02*
X3442049Y-14778984D01*
X3394430Y-14569460D02*
X3346811Y-14712317D01*
X3346811Y-14712317D02*
X3470621Y-14712317D01*
X3546811Y-14759936D02*
X3556335Y-14769460D01*
X3556335Y-14769460D02*
X3546811Y-14778984D01*
X3546811Y-14778984D02*
X3537287Y-14769460D01*
X3537287Y-14769460D02*
X3546811Y-14759936D01*
X3546811Y-14759936D02*
X3546811Y-14778984D01*
X3680144Y-14578984D02*
X3699192Y-14578984D01*
X3699192Y-14578984D02*
X3718240Y-14588508D01*
X3718240Y-14588508D02*
X3727763Y-14598031D01*
X3727763Y-14598031D02*
X3737287Y-14617079D01*
X3737287Y-14617079D02*
X3746811Y-14655174D01*
X3746811Y-14655174D02*
X3746811Y-14702793D01*
X3746811Y-14702793D02*
X3737287Y-14740888D01*
X3737287Y-14740888D02*
X3727763Y-14759936D01*
X3727763Y-14759936D02*
X3718240Y-14769460D01*
X3718240Y-14769460D02*
X3699192Y-14778984D01*
X3699192Y-14778984D02*
X3680144Y-14778984D01*
X3680144Y-14778984D02*
X3661097Y-14769460D01*
X3661097Y-14769460D02*
X3651573Y-14759936D01*
X3651573Y-14759936D02*
X3642049Y-14740888D01*
X3642049Y-14740888D02*
X3632525Y-14702793D01*
X3632525Y-14702793D02*
X3632525Y-14655174D01*
X3632525Y-14655174D02*
X3642049Y-14617079D01*
X3642049Y-14617079D02*
X3651573Y-14598031D01*
X3651573Y-14598031D02*
X3661097Y-14588508D01*
X3661097Y-14588508D02*
X3680144Y-14578984D01*
X3870621Y-14578984D02*
X3889668Y-14578984D01*
X3889668Y-14578984D02*
X3908716Y-14588508D01*
X3908716Y-14588508D02*
X3918240Y-14598031D01*
X3918240Y-14598031D02*
X3927763Y-14617079D01*
X3927763Y-14617079D02*
X3937287Y-14655174D01*
X3937287Y-14655174D02*
X3937287Y-14702793D01*
X3937287Y-14702793D02*
X3927763Y-14740888D01*
X3927763Y-14740888D02*
X3918240Y-14759936D01*
X3918240Y-14759936D02*
X3908716Y-14769460D01*
X3908716Y-14769460D02*
X3889668Y-14778984D01*
X3889668Y-14778984D02*
X3870621Y-14778984D01*
X3870621Y-14778984D02*
X3851573Y-14769460D01*
X3851573Y-14769460D02*
X3842049Y-14759936D01*
X3842049Y-14759936D02*
X3832525Y-14740888D01*
X3832525Y-14740888D02*
X3823002Y-14702793D01*
X3823002Y-14702793D02*
X3823002Y-14655174D01*
X3823002Y-14655174D02*
X3832525Y-14617079D01*
X3832525Y-14617079D02*
X3842049Y-14598031D01*
X3842049Y-14598031D02*
X3851573Y-14588508D01*
X3851573Y-14588508D02*
X3870621Y-14578984D01*
X4061097Y-14578984D02*
X4080144Y-14578984D01*
X4080144Y-14578984D02*
X4099192Y-14588508D01*
X4099192Y-14588508D02*
X4108716Y-14598031D01*
X4108716Y-14598031D02*
X4118240Y-14617079D01*
X4118240Y-14617079D02*
X4127763Y-14655174D01*
X4127763Y-14655174D02*
X4127763Y-14702793D01*
X4127763Y-14702793D02*
X4118240Y-14740888D01*
X4118240Y-14740888D02*
X4108716Y-14759936D01*
X4108716Y-14759936D02*
X4099192Y-14769460D01*
X4099192Y-14769460D02*
X4080144Y-14778984D01*
X4080144Y-14778984D02*
X4061097Y-14778984D01*
X4061097Y-14778984D02*
X4042049Y-14769460D01*
X4042049Y-14769460D02*
X4032525Y-14759936D01*
X4032525Y-14759936D02*
X4023002Y-14740888D01*
X4023002Y-14740888D02*
X4013478Y-14702793D01*
X4013478Y-14702793D02*
X4013478Y-14655174D01*
X4013478Y-14655174D02*
X4023002Y-14617079D01*
X4023002Y-14617079D02*
X4032525Y-14598031D01*
X4032525Y-14598031D02*
X4042049Y-14588508D01*
X4042049Y-14588508D02*
X4061097Y-14578984D01*
X4213478Y-14778984D02*
X4213478Y-14645650D01*
X4213478Y-14664698D02*
X4223002Y-14655174D01*
X4223002Y-14655174D02*
X4242049Y-14645650D01*
X4242049Y-14645650D02*
X4270621Y-14645650D01*
X4270621Y-14645650D02*
X4289668Y-14655174D01*
X4289668Y-14655174D02*
X4299192Y-14674222D01*
X4299192Y-14674222D02*
X4299192Y-14778984D01*
X4299192Y-14674222D02*
X4308716Y-14655174D01*
X4308716Y-14655174D02*
X4327764Y-14645650D01*
X4327764Y-14645650D02*
X4356335Y-14645650D01*
X4356335Y-14645650D02*
X4375383Y-14655174D01*
X4375383Y-14655174D02*
X4384906Y-14674222D01*
X4384906Y-14674222D02*
X4384906Y-14778984D01*
X4480145Y-14778984D02*
X4480145Y-14645650D01*
X4480145Y-14664698D02*
X4489668Y-14655174D01*
X4489668Y-14655174D02*
X4508716Y-14645650D01*
X4508716Y-14645650D02*
X4537287Y-14645650D01*
X4537287Y-14645650D02*
X4556335Y-14655174D01*
X4556335Y-14655174D02*
X4565859Y-14674222D01*
X4565859Y-14674222D02*
X4565859Y-14778984D01*
X4565859Y-14674222D02*
X4575383Y-14655174D01*
X4575383Y-14655174D02*
X4594430Y-14645650D01*
X4594430Y-14645650D02*
X4623002Y-14645650D01*
X4623002Y-14645650D02*
X4642049Y-14655174D01*
X4642049Y-14655174D02*
X4651573Y-14674222D01*
X4651573Y-14674222D02*
X4651573Y-14778984D01*
X5042049Y-14569460D02*
X4870621Y-14826603D01*
X5299192Y-14578984D02*
X5318240Y-14578984D01*
X5318240Y-14578984D02*
X5337288Y-14588508D01*
X5337288Y-14588508D02*
X5346811Y-14598031D01*
X5346811Y-14598031D02*
X5356335Y-14617079D01*
X5356335Y-14617079D02*
X5365859Y-14655174D01*
X5365859Y-14655174D02*
X5365859Y-14702793D01*
X5365859Y-14702793D02*
X5356335Y-14740888D01*
X5356335Y-14740888D02*
X5346811Y-14759936D01*
X5346811Y-14759936D02*
X5337288Y-14769460D01*
X5337288Y-14769460D02*
X5318240Y-14778984D01*
X5318240Y-14778984D02*
X5299192Y-14778984D01*
X5299192Y-14778984D02*
X5280145Y-14769460D01*
X5280145Y-14769460D02*
X5270621Y-14759936D01*
X5270621Y-14759936D02*
X5261097Y-14740888D01*
X5261097Y-14740888D02*
X5251573Y-14702793D01*
X5251573Y-14702793D02*
X5251573Y-14655174D01*
X5251573Y-14655174D02*
X5261097Y-14617079D01*
X5261097Y-14617079D02*
X5270621Y-14598031D01*
X5270621Y-14598031D02*
X5280145Y-14588508D01*
X5280145Y-14588508D02*
X5299192Y-14578984D01*
X5451573Y-14759936D02*
X5461097Y-14769460D01*
X5461097Y-14769460D02*
X5451573Y-14778984D01*
X5451573Y-14778984D02*
X5442049Y-14769460D01*
X5442049Y-14769460D02*
X5451573Y-14759936D01*
X5451573Y-14759936D02*
X5451573Y-14778984D01*
X5651573Y-14778984D02*
X5537288Y-14778984D01*
X5594430Y-14778984D02*
X5594430Y-14578984D01*
X5594430Y-14578984D02*
X5575383Y-14607555D01*
X5575383Y-14607555D02*
X5556335Y-14626603D01*
X5556335Y-14626603D02*
X5537288Y-14636127D01*
X5832526Y-14578984D02*
X5737287Y-14578984D01*
X5737287Y-14578984D02*
X5727764Y-14674222D01*
X5727764Y-14674222D02*
X5737287Y-14664698D01*
X5737287Y-14664698D02*
X5756335Y-14655174D01*
X5756335Y-14655174D02*
X5803954Y-14655174D01*
X5803954Y-14655174D02*
X5823002Y-14664698D01*
X5823002Y-14664698D02*
X5832526Y-14674222D01*
X5832526Y-14674222D02*
X5842049Y-14693269D01*
X5842049Y-14693269D02*
X5842049Y-14740888D01*
X5842049Y-14740888D02*
X5832526Y-14759936D01*
X5832526Y-14759936D02*
X5823002Y-14769460D01*
X5823002Y-14769460D02*
X5803954Y-14778984D01*
X5803954Y-14778984D02*
X5756335Y-14778984D01*
X5756335Y-14778984D02*
X5737287Y-14769460D01*
X5737287Y-14769460D02*
X5727764Y-14759936D01*
X5908716Y-14578984D02*
X6042049Y-14578984D01*
X6042049Y-14578984D02*
X5956335Y-14778984D01*
X6213478Y-14578984D02*
X6118240Y-14578984D01*
X6118240Y-14578984D02*
X6108716Y-14674222D01*
X6108716Y-14674222D02*
X6118240Y-14664698D01*
X6118240Y-14664698D02*
X6137287Y-14655174D01*
X6137287Y-14655174D02*
X6184907Y-14655174D01*
X6184907Y-14655174D02*
X6203954Y-14664698D01*
X6203954Y-14664698D02*
X6213478Y-14674222D01*
X6213478Y-14674222D02*
X6223002Y-14693269D01*
X6223002Y-14693269D02*
X6223002Y-14740888D01*
X6223002Y-14740888D02*
X6213478Y-14759936D01*
X6213478Y-14759936D02*
X6203954Y-14769460D01*
X6203954Y-14769460D02*
X6184907Y-14778984D01*
X6184907Y-14778984D02*
X6137287Y-14778984D01*
X6137287Y-14778984D02*
X6118240Y-14769460D01*
X6118240Y-14769460D02*
X6108716Y-14759936D01*
X6299192Y-14578984D02*
X6299192Y-14617079D01*
X6375383Y-14578984D02*
X6375383Y-14617079D01*
X6670621Y-14855174D02*
X6661097Y-14845650D01*
X6661097Y-14845650D02*
X6642049Y-14817079D01*
X6642049Y-14817079D02*
X6632526Y-14798031D01*
X6632526Y-14798031D02*
X6623002Y-14769460D01*
X6623002Y-14769460D02*
X6613478Y-14721841D01*
X6613478Y-14721841D02*
X6613478Y-14683746D01*
X6613478Y-14683746D02*
X6623002Y-14636127D01*
X6623002Y-14636127D02*
X6632526Y-14607555D01*
X6632526Y-14607555D02*
X6642049Y-14588508D01*
X6642049Y-14588508D02*
X6661097Y-14559936D01*
X6661097Y-14559936D02*
X6670621Y-14550412D01*
X6832526Y-14645650D02*
X6832526Y-14778984D01*
X6784907Y-14569460D02*
X6737288Y-14712317D01*
X6737288Y-14712317D02*
X6861097Y-14712317D01*
X7023002Y-14645650D02*
X7023002Y-14778984D01*
X6975383Y-14569460D02*
X6927764Y-14712317D01*
X6927764Y-14712317D02*
X7051573Y-14712317D01*
X7280145Y-14778984D02*
X7280145Y-14578984D01*
X7365859Y-14778984D02*
X7365859Y-14674222D01*
X7365859Y-14674222D02*
X7356335Y-14655174D01*
X7356335Y-14655174D02*
X7337288Y-14645650D01*
X7337288Y-14645650D02*
X7308716Y-14645650D01*
X7308716Y-14645650D02*
X7289669Y-14655174D01*
X7289669Y-14655174D02*
X7280145Y-14664698D01*
X7489669Y-14778984D02*
X7470621Y-14769460D01*
X7470621Y-14769460D02*
X7461097Y-14759936D01*
X7461097Y-14759936D02*
X7451573Y-14740888D01*
X7451573Y-14740888D02*
X7451573Y-14683746D01*
X7451573Y-14683746D02*
X7461097Y-14664698D01*
X7461097Y-14664698D02*
X7470621Y-14655174D01*
X7470621Y-14655174D02*
X7489669Y-14645650D01*
X7489669Y-14645650D02*
X7518240Y-14645650D01*
X7518240Y-14645650D02*
X7537288Y-14655174D01*
X7537288Y-14655174D02*
X7546811Y-14664698D01*
X7546811Y-14664698D02*
X7556335Y-14683746D01*
X7556335Y-14683746D02*
X7556335Y-14740888D01*
X7556335Y-14740888D02*
X7546811Y-14759936D01*
X7546811Y-14759936D02*
X7537288Y-14769460D01*
X7537288Y-14769460D02*
X7518240Y-14778984D01*
X7518240Y-14778984D02*
X7489669Y-14778984D01*
X7670621Y-14778984D02*
X7651573Y-14769460D01*
X7651573Y-14769460D02*
X7642050Y-14750412D01*
X7642050Y-14750412D02*
X7642050Y-14578984D01*
X7823002Y-14769460D02*
X7803954Y-14778984D01*
X7803954Y-14778984D02*
X7765859Y-14778984D01*
X7765859Y-14778984D02*
X7746811Y-14769460D01*
X7746811Y-14769460D02*
X7737288Y-14750412D01*
X7737288Y-14750412D02*
X7737288Y-14674222D01*
X7737288Y-14674222D02*
X7746811Y-14655174D01*
X7746811Y-14655174D02*
X7765859Y-14645650D01*
X7765859Y-14645650D02*
X7803954Y-14645650D01*
X7803954Y-14645650D02*
X7823002Y-14655174D01*
X7823002Y-14655174D02*
X7832526Y-14674222D01*
X7832526Y-14674222D02*
X7832526Y-14693269D01*
X7832526Y-14693269D02*
X7737288Y-14712317D01*
X7908716Y-14769460D02*
X7927764Y-14778984D01*
X7927764Y-14778984D02*
X7965859Y-14778984D01*
X7965859Y-14778984D02*
X7984907Y-14769460D01*
X7984907Y-14769460D02*
X7994431Y-14750412D01*
X7994431Y-14750412D02*
X7994431Y-14740888D01*
X7994431Y-14740888D02*
X7984907Y-14721841D01*
X7984907Y-14721841D02*
X7965859Y-14712317D01*
X7965859Y-14712317D02*
X7937288Y-14712317D01*
X7937288Y-14712317D02*
X7918240Y-14702793D01*
X7918240Y-14702793D02*
X7908716Y-14683746D01*
X7908716Y-14683746D02*
X7908716Y-14674222D01*
X7908716Y-14674222D02*
X7918240Y-14655174D01*
X7918240Y-14655174D02*
X7937288Y-14645650D01*
X7937288Y-14645650D02*
X7965859Y-14645650D01*
X7965859Y-14645650D02*
X7984907Y-14655174D01*
X8061097Y-14855174D02*
X8070621Y-14845650D01*
X8070621Y-14845650D02*
X8089669Y-14817079D01*
X8089669Y-14817079D02*
X8099192Y-14798031D01*
X8099192Y-14798031D02*
X8108716Y-14769460D01*
X8108716Y-14769460D02*
X8118240Y-14721841D01*
X8118240Y-14721841D02*
X8118240Y-14683746D01*
X8118240Y-14683746D02*
X8108716Y-14636127D01*
X8108716Y-14636127D02*
X8099192Y-14607555D01*
X8099192Y-14607555D02*
X8089669Y-14588508D01*
X8089669Y-14588508D02*
X8070621Y-14559936D01*
X8070621Y-14559936D02*
X8061097Y-14550412D01*
X8423002Y-14855174D02*
X8413478Y-14845650D01*
X8413478Y-14845650D02*
X8394431Y-14817079D01*
X8394431Y-14817079D02*
X8384907Y-14798031D01*
X8384907Y-14798031D02*
X8375383Y-14769460D01*
X8375383Y-14769460D02*
X8365859Y-14721841D01*
X8365859Y-14721841D02*
X8365859Y-14683746D01*
X8365859Y-14683746D02*
X8375383Y-14636127D01*
X8375383Y-14636127D02*
X8384907Y-14607555D01*
X8384907Y-14607555D02*
X8394431Y-14588508D01*
X8394431Y-14588508D02*
X8413478Y-14559936D01*
X8413478Y-14559936D02*
X8423002Y-14550412D01*
X8499193Y-14645650D02*
X8499193Y-14778984D01*
X8499193Y-14664698D02*
X8508716Y-14655174D01*
X8508716Y-14655174D02*
X8527764Y-14645650D01*
X8527764Y-14645650D02*
X8556335Y-14645650D01*
X8556335Y-14645650D02*
X8575383Y-14655174D01*
X8575383Y-14655174D02*
X8584907Y-14674222D01*
X8584907Y-14674222D02*
X8584907Y-14778984D01*
X8708716Y-14778984D02*
X8689669Y-14769460D01*
X8689669Y-14769460D02*
X8680145Y-14759936D01*
X8680145Y-14759936D02*
X8670621Y-14740888D01*
X8670621Y-14740888D02*
X8670621Y-14683746D01*
X8670621Y-14683746D02*
X8680145Y-14664698D01*
X8680145Y-14664698D02*
X8689669Y-14655174D01*
X8689669Y-14655174D02*
X8708716Y-14645650D01*
X8708716Y-14645650D02*
X8737288Y-14645650D01*
X8737288Y-14645650D02*
X8756335Y-14655174D01*
X8756335Y-14655174D02*
X8765859Y-14664698D01*
X8765859Y-14664698D02*
X8775383Y-14683746D01*
X8775383Y-14683746D02*
X8775383Y-14740888D01*
X8775383Y-14740888D02*
X8765859Y-14759936D01*
X8765859Y-14759936D02*
X8756335Y-14769460D01*
X8756335Y-14769460D02*
X8737288Y-14778984D01*
X8737288Y-14778984D02*
X8708716Y-14778984D01*
X8832526Y-14645650D02*
X8908716Y-14645650D01*
X8861097Y-14578984D02*
X8861097Y-14750412D01*
X8861097Y-14750412D02*
X8870621Y-14769460D01*
X8870621Y-14769460D02*
X8889669Y-14778984D01*
X8889669Y-14778984D02*
X8908716Y-14778984D01*
X9127764Y-14645650D02*
X9127764Y-14845650D01*
X9127764Y-14655174D02*
X9146812Y-14645650D01*
X9146812Y-14645650D02*
X9184907Y-14645650D01*
X9184907Y-14645650D02*
X9203955Y-14655174D01*
X9203955Y-14655174D02*
X9213478Y-14664698D01*
X9213478Y-14664698D02*
X9223002Y-14683746D01*
X9223002Y-14683746D02*
X9223002Y-14740888D01*
X9223002Y-14740888D02*
X9213478Y-14759936D01*
X9213478Y-14759936D02*
X9203955Y-14769460D01*
X9203955Y-14769460D02*
X9184907Y-14778984D01*
X9184907Y-14778984D02*
X9146812Y-14778984D01*
X9146812Y-14778984D02*
X9127764Y-14769460D01*
X9337288Y-14778984D02*
X9318240Y-14769460D01*
X9318240Y-14769460D02*
X9308716Y-14750412D01*
X9308716Y-14750412D02*
X9308716Y-14578984D01*
X9499193Y-14778984D02*
X9499193Y-14674222D01*
X9499193Y-14674222D02*
X9489669Y-14655174D01*
X9489669Y-14655174D02*
X9470621Y-14645650D01*
X9470621Y-14645650D02*
X9432526Y-14645650D01*
X9432526Y-14645650D02*
X9413478Y-14655174D01*
X9499193Y-14769460D02*
X9480145Y-14778984D01*
X9480145Y-14778984D02*
X9432526Y-14778984D01*
X9432526Y-14778984D02*
X9413478Y-14769460D01*
X9413478Y-14769460D02*
X9403955Y-14750412D01*
X9403955Y-14750412D02*
X9403955Y-14731365D01*
X9403955Y-14731365D02*
X9413478Y-14712317D01*
X9413478Y-14712317D02*
X9432526Y-14702793D01*
X9432526Y-14702793D02*
X9480145Y-14702793D01*
X9480145Y-14702793D02*
X9499193Y-14693269D01*
X9565859Y-14645650D02*
X9642050Y-14645650D01*
X9594431Y-14578984D02*
X9594431Y-14750412D01*
X9594431Y-14750412D02*
X9603955Y-14769460D01*
X9603955Y-14769460D02*
X9623002Y-14778984D01*
X9623002Y-14778984D02*
X9642050Y-14778984D01*
X9784907Y-14769460D02*
X9765859Y-14778984D01*
X9765859Y-14778984D02*
X9727764Y-14778984D01*
X9727764Y-14778984D02*
X9708716Y-14769460D01*
X9708716Y-14769460D02*
X9699193Y-14750412D01*
X9699193Y-14750412D02*
X9699193Y-14674222D01*
X9699193Y-14674222D02*
X9708716Y-14655174D01*
X9708716Y-14655174D02*
X9727764Y-14645650D01*
X9727764Y-14645650D02*
X9765859Y-14645650D01*
X9765859Y-14645650D02*
X9784907Y-14655174D01*
X9784907Y-14655174D02*
X9794431Y-14674222D01*
X9794431Y-14674222D02*
X9794431Y-14693269D01*
X9794431Y-14693269D02*
X9699193Y-14712317D01*
X9965859Y-14778984D02*
X9965859Y-14578984D01*
X9965859Y-14769460D02*
X9946812Y-14778984D01*
X9946812Y-14778984D02*
X9908716Y-14778984D01*
X9908716Y-14778984D02*
X9889669Y-14769460D01*
X9889669Y-14769460D02*
X9880145Y-14759936D01*
X9880145Y-14759936D02*
X9870621Y-14740888D01*
X9870621Y-14740888D02*
X9870621Y-14683746D01*
X9870621Y-14683746D02*
X9880145Y-14664698D01*
X9880145Y-14664698D02*
X9889669Y-14655174D01*
X9889669Y-14655174D02*
X9908716Y-14645650D01*
X9908716Y-14645650D02*
X9946812Y-14645650D01*
X9946812Y-14645650D02*
X9965859Y-14655174D01*
X10042050Y-14855174D02*
X10051574Y-14845650D01*
X10051574Y-14845650D02*
X10070621Y-14817079D01*
X10070621Y-14817079D02*
X10080145Y-14798031D01*
X10080145Y-14798031D02*
X10089669Y-14769460D01*
X10089669Y-14769460D02*
X10099193Y-14721841D01*
X10099193Y-14721841D02*
X10099193Y-14683746D01*
X10099193Y-14683746D02*
X10089669Y-14636127D01*
X10089669Y-14636127D02*
X10080145Y-14607555D01*
X10080145Y-14607555D02*
X10070621Y-14588508D01*
X10070621Y-14588508D02*
X10051574Y-14559936D01*
X10051574Y-14559936D02*
X10042050Y-14550412D01*
M02*
